<?xml version="1.0" encoding="utf-8" standalone="no"?>
<!DOCTYPE svg PUBLIC "-//W3C//DTD SVG 1.1//EN"
  "http://www.w3.org/Graphics/SVG/1.1/DTD/svg11.dtd">
<svg xmlns:xlink="http://www.w3.org/1999/xlink" width="720pt" height="180pt" viewBox="0 0 720 180" xmlns="http://www.w3.org/2000/svg" version="1.1">
 <metadata>
  <rdf:RDF xmlns:dc="http://purl.org/dc/elements/1.1/" xmlns:cc="http://creativecommons.org/ns#" xmlns:rdf="http://www.w3.org/1999/02/22-rdf-syntax-ns#">
   <cc:Work>
    <dc:type rdf:resource="http://purl.org/dc/dcmitype/StillImage"/>
    <dc:date>2026-02-25T11:38:05.526163</dc:date>
    <dc:format>image/svg+xml</dc:format>
    <dc:creator>
     <cc:Agent>
      <dc:title>Matplotlib v3.10.8, https://matplotlib.org/</dc:title>
     </cc:Agent>
    </dc:creator>
   </cc:Work>
  </rdf:RDF>
 </metadata>
 <defs>
  <style type="text/css">*{stroke-linejoin: round; stroke-linecap: butt}</style>
 </defs>
 <g id="figure_1">
  <g id="patch_1">
   <path d="M 0 180 
L 720 180 
L 720 0 
L 0 0 
z
" style="fill: #ffffff"/>
  </g>
  <g id="axes_1">
   <g id="patch_2">
    <path d="M 88.27 134.44 
L 692.24 134.44 
L 692.24 12.96 
L 88.27 12.96 
z
" style="fill: #ffffff"/>
   </g>
   <g id="FillBetweenPolyCollection_1">
    <defs>
     <path id="m85c81bbc71" d="M 88.27 -161.518182 
L 88.27 -161.518182 
L 90.786542 -161.518182 
L 90.786542 -161.518182 
L 93.303083 -161.518182 
L 93.303083 -161.518182 
L 95.819625 -161.518182 
L 95.819625 -161.518182 
L 98.336167 -161.518182 
L 98.336167 -161.518182 
L 100.852708 -161.518182 
L 100.852708 -161.518182 
L 103.36925 -161.518182 
L 103.36925 -161.518182 
L 105.885792 -161.518182 
L 105.885792 -161.518182 
L 108.402333 -161.518182 
L 108.402333 -161.518182 
L 110.918875 -161.518182 
L 110.918875 -161.518182 
L 113.435417 -161.518182 
L 113.435417 -161.518182 
L 115.951958 -161.518182 
L 115.951958 -161.518182 
L 118.4685 -161.518182 
L 118.4685 -161.518182 
L 120.985042 -161.518182 
L 120.985042 -161.518182 
L 123.501583 -161.518182 
L 123.501583 -161.518182 
L 126.018125 -161.518182 
L 126.018125 -161.518182 
L 128.534667 -161.518182 
L 128.534667 -161.518182 
L 131.051208 -161.518182 
L 131.051208 -161.518182 
L 133.56775 -161.518182 
L 133.56775 -161.518182 
L 136.084292 -161.518182 
L 136.084292 -161.518182 
L 138.600833 -161.518182 
L 138.600833 -161.518182 
L 141.117375 -161.518182 
L 141.117375 -161.518182 
L 143.633917 -161.518182 
L 143.633917 -161.518182 
L 146.150458 -161.518182 
L 146.150458 -161.518182 
L 148.667 -161.518182 
L 148.667 -161.518182 
L 151.183542 -161.518182 
L 151.183542 -161.518182 
L 153.700083 -161.518182 
L 153.700083 -161.518182 
L 156.216625 -161.518182 
L 156.216625 -161.518182 
L 158.733167 -161.518182 
L 158.733167 -161.518182 
L 161.249708 -161.518182 
L 161.249708 -161.518182 
L 163.76625 -161.518182 
L 163.76625 -161.518182 
L 166.282792 -161.518182 
L 166.282792 -161.518182 
L 168.799333 -161.518182 
L 168.799333 -161.518182 
L 171.315875 -161.518182 
L 171.315875 -161.518182 
L 173.832417 -161.518182 
L 173.832417 -161.518182 
L 176.348958 -161.518182 
L 176.348958 -161.518182 
L 178.8655 -161.518182 
L 178.8655 -161.518182 
L 181.382042 -161.518182 
L 181.382042 -161.518182 
L 183.898583 -161.518182 
L 183.898583 -161.518182 
L 186.415125 -161.518182 
L 186.415125 -161.518182 
L 188.931667 -161.518182 
L 188.931667 -161.518182 
L 191.448208 -161.518182 
L 191.448208 -161.518182 
L 193.96475 -161.518182 
L 193.96475 -161.518182 
L 196.481292 -161.518182 
L 196.481292 -161.518182 
L 198.997833 -161.518182 
L 198.997833 -161.518182 
L 201.514375 -161.518182 
L 201.514375 -161.518182 
L 204.030917 -161.518182 
L 204.030917 -161.518182 
L 206.547458 -161.518182 
L 206.547458 -161.518182 
L 209.064 -161.518182 
L 209.064 -161.518182 
L 211.580542 -161.518182 
L 211.580542 -161.518182 
L 214.097083 -161.518182 
L 214.097083 -161.518182 
L 216.613625 -161.518182 
L 216.613625 -161.518182 
L 219.130167 -161.518182 
L 219.130167 -161.518182 
L 221.646708 -161.518182 
L 221.646708 -161.518182 
L 224.16325 -161.518182 
L 224.16325 -161.518182 
L 226.679792 -161.518182 
L 226.679792 -161.518182 
L 229.196333 -161.518182 
L 229.196333 -161.518182 
L 231.712875 -161.518182 
L 231.712875 -161.518182 
L 234.229417 -161.518182 
L 234.229417 -161.518182 
L 236.745958 -161.518182 
L 236.745958 -161.518182 
L 239.2625 -161.518182 
L 239.2625 -161.518182 
L 241.779042 -161.518182 
L 241.779042 -161.518182 
L 244.295583 -161.518182 
L 244.295583 -161.518182 
L 246.812125 -161.518182 
L 246.812125 -161.518182 
L 249.328667 -161.518182 
L 249.328667 -161.518182 
L 251.845208 -161.518182 
L 251.845208 -161.518182 
L 254.36175 -161.518182 
L 254.36175 -161.518182 
L 256.878292 -161.518182 
L 256.878292 -161.518182 
L 259.394833 -161.518182 
L 259.394833 -161.518182 
L 261.911375 -161.518182 
L 261.911375 -161.518182 
L 264.427917 -161.518182 
L 264.427917 -161.518182 
L 266.944458 -161.518182 
L 266.944458 -161.518182 
L 269.461 -161.518182 
L 269.461 -161.518182 
L 271.977542 -161.518182 
L 271.977542 -161.518182 
L 274.494083 -161.518182 
L 274.494083 -161.518182 
L 277.010625 -161.518182 
L 277.010625 -161.518182 
L 279.527167 -161.518182 
L 279.527167 -161.518182 
L 282.043708 -161.518182 
L 282.043708 -161.518182 
L 284.56025 -161.518182 
L 284.56025 -161.518182 
L 287.076792 -161.518182 
L 287.076792 -161.518182 
L 289.593333 -161.518182 
L 289.593333 -161.518182 
L 292.109875 -161.518182 
L 292.109875 -161.518182 
L 294.626417 -161.518182 
L 294.626417 -161.518182 
L 297.142958 -161.518182 
L 297.142958 -161.518182 
L 299.6595 -161.518182 
L 299.6595 -51.081818 
L 302.176042 -51.081818 
L 302.176042 -51.081818 
L 304.692583 -51.081818 
L 304.692583 -51.081818 
L 307.209125 -51.081818 
L 307.209125 -51.081818 
L 309.725667 -51.081818 
L 309.725667 -51.081818 
L 312.242208 -51.081818 
L 312.242208 -51.081818 
L 314.75875 -51.081818 
L 314.75875 -51.081818 
L 317.275292 -51.081818 
L 317.275292 -51.081818 
L 319.791833 -51.081818 
L 319.791833 -51.081818 
L 322.308375 -51.081818 
L 322.308375 -51.081818 
L 324.824917 -51.081818 
L 324.824917 -51.081818 
L 327.341458 -51.081818 
L 327.341458 -51.081818 
L 329.858 -51.081818 
L 329.858 -51.081818 
L 332.374542 -51.081818 
L 332.374542 -51.081818 
L 334.891083 -51.081818 
L 334.891083 -51.081818 
L 337.407625 -51.081818 
L 337.407625 -51.081818 
L 339.924167 -51.081818 
L 339.924167 -51.081818 
L 342.440708 -51.081818 
L 342.440708 -51.081818 
L 344.95725 -51.081818 
L 344.95725 -51.081818 
L 347.473792 -51.081818 
L 347.473792 -51.081818 
L 349.990333 -51.081818 
L 349.990333 -51.081818 
L 352.506875 -51.081818 
L 352.506875 -51.081818 
L 355.023417 -51.081818 
L 355.023417 -51.081818 
L 357.539958 -51.081818 
L 357.539958 -51.081818 
L 360.0565 -51.081818 
L 360.0565 -51.081818 
L 362.573042 -51.081818 
L 362.573042 -51.081818 
L 365.089583 -51.081818 
L 365.089583 -51.081818 
L 367.606125 -51.081818 
L 367.606125 -51.081818 
L 370.122667 -51.081818 
L 370.122667 -51.081818 
L 372.639208 -51.081818 
L 372.639208 -51.081818 
L 375.15575 -51.081818 
L 375.15575 -51.081818 
L 377.672292 -51.081818 
L 377.672292 -51.081818 
L 380.188833 -51.081818 
L 380.188833 -51.081818 
L 382.705375 -51.081818 
L 382.705375 -51.081818 
L 385.221917 -51.081818 
L 385.221917 -51.081818 
L 387.738458 -51.081818 
L 387.738458 -51.081818 
L 390.255 -51.081818 
L 390.255 -51.081818 
L 392.771542 -51.081818 
L 392.771542 -51.081818 
L 395.288083 -51.081818 
L 395.288083 -51.081818 
L 397.804625 -51.081818 
L 397.804625 -51.081818 
L 400.321167 -51.081818 
L 400.321167 -51.081818 
L 402.837708 -51.081818 
L 402.837708 -161.518182 
L 405.35425 -161.518182 
L 405.35425 -161.518182 
L 407.870792 -161.518182 
L 407.870792 -161.518182 
L 410.387333 -161.518182 
L 410.387333 -161.518182 
L 412.903875 -161.518182 
L 412.903875 -161.518182 
L 415.420417 -161.518182 
L 415.420417 -161.518182 
L 417.936958 -161.518182 
L 417.936958 -161.518182 
L 420.4535 -161.518182 
L 420.4535 -161.518182 
L 422.970042 -161.518182 
L 422.970042 -161.518182 
L 425.486583 -161.518182 
L 425.486583 -161.518182 
L 428.003125 -161.518182 
L 428.003125 -51.081818 
L 430.519667 -51.081818 
L 430.519667 -51.081818 
L 433.036208 -51.081818 
L 433.036208 -51.081818 
L 435.55275 -51.081818 
L 435.55275 -51.081818 
L 438.069292 -51.081818 
L 438.069292 -51.081818 
L 440.585833 -51.081818 
L 440.585833 -51.081818 
L 443.102375 -51.081818 
L 443.102375 -51.081818 
L 445.618917 -51.081818 
L 445.618917 -51.081818 
L 448.135458 -51.081818 
L 448.135458 -51.081818 
L 450.652 -51.081818 
L 450.652 -51.081818 
L 453.168542 -51.081818 
L 453.168542 -51.081818 
L 455.685083 -51.081818 
L 455.685083 -51.081818 
L 458.201625 -51.081818 
L 458.201625 -51.081818 
L 460.718167 -51.081818 
L 460.718167 -51.081818 
L 463.234708 -51.081818 
L 463.234708 -51.081818 
L 465.75125 -51.081818 
L 465.75125 -51.081818 
L 468.267792 -51.081818 
L 468.267792 -51.081818 
L 470.784333 -51.081818 
L 470.784333 -51.081818 
L 473.300875 -51.081818 
L 473.300875 -51.081818 
L 475.817417 -51.081818 
L 475.817417 -51.081818 
L 478.333958 -51.081818 
L 478.333958 -51.081818 
L 480.8505 -51.081818 
L 480.8505 -51.081818 
L 483.367042 -51.081818 
L 483.367042 -51.081818 
L 485.883583 -51.081818 
L 485.883583 -51.081818 
L 488.400125 -51.081818 
L 488.400125 -51.081818 
L 490.916667 -51.081818 
L 490.916667 -51.081818 
L 493.433208 -51.081818 
L 493.433208 -51.081818 
L 495.94975 -51.081818 
L 495.94975 -51.081818 
L 498.466292 -51.081818 
L 498.466292 -51.081818 
L 500.982833 -51.081818 
L 500.982833 -51.081818 
L 503.499375 -51.081818 
L 503.499375 -51.081818 
L 506.015917 -51.081818 
L 506.015917 -51.081818 
L 508.532458 -51.081818 
L 508.532458 -51.081818 
L 511.049 -51.081818 
L 511.049 -51.081818 
L 513.565542 -51.081818 
L 513.565542 -51.081818 
L 516.082083 -51.081818 
L 516.082083 -51.081818 
L 518.598625 -51.081818 
L 518.598625 -161.518182 
L 521.115167 -161.518182 
L 521.115167 -161.518182 
L 523.631708 -161.518182 
L 523.631708 -161.518182 
L 526.14825 -161.518182 
L 526.14825 -161.518182 
L 528.664792 -161.518182 
L 528.664792 -161.518182 
L 531.181333 -161.518182 
L 531.181333 -161.518182 
L 533.697875 -161.518182 
L 533.697875 -161.518182 
L 536.214417 -161.518182 
L 536.214417 -161.518182 
L 538.730958 -161.518182 
L 538.730958 -161.518182 
L 541.2475 -161.518182 
L 541.2475 -161.518182 
L 543.764042 -161.518182 
L 543.764042 -161.518182 
L 546.280583 -161.518182 
L 546.280583 -161.518182 
L 548.797125 -161.518182 
L 548.797125 -161.518182 
L 551.313667 -161.518182 
L 551.313667 -161.518182 
L 553.830208 -161.518182 
L 553.830208 -161.518182 
L 556.34675 -161.518182 
L 556.34675 -161.518182 
L 558.863292 -161.518182 
L 558.863292 -161.518182 
L 561.379833 -161.518182 
L 561.379833 -161.518182 
L 563.896375 -161.518182 
L 563.896375 -161.518182 
L 566.412917 -161.518182 
L 566.412917 -161.518182 
L 568.929458 -161.518182 
L 568.929458 -161.518182 
L 571.446 -161.518182 
L 571.446 -161.518182 
L 573.962542 -161.518182 
L 573.962542 -161.518182 
L 576.479083 -161.518182 
L 576.479083 -161.518182 
L 578.995625 -161.518182 
L 578.995625 -161.518182 
L 581.512167 -161.518182 
L 581.512167 -161.518182 
L 584.028708 -161.518182 
L 584.028708 -161.518182 
L 586.54525 -161.518182 
L 586.54525 -161.518182 
L 589.061792 -161.518182 
L 589.061792 -161.518182 
L 591.578333 -161.518182 
L 591.578333 -161.518182 
L 594.094875 -161.518182 
L 594.094875 -161.518182 
L 596.611417 -161.518182 
L 596.611417 -161.518182 
L 599.127958 -161.518182 
L 599.127958 -161.518182 
L 601.6445 -161.518182 
L 601.6445 -161.518182 
L 604.161042 -161.518182 
L 604.161042 -161.518182 
L 606.677583 -161.518182 
L 606.677583 -161.518182 
L 609.194125 -161.518182 
L 609.194125 -161.518182 
L 611.710667 -161.518182 
L 611.710667 -51.081818 
L 614.227208 -51.081818 
L 614.227208 -51.081818 
L 616.74375 -51.081818 
L 616.74375 -51.081818 
L 619.260292 -51.081818 
L 619.260292 -51.081818 
L 621.776833 -51.081818 
L 621.776833 -51.081818 
L 624.293375 -51.081818 
L 624.293375 -51.081818 
L 626.809917 -51.081818 
L 626.809917 -51.081818 
L 629.326458 -51.081818 
L 629.326458 -51.081818 
L 631.843 -51.081818 
L 631.843 -51.081818 
L 634.359542 -51.081818 
L 634.359542 -51.081818 
L 636.876083 -51.081818 
L 636.876083 -51.081818 
L 639.392625 -51.081818 
L 639.392625 -51.081818 
L 641.909167 -51.081818 
L 641.909167 -51.081818 
L 644.425708 -51.081818 
L 644.425708 -51.081818 
L 646.94225 -51.081818 
L 646.94225 -51.081818 
L 649.458792 -51.081818 
L 649.458792 -51.081818 
L 651.975333 -51.081818 
L 651.975333 -51.081818 
L 654.491875 -51.081818 
L 654.491875 -51.081818 
L 657.008417 -51.081818 
L 657.008417 -51.081818 
L 659.524958 -51.081818 
L 659.524958 -51.081818 
L 662.0415 -51.081818 
L 662.0415 -51.081818 
L 664.558042 -51.081818 
L 664.558042 -51.081818 
L 667.074583 -51.081818 
L 667.074583 -51.081818 
L 669.591125 -51.081818 
L 669.591125 -51.081818 
L 672.107667 -51.081818 
L 672.107667 -51.081818 
L 674.624208 -51.081818 
L 674.624208 -51.081818 
L 677.14075 -51.081818 
L 677.14075 -51.081818 
L 679.657292 -51.081818 
L 679.657292 -51.081818 
L 682.173833 -51.081818 
L 682.173833 -51.081818 
L 684.690375 -51.081818 
L 684.690375 -51.081818 
L 687.206917 -51.081818 
L 687.206917 -51.081818 
L 689.723458 -51.081818 
L 689.723458 -51.081818 
L 692.24 -51.081818 
L 692.24 -51.081818 
L 692.24 -161.518182 
L 692.24 -161.518182 
L 692.24 -161.518182 
L 689.723458 -161.518182 
L 689.723458 -161.518182 
L 687.206917 -161.518182 
L 687.206917 -161.518182 
L 684.690375 -161.518182 
L 684.690375 -161.518182 
L 682.173833 -161.518182 
L 682.173833 -161.518182 
L 679.657292 -161.518182 
L 679.657292 -161.518182 
L 677.14075 -161.518182 
L 677.14075 -161.518182 
L 674.624208 -161.518182 
L 674.624208 -161.518182 
L 672.107667 -161.518182 
L 672.107667 -161.518182 
L 669.591125 -161.518182 
L 669.591125 -161.518182 
L 667.074583 -161.518182 
L 667.074583 -161.518182 
L 664.558042 -161.518182 
L 664.558042 -161.518182 
L 662.0415 -161.518182 
L 662.0415 -161.518182 
L 659.524958 -161.518182 
L 659.524958 -161.518182 
L 657.008417 -161.518182 
L 657.008417 -161.518182 
L 654.491875 -161.518182 
L 654.491875 -161.518182 
L 651.975333 -161.518182 
L 651.975333 -161.518182 
L 649.458792 -161.518182 
L 649.458792 -161.518182 
L 646.94225 -161.518182 
L 646.94225 -161.518182 
L 644.425708 -161.518182 
L 644.425708 -161.518182 
L 641.909167 -161.518182 
L 641.909167 -161.518182 
L 639.392625 -161.518182 
L 639.392625 -161.518182 
L 636.876083 -161.518182 
L 636.876083 -161.518182 
L 634.359542 -161.518182 
L 634.359542 -161.518182 
L 631.843 -161.518182 
L 631.843 -161.518182 
L 629.326458 -161.518182 
L 629.326458 -161.518182 
L 626.809917 -161.518182 
L 626.809917 -161.518182 
L 624.293375 -161.518182 
L 624.293375 -161.518182 
L 621.776833 -161.518182 
L 621.776833 -161.518182 
L 619.260292 -161.518182 
L 619.260292 -161.518182 
L 616.74375 -161.518182 
L 616.74375 -161.518182 
L 614.227208 -161.518182 
L 614.227208 -161.518182 
L 611.710667 -161.518182 
L 611.710667 -161.518182 
L 609.194125 -161.518182 
L 609.194125 -161.518182 
L 606.677583 -161.518182 
L 606.677583 -161.518182 
L 604.161042 -161.518182 
L 604.161042 -161.518182 
L 601.6445 -161.518182 
L 601.6445 -161.518182 
L 599.127958 -161.518182 
L 599.127958 -161.518182 
L 596.611417 -161.518182 
L 596.611417 -161.518182 
L 594.094875 -161.518182 
L 594.094875 -161.518182 
L 591.578333 -161.518182 
L 591.578333 -161.518182 
L 589.061792 -161.518182 
L 589.061792 -161.518182 
L 586.54525 -161.518182 
L 586.54525 -161.518182 
L 584.028708 -161.518182 
L 584.028708 -161.518182 
L 581.512167 -161.518182 
L 581.512167 -161.518182 
L 578.995625 -161.518182 
L 578.995625 -161.518182 
L 576.479083 -161.518182 
L 576.479083 -161.518182 
L 573.962542 -161.518182 
L 573.962542 -161.518182 
L 571.446 -161.518182 
L 571.446 -161.518182 
L 568.929458 -161.518182 
L 568.929458 -161.518182 
L 566.412917 -161.518182 
L 566.412917 -161.518182 
L 563.896375 -161.518182 
L 563.896375 -161.518182 
L 561.379833 -161.518182 
L 561.379833 -161.518182 
L 558.863292 -161.518182 
L 558.863292 -161.518182 
L 556.34675 -161.518182 
L 556.34675 -161.518182 
L 553.830208 -161.518182 
L 553.830208 -161.518182 
L 551.313667 -161.518182 
L 551.313667 -161.518182 
L 548.797125 -161.518182 
L 548.797125 -161.518182 
L 546.280583 -161.518182 
L 546.280583 -161.518182 
L 543.764042 -161.518182 
L 543.764042 -161.518182 
L 541.2475 -161.518182 
L 541.2475 -161.518182 
L 538.730958 -161.518182 
L 538.730958 -161.518182 
L 536.214417 -161.518182 
L 536.214417 -161.518182 
L 533.697875 -161.518182 
L 533.697875 -161.518182 
L 531.181333 -161.518182 
L 531.181333 -161.518182 
L 528.664792 -161.518182 
L 528.664792 -161.518182 
L 526.14825 -161.518182 
L 526.14825 -161.518182 
L 523.631708 -161.518182 
L 523.631708 -161.518182 
L 521.115167 -161.518182 
L 521.115167 -161.518182 
L 518.598625 -161.518182 
L 518.598625 -161.518182 
L 516.082083 -161.518182 
L 516.082083 -161.518182 
L 513.565542 -161.518182 
L 513.565542 -161.518182 
L 511.049 -161.518182 
L 511.049 -161.518182 
L 508.532458 -161.518182 
L 508.532458 -161.518182 
L 506.015917 -161.518182 
L 506.015917 -161.518182 
L 503.499375 -161.518182 
L 503.499375 -161.518182 
L 500.982833 -161.518182 
L 500.982833 -161.518182 
L 498.466292 -161.518182 
L 498.466292 -161.518182 
L 495.94975 -161.518182 
L 495.94975 -161.518182 
L 493.433208 -161.518182 
L 493.433208 -161.518182 
L 490.916667 -161.518182 
L 490.916667 -161.518182 
L 488.400125 -161.518182 
L 488.400125 -161.518182 
L 485.883583 -161.518182 
L 485.883583 -161.518182 
L 483.367042 -161.518182 
L 483.367042 -161.518182 
L 480.8505 -161.518182 
L 480.8505 -161.518182 
L 478.333958 -161.518182 
L 478.333958 -161.518182 
L 475.817417 -161.518182 
L 475.817417 -161.518182 
L 473.300875 -161.518182 
L 473.300875 -161.518182 
L 470.784333 -161.518182 
L 470.784333 -161.518182 
L 468.267792 -161.518182 
L 468.267792 -161.518182 
L 465.75125 -161.518182 
L 465.75125 -161.518182 
L 463.234708 -161.518182 
L 463.234708 -161.518182 
L 460.718167 -161.518182 
L 460.718167 -161.518182 
L 458.201625 -161.518182 
L 458.201625 -161.518182 
L 455.685083 -161.518182 
L 455.685083 -161.518182 
L 453.168542 -161.518182 
L 453.168542 -161.518182 
L 450.652 -161.518182 
L 450.652 -161.518182 
L 448.135458 -161.518182 
L 448.135458 -161.518182 
L 445.618917 -161.518182 
L 445.618917 -161.518182 
L 443.102375 -161.518182 
L 443.102375 -161.518182 
L 440.585833 -161.518182 
L 440.585833 -161.518182 
L 438.069292 -161.518182 
L 438.069292 -161.518182 
L 435.55275 -161.518182 
L 435.55275 -161.518182 
L 433.036208 -161.518182 
L 433.036208 -161.518182 
L 430.519667 -161.518182 
L 430.519667 -161.518182 
L 428.003125 -161.518182 
L 428.003125 -161.518182 
L 425.486583 -161.518182 
L 425.486583 -161.518182 
L 422.970042 -161.518182 
L 422.970042 -161.518182 
L 420.4535 -161.518182 
L 420.4535 -161.518182 
L 417.936958 -161.518182 
L 417.936958 -161.518182 
L 415.420417 -161.518182 
L 415.420417 -161.518182 
L 412.903875 -161.518182 
L 412.903875 -161.518182 
L 410.387333 -161.518182 
L 410.387333 -161.518182 
L 407.870792 -161.518182 
L 407.870792 -161.518182 
L 405.35425 -161.518182 
L 405.35425 -161.518182 
L 402.837708 -161.518182 
L 402.837708 -161.518182 
L 400.321167 -161.518182 
L 400.321167 -161.518182 
L 397.804625 -161.518182 
L 397.804625 -161.518182 
L 395.288083 -161.518182 
L 395.288083 -161.518182 
L 392.771542 -161.518182 
L 392.771542 -161.518182 
L 390.255 -161.518182 
L 390.255 -161.518182 
L 387.738458 -161.518182 
L 387.738458 -161.518182 
L 385.221917 -161.518182 
L 385.221917 -161.518182 
L 382.705375 -161.518182 
L 382.705375 -161.518182 
L 380.188833 -161.518182 
L 380.188833 -161.518182 
L 377.672292 -161.518182 
L 377.672292 -161.518182 
L 375.15575 -161.518182 
L 375.15575 -161.518182 
L 372.639208 -161.518182 
L 372.639208 -161.518182 
L 370.122667 -161.518182 
L 370.122667 -161.518182 
L 367.606125 -161.518182 
L 367.606125 -161.518182 
L 365.089583 -161.518182 
L 365.089583 -161.518182 
L 362.573042 -161.518182 
L 362.573042 -161.518182 
L 360.0565 -161.518182 
L 360.0565 -161.518182 
L 357.539958 -161.518182 
L 357.539958 -161.518182 
L 355.023417 -161.518182 
L 355.023417 -161.518182 
L 352.506875 -161.518182 
L 352.506875 -161.518182 
L 349.990333 -161.518182 
L 349.990333 -161.518182 
L 347.473792 -161.518182 
L 347.473792 -161.518182 
L 344.95725 -161.518182 
L 344.95725 -161.518182 
L 342.440708 -161.518182 
L 342.440708 -161.518182 
L 339.924167 -161.518182 
L 339.924167 -161.518182 
L 337.407625 -161.518182 
L 337.407625 -161.518182 
L 334.891083 -161.518182 
L 334.891083 -161.518182 
L 332.374542 -161.518182 
L 332.374542 -161.518182 
L 329.858 -161.518182 
L 329.858 -161.518182 
L 327.341458 -161.518182 
L 327.341458 -161.518182 
L 324.824917 -161.518182 
L 324.824917 -161.518182 
L 322.308375 -161.518182 
L 322.308375 -161.518182 
L 319.791833 -161.518182 
L 319.791833 -161.518182 
L 317.275292 -161.518182 
L 317.275292 -161.518182 
L 314.75875 -161.518182 
L 314.75875 -161.518182 
L 312.242208 -161.518182 
L 312.242208 -161.518182 
L 309.725667 -161.518182 
L 309.725667 -161.518182 
L 307.209125 -161.518182 
L 307.209125 -161.518182 
L 304.692583 -161.518182 
L 304.692583 -161.518182 
L 302.176042 -161.518182 
L 302.176042 -161.518182 
L 299.6595 -161.518182 
L 299.6595 -161.518182 
L 297.142958 -161.518182 
L 297.142958 -161.518182 
L 294.626417 -161.518182 
L 294.626417 -161.518182 
L 292.109875 -161.518182 
L 292.109875 -161.518182 
L 289.593333 -161.518182 
L 289.593333 -161.518182 
L 287.076792 -161.518182 
L 287.076792 -161.518182 
L 284.56025 -161.518182 
L 284.56025 -161.518182 
L 282.043708 -161.518182 
L 282.043708 -161.518182 
L 279.527167 -161.518182 
L 279.527167 -161.518182 
L 277.010625 -161.518182 
L 277.010625 -161.518182 
L 274.494083 -161.518182 
L 274.494083 -161.518182 
L 271.977542 -161.518182 
L 271.977542 -161.518182 
L 269.461 -161.518182 
L 269.461 -161.518182 
L 266.944458 -161.518182 
L 266.944458 -161.518182 
L 264.427917 -161.518182 
L 264.427917 -161.518182 
L 261.911375 -161.518182 
L 261.911375 -161.518182 
L 259.394833 -161.518182 
L 259.394833 -161.518182 
L 256.878292 -161.518182 
L 256.878292 -161.518182 
L 254.36175 -161.518182 
L 254.36175 -161.518182 
L 251.845208 -161.518182 
L 251.845208 -161.518182 
L 249.328667 -161.518182 
L 249.328667 -161.518182 
L 246.812125 -161.518182 
L 246.812125 -161.518182 
L 244.295583 -161.518182 
L 244.295583 -161.518182 
L 241.779042 -161.518182 
L 241.779042 -161.518182 
L 239.2625 -161.518182 
L 239.2625 -161.518182 
L 236.745958 -161.518182 
L 236.745958 -161.518182 
L 234.229417 -161.518182 
L 234.229417 -161.518182 
L 231.712875 -161.518182 
L 231.712875 -161.518182 
L 229.196333 -161.518182 
L 229.196333 -161.518182 
L 226.679792 -161.518182 
L 226.679792 -161.518182 
L 224.16325 -161.518182 
L 224.16325 -161.518182 
L 221.646708 -161.518182 
L 221.646708 -161.518182 
L 219.130167 -161.518182 
L 219.130167 -161.518182 
L 216.613625 -161.518182 
L 216.613625 -161.518182 
L 214.097083 -161.518182 
L 214.097083 -161.518182 
L 211.580542 -161.518182 
L 211.580542 -161.518182 
L 209.064 -161.518182 
L 209.064 -161.518182 
L 206.547458 -161.518182 
L 206.547458 -161.518182 
L 204.030917 -161.518182 
L 204.030917 -161.518182 
L 201.514375 -161.518182 
L 201.514375 -161.518182 
L 198.997833 -161.518182 
L 198.997833 -161.518182 
L 196.481292 -161.518182 
L 196.481292 -161.518182 
L 193.96475 -161.518182 
L 193.96475 -161.518182 
L 191.448208 -161.518182 
L 191.448208 -161.518182 
L 188.931667 -161.518182 
L 188.931667 -161.518182 
L 186.415125 -161.518182 
L 186.415125 -161.518182 
L 183.898583 -161.518182 
L 183.898583 -161.518182 
L 181.382042 -161.518182 
L 181.382042 -161.518182 
L 178.8655 -161.518182 
L 178.8655 -161.518182 
L 176.348958 -161.518182 
L 176.348958 -161.518182 
L 173.832417 -161.518182 
L 173.832417 -161.518182 
L 171.315875 -161.518182 
L 171.315875 -161.518182 
L 168.799333 -161.518182 
L 168.799333 -161.518182 
L 166.282792 -161.518182 
L 166.282792 -161.518182 
L 163.76625 -161.518182 
L 163.76625 -161.518182 
L 161.249708 -161.518182 
L 161.249708 -161.518182 
L 158.733167 -161.518182 
L 158.733167 -161.518182 
L 156.216625 -161.518182 
L 156.216625 -161.518182 
L 153.700083 -161.518182 
L 153.700083 -161.518182 
L 151.183542 -161.518182 
L 151.183542 -161.518182 
L 148.667 -161.518182 
L 148.667 -161.518182 
L 146.150458 -161.518182 
L 146.150458 -161.518182 
L 143.633917 -161.518182 
L 143.633917 -161.518182 
L 141.117375 -161.518182 
L 141.117375 -161.518182 
L 138.600833 -161.518182 
L 138.600833 -161.518182 
L 136.084292 -161.518182 
L 136.084292 -161.518182 
L 133.56775 -161.518182 
L 133.56775 -161.518182 
L 131.051208 -161.518182 
L 131.051208 -161.518182 
L 128.534667 -161.518182 
L 128.534667 -161.518182 
L 126.018125 -161.518182 
L 126.018125 -161.518182 
L 123.501583 -161.518182 
L 123.501583 -161.518182 
L 120.985042 -161.518182 
L 120.985042 -161.518182 
L 118.4685 -161.518182 
L 118.4685 -161.518182 
L 115.951958 -161.518182 
L 115.951958 -161.518182 
L 113.435417 -161.518182 
L 113.435417 -161.518182 
L 110.918875 -161.518182 
L 110.918875 -161.518182 
L 108.402333 -161.518182 
L 108.402333 -161.518182 
L 105.885792 -161.518182 
L 105.885792 -161.518182 
L 103.36925 -161.518182 
L 103.36925 -161.518182 
L 100.852708 -161.518182 
L 100.852708 -161.518182 
L 98.336167 -161.518182 
L 98.336167 -161.518182 
L 95.819625 -161.518182 
L 95.819625 -161.518182 
L 93.303083 -161.518182 
L 93.303083 -161.518182 
L 90.786542 -161.518182 
L 90.786542 -161.518182 
L 88.27 -161.518182 
z
"/>
    </defs>
    <g clip-path="url(#p4df5fce8d2)">
     <use xlink:href="#m85c81bbc71" x="0" y="180" style="fill: #ffe119; fill-opacity: 0.3"/>
    </g>
   </g>
   <g id="matplotlib.axis_1">
    <g id="xtick_1">
     <g id="line2d_1">
      <path d="M 88.27 134.44 
L 88.27 12.96 
" clip-path="url(#p4df5fce8d2)" style="fill: none; stroke: #b0b0b0; stroke-opacity: 0.3; stroke-width: 0.8; stroke-linecap: square"/>
     </g>
     <g id="line2d_2">
      <defs>
       <path id="m4ea7de8fa4" d="M 0 0 
L 0 3.5 
" style="stroke: #000000; stroke-width: 0.8"/>
      </defs>
      <g>
       <use xlink:href="#m4ea7de8fa4" x="88.27" y="134.44" style="stroke: #000000; stroke-width: 0.8"/>
      </g>
     </g>
     <g id="text_1">
      <!-- 09:00 -->
      <g transform="translate(75.694375 149.815625) scale(0.12 -0.12)">
       <defs>
        <path id="LibertinusSerif-Regular-30" d="M 1459 -64 
C 1952 -64 2701 435 2701 1939 
C 2701 2573 2547 3117 2266 3488 
C 2099 3712 1830 3904 1485 3904 
C 851 3904 250 3149 250 1882 
C 250 1197 461 557 813 205 
C 992 26 1210 -64 1459 -64 
z
M 1485 3680 
C 1594 3680 1696 3642 1773 3571 
C 1971 3405 2144 2918 2144 2061 
C 2144 1472 2125 1069 2035 742 
C 1894 218 1581 160 1466 160 
C 870 160 806 1254 806 1811 
C 806 3386 1197 3680 1485 3680 
z
" transform="scale(0.015625)"/>
        <path id="LibertinusSerif-Regular-39" d="M 2093 1638 
C 1920 1056 1510 410 659 90 
C 659 13 685 -45 736 -77 
C 1382 115 1779 384 2138 800 
C 2534 1261 2733 1843 2733 2349 
C 2733 3648 1997 3904 1504 3904 
C 666 3904 320 3091 320 2541 
C 320 1990 614 1498 1485 1498 
C 1651 1498 1901 1549 2093 1638 
z
M 2150 1869 
C 1939 1728 1728 1722 1619 1722 
C 992 1722 851 2336 851 2656 
C 851 3360 1120 3680 1434 3680 
C 1837 3680 2202 3462 2202 2368 
C 2202 2227 2189 2054 2150 1869 
z
" transform="scale(0.015625)"/>
        <path id="LibertinusSerif-Regular-3a" d="M 448 384 
C 448 198 602 45 787 45 
C 973 45 1126 198 1126 384 
C 1126 570 973 723 787 723 
C 602 723 448 570 448 384 
z
M 448 2291 
C 448 2106 602 1952 787 1952 
C 973 1952 1126 2106 1126 2291 
C 1126 2477 973 2630 787 2630 
C 602 2630 448 2477 448 2291 
z
" transform="scale(0.015625)"/>
       </defs>
       <use xlink:href="#LibertinusSerif-Regular-30"/>
       <use xlink:href="#LibertinusSerif-Regular-39" transform="translate(46.499985 0)"/>
       <use xlink:href="#LibertinusSerif-Regular-3a" transform="translate(92.999969 0)"/>
       <use xlink:href="#LibertinusSerif-Regular-30" transform="translate(116.59996 0)"/>
       <use xlink:href="#LibertinusSerif-Regular-30" transform="translate(163.099945 0)"/>
      </g>
     </g>
    </g>
    <g id="xtick_2">
     <g id="line2d_3">
      <path d="M 163.76625 134.44 
L 163.76625 12.96 
" clip-path="url(#p4df5fce8d2)" style="fill: none; stroke: #b0b0b0; stroke-opacity: 0.3; stroke-width: 0.8; stroke-linecap: square"/>
     </g>
     <g id="line2d_4">
      <g>
       <use xlink:href="#m4ea7de8fa4" x="163.76625" y="134.44" style="stroke: #000000; stroke-width: 0.8"/>
      </g>
     </g>
     <g id="text_2">
      <!-- 09:30 -->
      <g transform="translate(151.190625 149.815625) scale(0.12 -0.12)">
       <defs>
        <path id="LibertinusSerif-Regular-33" d="M 1376 3680 
C 1651 3680 1907 3514 1907 3104 
C 1907 2784 1536 2291 902 2202 
L 934 1997 
C 1043 2010 1158 2010 1242 2010 
C 1606 2010 2080 1907 2080 1184 
C 2080 333 1510 160 1286 160 
C 960 160 902 307 826 422 
C 762 512 678 589 550 589 
C 416 589 282 467 282 365 
C 282 109 819 -64 1203 -64 
C 1965 -64 2643 429 2643 1274 
C 2643 1971 2118 2221 1741 2285 
L 1734 2298 
C 2259 2547 2406 2810 2406 3149 
C 2406 3341 2362 3494 2208 3654 
C 2067 3795 1843 3904 1510 3904 
C 570 3904 301 3290 301 3078 
C 301 2989 365 2861 518 2861 
C 742 2861 768 3072 768 3194 
C 768 3603 1210 3680 1376 3680 
z
" transform="scale(0.015625)"/>
       </defs>
       <use xlink:href="#LibertinusSerif-Regular-30"/>
       <use xlink:href="#LibertinusSerif-Regular-39" transform="translate(46.499985 0)"/>
       <use xlink:href="#LibertinusSerif-Regular-3a" transform="translate(92.999969 0)"/>
       <use xlink:href="#LibertinusSerif-Regular-33" transform="translate(116.59996 0)"/>
       <use xlink:href="#LibertinusSerif-Regular-30" transform="translate(163.099945 0)"/>
      </g>
     </g>
    </g>
    <g id="xtick_3">
     <g id="line2d_5">
      <path d="M 239.2625 134.44 
L 239.2625 12.96 
" clip-path="url(#p4df5fce8d2)" style="fill: none; stroke: #b0b0b0; stroke-opacity: 0.3; stroke-width: 0.8; stroke-linecap: square"/>
     </g>
     <g id="line2d_6">
      <g>
       <use xlink:href="#m4ea7de8fa4" x="239.2625" y="134.44" style="stroke: #000000; stroke-width: 0.8"/>
      </g>
     </g>
     <g id="text_3">
      <!-- 10:00 -->
      <g transform="translate(226.686875 149.815625) scale(0.12 -0.12)">
       <defs>
        <path id="LibertinusSerif-Regular-31" d="M 1843 781 
L 1843 3002 
C 1843 3386 1850 3776 1862 3859 
C 1862 3891 1850 3891 1824 3891 
C 1472 3674 1133 3514 570 3251 
C 582 3181 608 3117 666 3078 
C 960 3200 1101 3238 1222 3238 
C 1331 3238 1350 3085 1350 2867 
L 1350 781 
C 1350 250 1178 218 730 198 
C 691 160 691 26 730 -13 
C 1043 -6 1274 0 1619 0 
C 1926 0 2080 -6 2400 -13 
C 2438 26 2438 160 2400 198 
C 1952 218 1843 250 1843 781 
z
" transform="scale(0.015625)"/>
       </defs>
       <use xlink:href="#LibertinusSerif-Regular-31"/>
       <use xlink:href="#LibertinusSerif-Regular-30" transform="translate(46.499985 0)"/>
       <use xlink:href="#LibertinusSerif-Regular-3a" transform="translate(92.999969 0)"/>
       <use xlink:href="#LibertinusSerif-Regular-30" transform="translate(116.59996 0)"/>
       <use xlink:href="#LibertinusSerif-Regular-30" transform="translate(163.099945 0)"/>
      </g>
     </g>
    </g>
    <g id="xtick_4">
     <g id="line2d_7">
      <path d="M 314.75875 134.44 
L 314.75875 12.96 
" clip-path="url(#p4df5fce8d2)" style="fill: none; stroke: #b0b0b0; stroke-opacity: 0.3; stroke-width: 0.8; stroke-linecap: square"/>
     </g>
     <g id="line2d_8">
      <g>
       <use xlink:href="#m4ea7de8fa4" x="314.75875" y="134.44" style="stroke: #000000; stroke-width: 0.8"/>
      </g>
     </g>
     <g id="text_4">
      <!-- 10:30 -->
      <g transform="translate(302.183125 149.815625) scale(0.12 -0.12)">
       <use xlink:href="#LibertinusSerif-Regular-31"/>
       <use xlink:href="#LibertinusSerif-Regular-30" transform="translate(46.499985 0)"/>
       <use xlink:href="#LibertinusSerif-Regular-3a" transform="translate(92.999969 0)"/>
       <use xlink:href="#LibertinusSerif-Regular-33" transform="translate(116.59996 0)"/>
       <use xlink:href="#LibertinusSerif-Regular-30" transform="translate(163.099945 0)"/>
      </g>
     </g>
    </g>
    <g id="xtick_5">
     <g id="line2d_9">
      <path d="M 390.255 134.44 
L 390.255 12.96 
" clip-path="url(#p4df5fce8d2)" style="fill: none; stroke: #b0b0b0; stroke-opacity: 0.3; stroke-width: 0.8; stroke-linecap: square"/>
     </g>
     <g id="line2d_10">
      <g>
       <use xlink:href="#m4ea7de8fa4" x="390.255" y="134.44" style="stroke: #000000; stroke-width: 0.8"/>
      </g>
     </g>
     <g id="text_5">
      <!-- 11:00 -->
      <g transform="translate(377.679375 149.815625) scale(0.12 -0.12)">
       <use xlink:href="#LibertinusSerif-Regular-31"/>
       <use xlink:href="#LibertinusSerif-Regular-31" transform="translate(46.499985 0)"/>
       <use xlink:href="#LibertinusSerif-Regular-3a" transform="translate(92.999969 0)"/>
       <use xlink:href="#LibertinusSerif-Regular-30" transform="translate(116.59996 0)"/>
       <use xlink:href="#LibertinusSerif-Regular-30" transform="translate(163.099945 0)"/>
      </g>
     </g>
    </g>
    <g id="xtick_6">
     <g id="line2d_11">
      <path d="M 465.75125 134.44 
L 465.75125 12.96 
" clip-path="url(#p4df5fce8d2)" style="fill: none; stroke: #b0b0b0; stroke-opacity: 0.3; stroke-width: 0.8; stroke-linecap: square"/>
     </g>
     <g id="line2d_12">
      <g>
       <use xlink:href="#m4ea7de8fa4" x="465.75125" y="134.44" style="stroke: #000000; stroke-width: 0.8"/>
      </g>
     </g>
     <g id="text_6">
      <!-- 11:30 -->
      <g transform="translate(453.175625 149.815625) scale(0.12 -0.12)">
       <use xlink:href="#LibertinusSerif-Regular-31"/>
       <use xlink:href="#LibertinusSerif-Regular-31" transform="translate(46.499985 0)"/>
       <use xlink:href="#LibertinusSerif-Regular-3a" transform="translate(92.999969 0)"/>
       <use xlink:href="#LibertinusSerif-Regular-33" transform="translate(116.59996 0)"/>
       <use xlink:href="#LibertinusSerif-Regular-30" transform="translate(163.099945 0)"/>
      </g>
     </g>
    </g>
    <g id="xtick_7">
     <g id="line2d_13">
      <path d="M 541.2475 134.44 
L 541.2475 12.96 
" clip-path="url(#p4df5fce8d2)" style="fill: none; stroke: #b0b0b0; stroke-opacity: 0.3; stroke-width: 0.8; stroke-linecap: square"/>
     </g>
     <g id="line2d_14">
      <g>
       <use xlink:href="#m4ea7de8fa4" x="541.2475" y="134.44" style="stroke: #000000; stroke-width: 0.8"/>
      </g>
     </g>
     <g id="text_7">
      <!-- 12:00 -->
      <g transform="translate(528.671875 149.815625) scale(0.12 -0.12)">
       <defs>
        <path id="LibertinusSerif-Regular-32" d="M 390 2995 
C 390 2861 512 2746 646 2746 
C 755 2746 947 2861 947 3002 
C 947 3053 934 3091 922 3136 
C 909 3181 870 3238 870 3290 
C 870 3450 1037 3680 1504 3680 
C 1734 3680 2061 3520 2061 2906 
C 2061 2496 1914 2163 1536 1779 
L 1062 1312 
C 435 672 333 365 333 -13 
C 333 -13 659 0 864 0 
L 1984 0 
C 2189 0 2483 -13 2483 -13 
C 2566 326 2630 806 2637 998 
C 2598 1030 2515 1043 2451 1030 
C 2342 576 2234 416 2003 416 
L 864 416 
C 864 723 1306 1158 1338 1190 
L 1984 1811 
C 2349 2163 2624 2445 2624 2931 
C 2624 3622 2061 3904 1542 3904 
C 832 3904 390 3379 390 2995 
z
" transform="scale(0.015625)"/>
       </defs>
       <use xlink:href="#LibertinusSerif-Regular-31"/>
       <use xlink:href="#LibertinusSerif-Regular-32" transform="translate(46.499985 0)"/>
       <use xlink:href="#LibertinusSerif-Regular-3a" transform="translate(92.999969 0)"/>
       <use xlink:href="#LibertinusSerif-Regular-30" transform="translate(116.59996 0)"/>
       <use xlink:href="#LibertinusSerif-Regular-30" transform="translate(163.099945 0)"/>
      </g>
     </g>
    </g>
    <g id="xtick_8">
     <g id="line2d_15">
      <path d="M 616.74375 134.44 
L 616.74375 12.96 
" clip-path="url(#p4df5fce8d2)" style="fill: none; stroke: #b0b0b0; stroke-opacity: 0.3; stroke-width: 0.8; stroke-linecap: square"/>
     </g>
     <g id="line2d_16">
      <g>
       <use xlink:href="#m4ea7de8fa4" x="616.74375" y="134.44" style="stroke: #000000; stroke-width: 0.8"/>
      </g>
     </g>
     <g id="text_8">
      <!-- 12:30 -->
      <g transform="translate(604.168125 149.815625) scale(0.12 -0.12)">
       <use xlink:href="#LibertinusSerif-Regular-31"/>
       <use xlink:href="#LibertinusSerif-Regular-32" transform="translate(46.499985 0)"/>
       <use xlink:href="#LibertinusSerif-Regular-3a" transform="translate(92.999969 0)"/>
       <use xlink:href="#LibertinusSerif-Regular-33" transform="translate(116.59996 0)"/>
       <use xlink:href="#LibertinusSerif-Regular-30" transform="translate(163.099945 0)"/>
      </g>
     </g>
    </g>
    <g id="xtick_9">
     <g id="line2d_17">
      <path d="M 692.24 134.44 
L 692.24 12.96 
" clip-path="url(#p4df5fce8d2)" style="fill: none; stroke: #b0b0b0; stroke-opacity: 0.3; stroke-width: 0.8; stroke-linecap: square"/>
     </g>
     <g id="line2d_18">
      <g>
       <use xlink:href="#m4ea7de8fa4" x="692.24" y="134.44" style="stroke: #000000; stroke-width: 0.8"/>
      </g>
     </g>
     <g id="text_9">
      <!-- 13:00 -->
      <g transform="translate(679.664375 149.815625) scale(0.12 -0.12)">
       <use xlink:href="#LibertinusSerif-Regular-31"/>
       <use xlink:href="#LibertinusSerif-Regular-33" transform="translate(46.499985 0)"/>
       <use xlink:href="#LibertinusSerif-Regular-3a" transform="translate(92.999969 0)"/>
       <use xlink:href="#LibertinusSerif-Regular-30" transform="translate(116.59996 0)"/>
       <use xlink:href="#LibertinusSerif-Regular-30" transform="translate(163.099945 0)"/>
      </g>
     </g>
    </g>
    <g id="text_10">
     <!-- Tageszeit -->
     <g transform="translate(367.160625 164.953125) scale(0.12 -0.12)">
      <defs>
       <path id="LibertinusSerif-Regular-54" d="M 2240 781 
L 2240 3226 
C 2240 3635 2304 3878 2534 3878 
L 2675 3878 
C 3155 3878 3456 3712 3565 3219 
C 3635 3219 3725 3226 3782 3251 
C 3738 3546 3706 3872 3699 4160 
C 3699 4166 3686 4179 3680 4179 
C 3462 4160 2752 4128 2246 4128 
L 1696 4128 
C 1203 4128 448 4160 205 4179 
C 192 4179 179 4166 179 4160 
C 154 3872 90 3539 19 3232 
C 83 3206 160 3200 237 3200 
C 365 3712 659 3878 1082 3878 
L 1395 3878 
C 1632 3878 1696 3635 1696 3245 
L 1696 781 
C 1696 250 1587 218 1075 198 
C 1037 160 1037 26 1075 -13 
C 1389 -6 1715 0 1971 0 
C 2214 0 2541 -6 2861 -13 
C 2899 26 2899 160 2861 198 
C 2349 218 2240 250 2240 781 
z
" transform="scale(0.015625)"/>
       <path id="LibertinusSerif-Regular-61" d="M 1875 307 
C 1914 109 1984 -64 2304 -64 
C 2547 -64 2778 45 2912 173 
C 2899 250 2874 307 2803 346 
C 2758 307 2650 243 2566 243 
C 2381 243 2374 493 2374 787 
L 2374 1728 
C 2374 2637 1875 2810 1408 2810 
C 883 2810 352 2464 352 2099 
C 352 1946 429 1869 576 1869 
C 762 1869 877 2003 877 2086 
C 877 2131 870 2176 858 2202 
C 851 2221 845 2259 845 2330 
C 845 2528 1114 2598 1357 2598 
C 1574 2598 1875 2490 1875 1766 
C 1875 1722 1856 1696 1837 1690 
L 1286 1555 
C 672 1402 230 1062 230 627 
C 230 102 589 -64 1037 -64 
C 1261 -64 1453 -13 1734 205 
L 1862 307 
L 1875 307 
z
M 1875 1491 
L 1875 646 
C 1875 563 1837 518 1786 480 
C 1619 346 1402 198 1222 198 
C 902 198 762 454 762 653 
C 762 941 896 1235 1370 1357 
L 1875 1491 
z
" transform="scale(0.015625)"/>
       <path id="LibertinusSerif-Regular-67" d="M 2842 2477 
C 2963 2477 3078 2592 3078 2720 
C 3078 2854 2957 2957 2784 2957 
C 2618 2957 2310 2848 2144 2630 
C 2067 2682 1856 2810 1478 2810 
C 909 2810 384 2426 384 1837 
C 384 1491 538 1293 717 1120 
C 538 966 435 691 435 474 
C 435 243 563 64 730 -19 
C 384 -224 205 -518 205 -794 
C 205 -1350 730 -1523 1222 -1523 
C 2086 -1523 3021 -1107 3021 -416 
C 3021 -211 2925 -51 2739 102 
C 2490 307 2042 314 1805 314 
C 1690 314 1530 301 1376 282 
C 1280 275 1216 269 1184 269 
C 998 269 774 358 774 634 
C 774 762 813 896 890 1005 
C 1043 915 1222 870 1472 870 
C 2035 870 2554 1222 2554 1850 
C 2554 2150 2464 2323 2278 2515 
C 2323 2579 2451 2669 2534 2669 
C 2579 2669 2624 2650 2662 2592 
C 2688 2541 2771 2477 2842 2477 
z
M 845 -64 
C 915 -83 1018 -96 1101 -96 
C 1299 -96 1478 -77 1568 -77 
C 1888 -77 2157 -83 2342 -186 
C 2592 -326 2669 -416 2669 -582 
C 2669 -1043 1990 -1286 1414 -1286 
C 1184 -1286 646 -1101 646 -666 
C 646 -448 659 -288 845 -64 
z
M 2042 1786 
C 2042 1190 1741 1069 1504 1069 
C 966 1069 909 1523 909 1933 
C 909 2381 1069 2611 1421 2611 
C 1824 2611 2042 2317 2042 1786 
z
" transform="scale(0.015625)"/>
       <path id="LibertinusSerif-Regular-65" d="M 2470 595 
C 2234 352 2048 250 1677 250 
C 1446 250 1178 384 979 710 
C 851 922 774 1216 774 1587 
L 2477 1574 
C 2554 1574 2598 1613 2598 1683 
C 2598 2221 2406 2797 1517 2797 
C 960 2797 237 2266 237 1293 
C 237 934 326 589 538 346 
C 755 90 1056 -64 1517 -64 
C 2003 -64 2349 160 2605 493 
C 2586 557 2547 589 2470 595 
z
M 794 1805 
C 915 2528 1363 2586 1517 2586 
C 1760 2586 2048 2451 2048 1914 
C 2048 1856 2022 1824 1952 1824 
L 794 1805 
z
" transform="scale(0.015625)"/>
       <path id="LibertinusSerif-Regular-73" d="M 307 883 
C 333 570 352 269 352 0 
C 416 13 480 19 512 19 
C 557 19 595 19 640 6 
C 813 -38 986 -64 1222 -64 
C 1581 -64 2240 109 2240 742 
C 2240 1178 1926 1434 1491 1594 
C 1107 1741 851 1837 851 2189 
C 851 2451 1082 2598 1299 2598 
C 1440 2598 1811 2547 1894 2003 
C 1933 1965 2061 1971 2099 2010 
C 2118 2240 2131 2477 2138 2688 
C 1939 2720 1632 2810 1299 2810 
C 826 2810 397 2502 397 2093 
C 397 1626 608 1427 1101 1222 
C 1632 1005 1754 870 1754 595 
C 1754 282 1446 147 1210 147 
C 960 147 819 230 755 301 
C 614 448 544 730 506 890 
C 467 928 346 922 307 883 
z
" transform="scale(0.015625)"/>
       <path id="LibertinusSerif-Regular-7a" d="M 454 2810 
C 442 2810 416 2784 416 2771 
C 410 2483 378 2259 320 1946 
C 378 1920 454 1907 531 1926 
C 659 2394 858 2502 1050 2509 
L 1869 2528 
C 1434 1798 794 877 294 205 
C 237 128 237 109 237 77 
C 237 32 288 0 384 0 
L 2381 -19 
C 2458 198 2541 531 2586 851 
C 2547 877 2470 890 2394 890 
L 2304 704 
C 2144 365 2010 224 1677 218 
L 826 218 
C 1299 819 1965 1824 2362 2477 
C 2458 2637 2477 2688 2477 2714 
C 2477 2739 2445 2758 2400 2758 
C 2368 2758 2189 2746 2003 2746 
L 832 2746 
C 627 2746 550 2778 454 2810 
z
" transform="scale(0.015625)"/>
       <path id="LibertinusSerif-Regular-69" d="M 1158 781 
L 1158 2054 
C 1158 2374 1184 2784 1184 2784 
C 1184 2810 1152 2829 1101 2829 
C 922 2758 666 2701 224 2643 
C 211 2605 224 2502 237 2464 
C 589 2432 653 2394 653 2029 
L 653 781 
C 653 250 582 230 192 198 
C 154 160 154 26 192 -13 
C 403 -6 653 0 909 0 
C 1165 0 1408 -6 1619 -13 
C 1658 26 1658 160 1619 198 
C 1229 224 1158 250 1158 781 
z
M 576 3834 
C 576 3667 730 3501 883 3501 
C 1062 3501 1216 3674 1216 3808 
C 1216 3962 1082 4141 909 4141 
C 755 4141 576 3987 576 3834 
z
" transform="scale(0.015625)"/>
       <path id="LibertinusSerif-Regular-74" d="M 275 2746 
C 186 2746 160 2669 160 2618 
L 160 2534 
C 160 2502 166 2496 192 2496 
L 570 2496 
L 570 570 
C 570 115 768 -64 1062 -64 
C 1357 -64 1677 77 1926 358 
C 1914 422 1875 461 1811 467 
C 1645 339 1453 288 1286 288 
C 1114 288 1075 480 1075 877 
L 1075 2496 
L 1741 2496 
C 1805 2496 1894 2522 1894 2579 
L 1894 2707 
C 1894 2733 1875 2746 1843 2746 
L 1075 2746 
L 1075 2995 
C 1075 3411 1101 3667 1101 3667 
C 1101 3706 1082 3725 1050 3725 
C 1024 3725 966 3699 909 3667 
C 838 3629 774 3597 691 3578 
C 614 3552 550 3533 550 3488 
C 550 3411 570 3456 570 2746 
L 275 2746 
z
" transform="scale(0.015625)"/>
      </defs>
      <use xlink:href="#LibertinusSerif-Regular-54"/>
      <use xlink:href="#LibertinusSerif-Regular-61" transform="translate(59.699997 0)"/>
      <use xlink:href="#LibertinusSerif-Regular-67" transform="translate(105.399994 0)"/>
      <use xlink:href="#LibertinusSerif-Regular-65" transform="translate(155.399979 0)"/>
      <use xlink:href="#LibertinusSerif-Regular-73" transform="translate(200.099976 0)"/>
      <use xlink:href="#LibertinusSerif-Regular-7a" transform="translate(239.09996 0)"/>
      <use xlink:href="#LibertinusSerif-Regular-65" transform="translate(281.499954 0)"/>
      <use xlink:href="#LibertinusSerif-Regular-69" transform="translate(326.199951 0)"/>
      <use xlink:href="#LibertinusSerif-Regular-74" transform="translate(353.299942 0)"/>
     </g>
    </g>
   </g>
   <g id="matplotlib.axis_2">
    <g id="ytick_1">
     <g id="line2d_19">
      <path d="M 88.27 18.481818 
L 692.24 18.481818 
" clip-path="url(#p4df5fce8d2)" style="fill: none; stroke-dasharray: 2.96,1.28; stroke-dashoffset: 0; stroke: #b0b0b0; stroke-opacity: 0.3; stroke-width: 0.8"/>
     </g>
     <g id="line2d_20">
      <defs>
       <path id="m37bd2dc023" d="M 0 0 
L -3.5 0 
" style="stroke: #000000; stroke-width: 0.8"/>
      </defs>
      <g>
       <use xlink:href="#m37bd2dc023" x="88.27" y="18.481818" style="stroke: #000000; stroke-width: 0.8"/>
      </g>
     </g>
     <g id="text_11">
      <!-- Behang oben -->
      <g transform="translate(17.5725 22.669631) scale(0.12 -0.12)">
       <defs>
        <path id="LibertinusSerif-Regular-42" d="M 947 4128 
C 717 4128 371 4134 122 4141 
C 83 4102 83 3968 122 3930 
C 570 3910 678 3878 678 3347 
L 678 781 
C 678 250 570 218 122 198 
C 83 160 83 26 122 -13 
C 371 -6 717 0 954 0 
C 1184 0 1350 -13 1888 -13 
C 3162 -13 3501 627 3501 1178 
C 3501 1792 3072 2144 2515 2304 
L 2515 2317 
C 2835 2477 3123 2810 3123 3155 
C 3123 3584 2938 4141 1747 4141 
C 1523 4141 1178 4128 947 4128 
z
M 1222 2125 
L 1664 2125 
C 2541 2125 2906 1632 2906 1056 
C 2906 589 2726 198 1754 198 
C 1306 198 1222 365 1222 755 
L 1222 2125 
z
M 1222 3520 
C 1222 3859 1222 3923 1779 3923 
C 2138 3923 2605 3731 2605 3078 
C 2605 2534 2227 2342 1696 2342 
L 1222 2342 
L 1222 3520 
z
" transform="scale(0.015625)"/>
        <path id="LibertinusSerif-Regular-68" d="M 1069 1830 
C 1069 1965 1126 2042 1178 2099 
C 1421 2336 1747 2477 1997 2477 
C 2125 2477 2259 2394 2336 2246 
C 2400 2118 2413 1946 2413 1754 
L 2413 781 
C 2413 256 2349 230 2016 198 
C 1984 160 1984 26 2016 -13 
C 2195 -6 2413 0 2669 0 
C 2925 0 3136 -6 3347 -13 
C 3379 26 3379 160 3347 198 
C 2989 230 2918 256 2918 781 
L 2918 1734 
C 2918 2086 2893 2400 2746 2592 
C 2637 2733 2438 2810 2214 2810 
C 1901 2810 1517 2726 1126 2291 
C 1126 2285 1120 2285 1114 2278 
C 1094 2253 1062 2214 1062 2291 
L 1069 3731 
C 1069 4147 1094 4403 1094 4403 
C 1094 4448 1069 4467 1011 4467 
C 851 4403 371 4314 115 4294 
C 102 4243 115 4141 154 4102 
C 173 4102 192 4102 211 4102 
C 493 4083 563 4083 563 3578 
L 563 781 
C 563 250 486 224 115 198 
C 77 160 77 26 115 -13 
C 326 -6 563 0 819 0 
C 1062 0 1274 -6 1453 -13 
C 1491 26 1491 160 1453 198 
C 1126 224 1069 250 1069 781 
L 1069 1830 
z
" transform="scale(0.015625)"/>
        <path id="LibertinusSerif-Regular-6e" d="M 1178 2291 
C 1139 2246 1101 2234 1101 2291 
C 1094 2464 1082 2714 1050 2778 
C 1037 2810 1024 2829 973 2829 
C 794 2758 627 2701 186 2643 
C 173 2605 186 2502 198 2464 
C 544 2432 614 2400 614 2029 
L 614 781 
C 614 256 550 230 166 198 
C 128 160 128 26 166 -13 
C 358 -6 614 0 870 0 
C 1126 0 1318 -6 1510 -13 
C 1549 26 1549 160 1510 198 
C 1184 230 1120 256 1120 781 
L 1120 1830 
C 1120 1965 1178 2042 1229 2099 
C 1472 2336 1760 2477 2010 2477 
C 2138 2477 2272 2394 2349 2246 
C 2413 2118 2426 1946 2426 1754 
L 2426 781 
C 2426 256 2362 230 2029 198 
C 1997 160 1997 26 2029 -13 
C 2221 -6 2426 0 2682 0 
C 2938 0 3168 -6 3360 -13 
C 3392 26 3392 160 3360 198 
C 3002 230 2931 256 2931 781 
L 2931 1734 
C 2931 2086 2906 2394 2758 2592 
C 2650 2733 2451 2810 2227 2810 
C 1914 2810 1555 2726 1178 2291 
z
" transform="scale(0.015625)"/>
        <path id="LibertinusSerif-Regular-20" transform="scale(0.015625)"/>
        <path id="LibertinusSerif-Regular-6f" d="M 262 1312 
C 262 659 698 -64 1606 -64 
C 2016 -64 2330 83 2547 294 
C 2835 576 2963 979 2963 1370 
C 2963 2035 2598 2810 1619 2810 
C 1197 2810 851 2637 614 2362 
C 384 2086 262 1715 262 1312 
z
M 1523 2586 
C 2074 2586 2413 2086 2413 1165 
C 2413 358 1997 160 1696 160 
C 1030 160 813 966 813 1459 
C 813 2016 947 2586 1523 2586 
z
" transform="scale(0.015625)"/>
        <path id="LibertinusSerif-Regular-62" d="M 1069 2522 
C 1030 2483 1005 2496 1005 2554 
L 1005 3731 
C 1005 4147 1030 4403 1030 4403 
C 1030 4448 1005 4467 947 4467 
C 787 4403 307 4314 51 4294 
C 38 4243 51 4141 90 4102 
C 109 4102 128 4102 147 4102 
C 429 4083 499 4083 499 3578 
L 499 454 
C 499 205 493 90 474 0 
C 506 -51 538 -77 614 -77 
C 653 -38 717 19 768 77 
C 832 154 870 154 941 96 
C 1088 -26 1280 -64 1504 -64 
C 2157 -64 2918 531 2918 1549 
C 2918 2330 2342 2810 1786 2810 
C 1510 2810 1267 2701 1069 2522 
z
M 1114 2323 
C 1280 2470 1472 2528 1658 2528 
C 2048 2528 2368 2054 2368 1434 
C 2368 704 2074 154 1466 154 
C 1267 154 1133 294 1005 454 
L 1005 2054 
C 1005 2189 1030 2253 1114 2323 
z
" transform="scale(0.015625)"/>
       </defs>
       <use xlink:href="#LibertinusSerif-Regular-42"/>
       <use xlink:href="#LibertinusSerif-Regular-65" transform="translate(58.799988 0)"/>
       <use xlink:href="#LibertinusSerif-Regular-68" transform="translate(103.499985 0)"/>
       <use xlink:href="#LibertinusSerif-Regular-61" transform="translate(157.299973 0)"/>
       <use xlink:href="#LibertinusSerif-Regular-6e" transform="translate(202.999969 0)"/>
       <use xlink:href="#LibertinusSerif-Regular-67" transform="translate(257.199966 0)"/>
       <use xlink:href="#LibertinusSerif-Regular-20" transform="translate(307.199951 0)"/>
       <use xlink:href="#LibertinusSerif-Regular-6f" transform="translate(332.199936 0)"/>
       <use xlink:href="#LibertinusSerif-Regular-62" transform="translate(382.59993 0)"/>
       <use xlink:href="#LibertinusSerif-Regular-65" transform="translate(431.899918 0)"/>
       <use xlink:href="#LibertinusSerif-Regular-6e" transform="translate(476.599915 0)"/>
      </g>
     </g>
    </g>
    <g id="ytick_2">
     <g id="line2d_21">
      <path d="M 88.27 128.918182 
L 692.24 128.918182 
" clip-path="url(#p4df5fce8d2)" style="fill: none; stroke-dasharray: 2.96,1.28; stroke-dashoffset: 0; stroke: #b0b0b0; stroke-opacity: 0.3; stroke-width: 0.8"/>
     </g>
     <g id="line2d_22">
      <g>
       <use xlink:href="#m37bd2dc023" x="88.27" y="128.918182" style="stroke: #000000; stroke-width: 0.8"/>
      </g>
     </g>
     <g id="text_12">
      <!-- Behang unten -->
      <g transform="translate(12.87 133.105994) scale(0.12 -0.12)">
       <defs>
        <path id="LibertinusSerif-Regular-75" d="M 1389 -64 
C 1638 -64 1939 64 2253 320 
C 2285 346 2342 358 2349 314 
C 2368 154 2419 -64 2419 -64 
C 2470 -83 2502 -77 2541 -64 
C 2682 51 2906 147 3296 192 
C 3334 230 3334 326 3296 365 
C 2886 397 2829 518 2829 832 
L 2829 2061 
C 2829 2253 2854 2720 2854 2720 
C 2854 2739 2835 2758 2803 2758 
C 2771 2752 2675 2746 2579 2746 
C 2374 2746 2144 2752 1926 2758 
C 1888 2720 1888 2586 1926 2547 
C 2240 2528 2323 2451 2323 2029 
L 2323 794 
C 2323 672 2310 621 2221 544 
C 1984 339 1741 237 1581 237 
C 1389 237 1069 326 1069 896 
L 1069 2061 
C 1069 2253 1094 2720 1094 2720 
C 1094 2739 1075 2758 1043 2758 
C 1011 2752 915 2746 819 2746 
C 614 2746 384 2752 166 2758 
C 128 2720 128 2586 166 2547 
C 474 2522 563 2451 563 2035 
L 563 806 
C 563 365 755 -64 1389 -64 
z
" transform="scale(0.015625)"/>
       </defs>
       <use xlink:href="#LibertinusSerif-Regular-42"/>
       <use xlink:href="#LibertinusSerif-Regular-65" transform="translate(58.799988 0)"/>
       <use xlink:href="#LibertinusSerif-Regular-68" transform="translate(103.499985 0)"/>
       <use xlink:href="#LibertinusSerif-Regular-61" transform="translate(157.299973 0)"/>
       <use xlink:href="#LibertinusSerif-Regular-6e" transform="translate(202.999969 0)"/>
       <use xlink:href="#LibertinusSerif-Regular-67" transform="translate(257.199966 0)"/>
       <use xlink:href="#LibertinusSerif-Regular-20" transform="translate(307.199951 0)"/>
       <use xlink:href="#LibertinusSerif-Regular-75" transform="translate(332.199936 0)"/>
       <use xlink:href="#LibertinusSerif-Regular-6e" transform="translate(385.299927 0)"/>
       <use xlink:href="#LibertinusSerif-Regular-74" transform="translate(439.499924 0)"/>
       <use xlink:href="#LibertinusSerif-Regular-65" transform="translate(471.099915 0)"/>
       <use xlink:href="#LibertinusSerif-Regular-6e" transform="translate(515.799911 0)"/>
      </g>
     </g>
    </g>
    <g id="text_13">
     <!-- Behangposition -->
     <g transform="translate(704.615625 112.034375) rotate(-90) scale(0.12 -0.12)">
      <defs>
       <path id="LibertinusSerif-Regular-70" d="M 998 2355 
C 992 2547 979 2714 947 2778 
C 934 2810 922 2829 870 2829 
C 691 2758 525 2701 83 2643 
C 70 2605 83 2502 96 2464 
C 442 2432 512 2400 512 2029 
L 512 -704 
C 512 -1235 442 -1267 51 -1286 
C 13 -1325 13 -1459 51 -1498 
C 275 -1491 512 -1485 768 -1485 
C 1024 -1485 1331 -1491 1542 -1498 
C 1581 -1459 1581 -1325 1542 -1286 
C 1088 -1261 1018 -1235 1018 -704 
L 1018 -13 
C 1018 70 1043 64 1107 38 
C 1267 -26 1459 -64 1664 -64 
C 2022 -64 2342 45 2605 294 
C 2906 589 3078 986 3078 1504 
C 3078 2182 2598 2810 1946 2810 
C 1651 2810 1325 2618 1069 2330 
C 1030 2291 1005 2291 998 2355 
z
M 1120 2118 
C 1286 2323 1581 2515 1766 2515 
C 2176 2515 2528 2054 2528 1331 
C 2528 806 2342 154 1626 154 
C 1510 154 1286 186 1171 288 
C 1043 403 1018 442 1018 672 
L 1018 1837 
C 1018 1971 1043 2029 1120 2118 
z
" transform="scale(0.015625)"/>
      </defs>
      <use xlink:href="#LibertinusSerif-Regular-42"/>
      <use xlink:href="#LibertinusSerif-Regular-65" transform="translate(58.799988 0)"/>
      <use xlink:href="#LibertinusSerif-Regular-68" transform="translate(103.499985 0)"/>
      <use xlink:href="#LibertinusSerif-Regular-61" transform="translate(157.299973 0)"/>
      <use xlink:href="#LibertinusSerif-Regular-6e" transform="translate(202.999969 0)"/>
      <use xlink:href="#LibertinusSerif-Regular-67" transform="translate(257.199966 0)"/>
      <use xlink:href="#LibertinusSerif-Regular-70" transform="translate(307.199951 0)"/>
      <use xlink:href="#LibertinusSerif-Regular-6f" transform="translate(359.099945 0)"/>
      <use xlink:href="#LibertinusSerif-Regular-73" transform="translate(409.499939 0)"/>
      <use xlink:href="#LibertinusSerif-Regular-69" transform="translate(448.499924 0)"/>
      <use xlink:href="#LibertinusSerif-Regular-74" transform="translate(475.599915 0)"/>
      <use xlink:href="#LibertinusSerif-Regular-69" transform="translate(507.199905 0)"/>
      <use xlink:href="#LibertinusSerif-Regular-6f" transform="translate(534.299896 0)"/>
      <use xlink:href="#LibertinusSerif-Regular-6e" transform="translate(584.69989 0)"/>
     </g>
    </g>
   </g>
   <g id="line2d_23">
    <path d="M 88.27 18.481818 
L 239.2625 18.481818 
L 239.2625 128.918182 
L 390.255 128.918182 
L 390.255 128.918182 
L 541.2475 128.918182 
L 541.2475 128.918182 
L 692.24 128.918182 
L 692.24 128.918182 
" clip-path="url(#p4df5fce8d2)" style="fill: none; stroke-dasharray: 2.5,4.125; stroke-dashoffset: 0; stroke: #d62728; stroke-width: 2.5"/>
   </g>
   <g id="line2d_24">
    <path d="M 88.27 18.481818 
L 126.018125 18.481818 
L 126.018125 18.481818 
L 163.76625 18.481818 
L 163.76625 18.481818 
L 201.514375 18.481818 
L 201.514375 18.481818 
L 239.2625 18.481818 
L 239.2625 18.481818 
L 277.010625 18.481818 
L 277.010625 128.918182 
L 314.75875 128.918182 
L 314.75875 128.918182 
L 352.506875 128.918182 
L 352.506875 128.918182 
L 390.255 128.918182 
L 390.255 128.918182 
L 428.003125 128.918182 
L 428.003125 128.918182 
L 465.75125 128.918182 
L 465.75125 128.918182 
L 503.499375 128.918182 
L 503.499375 128.918182 
L 541.2475 128.918182 
L 541.2475 18.481818 
L 578.995625 18.481818 
L 578.995625 128.918182 
L 616.74375 128.918182 
L 616.74375 128.918182 
L 654.491875 128.918182 
L 654.491875 128.918182 
L 692.24 128.918182 
L 692.24 128.918182 
" clip-path="url(#p4df5fce8d2)" style="fill: none; stroke-dasharray: 7.4,3.2; stroke-dashoffset: 0; stroke: #1f77b4; stroke-width: 2"/>
   </g>
   <g id="line2d_25">
    <path d="M 88.27 18.481818 
L 100.852708 18.481818 
L 100.852708 18.481818 
L 113.435417 18.481818 
L 113.435417 18.481818 
L 126.018125 18.481818 
L 126.018125 18.481818 
L 138.600833 18.481818 
L 138.600833 18.481818 
L 151.183542 18.481818 
L 151.183542 18.481818 
L 163.76625 18.481818 
L 163.76625 18.481818 
L 176.348958 18.481818 
L 176.348958 18.481818 
L 188.931667 18.481818 
L 188.931667 18.481818 
L 201.514375 18.481818 
L 201.514375 18.481818 
L 214.097083 18.481818 
L 214.097083 18.481818 
L 226.679792 18.481818 
L 226.679792 18.481818 
L 239.2625 18.481818 
L 239.2625 18.481818 
L 251.845208 18.481818 
L 251.845208 18.481818 
L 264.427917 18.481818 
L 264.427917 18.481818 
L 277.010625 18.481818 
L 277.010625 18.481818 
L 289.593333 18.481818 
L 289.593333 128.918182 
L 302.176042 128.918182 
L 302.176042 128.918182 
L 314.75875 128.918182 
L 314.75875 128.918182 
L 327.341458 128.918182 
L 327.341458 128.918182 
L 339.924167 128.918182 
L 339.924167 128.918182 
L 352.506875 128.918182 
L 352.506875 128.918182 
L 365.089583 128.918182 
L 365.089583 128.918182 
L 377.672292 128.918182 
L 377.672292 128.918182 
L 390.255 128.918182 
L 390.255 128.918182 
L 402.837708 128.918182 
L 402.837708 18.481818 
L 415.420417 18.481818 
L 415.420417 18.481818 
L 428.003125 18.481818 
L 428.003125 128.918182 
L 440.585833 128.918182 
L 440.585833 128.918182 
L 453.168542 128.918182 
L 453.168542 128.918182 
L 465.75125 128.918182 
L 465.75125 128.918182 
L 478.333958 128.918182 
L 478.333958 128.918182 
L 490.916667 128.918182 
L 490.916667 128.918182 
L 503.499375 128.918182 
L 503.499375 128.918182 
L 516.082083 128.918182 
L 516.082083 128.918182 
L 528.664792 128.918182 
L 528.664792 18.481818 
L 541.2475 18.481818 
L 541.2475 18.481818 
L 553.830208 18.481818 
L 553.830208 18.481818 
L 566.412917 18.481818 
L 566.412917 18.481818 
L 578.995625 18.481818 
L 578.995625 18.481818 
L 591.578333 18.481818 
L 591.578333 18.481818 
L 604.161042 18.481818 
L 604.161042 128.918182 
L 616.74375 128.918182 
L 616.74375 128.918182 
L 629.326458 128.918182 
L 629.326458 128.918182 
L 641.909167 128.918182 
L 641.909167 128.918182 
L 654.491875 128.918182 
L 654.491875 128.918182 
L 667.074583 128.918182 
L 667.074583 128.918182 
L 679.657292 128.918182 
L 679.657292 128.918182 
L 692.24 128.918182 
L 692.24 128.918182 
" clip-path="url(#p4df5fce8d2)" style="fill: none; stroke-dasharray: 9.6,2.4,1.5,2.4; stroke-dashoffset: 0; stroke: #2ca02c; stroke-width: 1.5"/>
   </g>
   <g id="legend_1">
    <g id="patch_3">
     <path d="M 96.67 110.01125 
L 233.85625 110.01125 
Q 236.25625 110.01125 236.25625 107.61125 
L 236.25625 39.78875 
Q 236.25625 37.38875 233.85625 37.38875 
L 96.67 37.38875 
Q 94.27 37.38875 94.27 39.78875 
L 94.27 107.61125 
Q 94.27 110.01125 96.67 110.01125 
z
" style="fill: #ffffff; opacity: 0.8; stroke: #cccccc; stroke-linejoin: miter"/>
    </g>
    <g id="patch_4">
     <path d="M 99.07 50.58875 
L 123.07 50.58875 
L 123.07 42.18875 
L 99.07 42.18875 
z
" style="fill: #ffe119; fill-opacity: 0.3"/>
    </g>
    <g id="text_14">
     <!-- Sonneneinstrahlung -->
     <g transform="translate(132.67 50.58875) scale(0.12 -0.12)">
      <defs>
       <path id="LibertinusSerif-Regular-53" d="M 2528 4038 
C 2157 4090 2170 4211 1542 4211 
C 896 4211 326 3782 326 3104 
C 326 2432 883 2125 1446 1907 
C 1830 1760 2304 1581 2304 954 
C 2304 435 2016 166 1504 166 
C 909 166 525 442 384 1075 
C 301 1101 237 1088 173 1056 
C 198 563 224 397 301 83 
C 704 83 883 -64 1453 -64 
C 1741 -64 2016 6 2240 147 
C 2611 378 2842 768 2842 1178 
C 2842 1856 2330 2157 1805 2355 
C 1421 2496 781 2739 781 3277 
C 781 3635 1107 3994 1485 3994 
C 2106 3994 2304 3597 2432 3174 
C 2502 3162 2586 3168 2643 3213 
C 2618 3520 2592 3699 2528 4038 
z
" transform="scale(0.015625)"/>
       <path id="LibertinusSerif-Regular-72" d="M 1126 2291 
C 1114 2547 1107 2714 1075 2778 
C 1062 2810 1050 2829 998 2829 
C 819 2758 653 2701 211 2643 
C 198 2605 211 2502 224 2464 
C 570 2432 640 2400 640 2029 
L 640 781 
C 640 250 563 224 166 198 
C 128 160 128 26 166 -13 
C 390 -6 640 0 896 0 
C 1152 0 1446 -6 1670 -13 
C 1709 26 1709 160 1670 198 
C 1222 230 1146 250 1146 781 
L 1146 1670 
C 1146 1837 1222 1984 1299 2099 
C 1370 2202 1517 2413 1594 2413 
C 1651 2413 1709 2400 1760 2330 
C 1805 2266 1882 2182 1990 2182 
C 2144 2182 2291 2342 2291 2502 
C 2291 2624 2176 2810 1907 2810 
C 1606 2810 1344 2528 1197 2278 
C 1158 2208 1126 2259 1126 2291 
z
" transform="scale(0.015625)"/>
       <path id="LibertinusSerif-Regular-6c" d="M 608 781 
C 608 250 538 218 147 198 
C 109 160 109 26 147 -13 
C 371 -6 608 0 864 0 
C 1120 0 1363 -6 1574 -13 
C 1613 26 1613 160 1574 198 
C 1184 218 1114 250 1114 781 
L 1114 3731 
C 1114 4147 1139 4403 1139 4403 
C 1139 4448 1114 4467 1056 4467 
C 896 4403 416 4314 160 4294 
C 147 4243 160 4141 198 4102 
C 570 4077 608 4058 608 3578 
L 608 781 
z
" transform="scale(0.015625)"/>
      </defs>
      <use xlink:href="#LibertinusSerif-Regular-53"/>
      <use xlink:href="#LibertinusSerif-Regular-6f" transform="translate(48.499985 0)"/>
      <use xlink:href="#LibertinusSerif-Regular-6e" transform="translate(98.899979 0)"/>
      <use xlink:href="#LibertinusSerif-Regular-6e" transform="translate(153.099976 0)"/>
      <use xlink:href="#LibertinusSerif-Regular-65" transform="translate(207.299973 0)"/>
      <use xlink:href="#LibertinusSerif-Regular-6e" transform="translate(251.999969 0)"/>
      <use xlink:href="#LibertinusSerif-Regular-65" transform="translate(306.199966 0)"/>
      <use xlink:href="#LibertinusSerif-Regular-69" transform="translate(350.899963 0)"/>
      <use xlink:href="#LibertinusSerif-Regular-6e" transform="translate(377.999954 0)"/>
      <use xlink:href="#LibertinusSerif-Regular-73" transform="translate(432.199951 0)"/>
      <use xlink:href="#LibertinusSerif-Regular-74" transform="translate(471.199936 0)"/>
      <use xlink:href="#LibertinusSerif-Regular-72" transform="translate(502.799927 0)"/>
      <use xlink:href="#LibertinusSerif-Regular-61" transform="translate(539.999924 0)"/>
      <use xlink:href="#LibertinusSerif-Regular-68" transform="translate(585.699921 0)"/>
      <use xlink:href="#LibertinusSerif-Regular-6c" transform="translate(639.499908 0)"/>
      <use xlink:href="#LibertinusSerif-Regular-75" transform="translate(665.899902 0)"/>
      <use xlink:href="#LibertinusSerif-Regular-6e" transform="translate(718.999893 0)"/>
      <use xlink:href="#LibertinusSerif-Regular-67" transform="translate(773.19989 0)"/>
     </g>
    </g>
    <g id="line2d_26">
     <path d="M 99.07 63.644375 
L 111.07 63.644375 
L 111.07 63.644375 
L 123.07 63.644375 
L 123.07 63.644375 
" style="fill: none; stroke-dasharray: 2.5,4.125; stroke-dashoffset: 0; stroke: #d62728; stroke-width: 2.5"/>
    </g>
    <g id="text_15">
     <!-- 60 Min Auflsung -->
     <g transform="translate(132.67 67.844375) scale(0.12 -0.12)">
      <defs>
       <path id="LibertinusSerif-Regular-36" d="M 922 2195 
C 1094 2778 1504 3424 2355 3744 
C 2355 3821 2330 3878 2278 3910 
C 1632 3718 1235 3450 877 3034 
C 480 2573 282 1990 282 1485 
C 282 186 1018 -70 1510 -70 
C 2349 -70 2694 742 2694 1293 
C 2694 1843 2400 2336 1530 2336 
C 1363 2336 1114 2285 922 2195 
z
M 864 1965 
C 1075 2106 1286 2112 1395 2112 
C 2022 2112 2163 1498 2163 1178 
C 2163 474 1894 154 1581 154 
C 1178 154 813 371 813 1466 
C 813 1613 826 1779 864 1965 
z
" transform="scale(0.015625)"/>
       <path id="LibertinusSerif-Regular-4d" d="M 4243 742 
C 4275 224 4250 218 3834 198 
C 3795 160 3795 26 3834 -13 
C 4070 -6 4326 0 4518 0 
C 4710 0 5005 -6 5216 -13 
C 5254 26 5254 160 5216 198 
C 4781 218 4762 243 4723 774 
L 4531 3469 
C 4506 3814 4538 3904 4973 3930 
C 5011 3968 5011 4102 4973 4141 
L 4134 4128 
L 2778 883 
C 2752 819 2733 794 2720 794 
C 2707 794 2688 826 2669 877 
L 1357 4128 
L 429 4141 
C 390 4102 390 3968 429 3930 
C 870 3904 909 3891 864 3411 
L 608 774 
C 570 390 493 230 128 198 
C 90 160 90 26 128 -13 
C 320 -6 525 0 678 0 
C 832 0 1088 -6 1280 -13 
C 1318 26 1318 160 1280 198 
C 858 230 826 429 858 787 
L 1101 3354 
L 1114 3354 
L 2438 32 
C 2458 -13 2496 -64 2534 -64 
C 2573 -64 2598 -19 2624 32 
L 4064 3418 
L 4077 3418 
L 4243 742 
z
" transform="scale(0.015625)"/>
       <path id="LibertinusSerif-Regular-41" d="M 992 506 
L 1344 1434 
C 1376 1517 1414 1542 1568 1542 
L 2918 1542 
L 3290 461 
C 3366 243 3123 218 2816 198 
C 2778 160 2778 26 2816 -13 
C 3053 -6 3405 0 3654 0 
C 3917 0 4160 -6 4384 -13 
C 4422 26 4422 160 4384 198 
C 4134 224 3917 243 3808 550 
L 2490 4211 
C 2394 4154 2221 4083 2138 4083 
L 685 653 
C 518 256 326 218 45 198 
C 6 160 6 26 45 -13 
C 211 -6 422 0 614 0 
C 877 0 1197 -6 1434 -13 
C 1472 26 1472 160 1434 198 
C 1190 218 890 243 992 506 
z
M 1683 1811 
C 1542 1811 1498 1830 1523 1894 
L 2176 3552 
L 2214 3552 
L 2816 1811 
L 1683 1811 
z
" transform="scale(0.015625)"/>
       <path id="LibertinusSerif-Regular-66" d="M 1120 781 
L 1120 2496 
L 1715 2496 
C 1773 2496 1862 2522 1862 2579 
L 1862 2707 
C 1862 2733 1843 2746 1811 2746 
L 1120 2746 
L 1120 3110 
C 1120 4096 1414 4250 1626 4250 
C 1818 4250 1920 4173 2010 3949 
C 2061 3834 2131 3744 2266 3744 
C 2374 3744 2528 3878 2528 4006 
C 2528 4115 2458 4230 2323 4333 
C 2157 4448 1990 4467 1747 4467 
C 1210 4467 614 4000 614 3002 
L 614 2746 
L 288 2746 
C 173 2746 141 2669 141 2618 
L 141 2534 
C 141 2502 147 2496 173 2496 
L 614 2496 
L 614 781 
C 614 250 512 224 166 198 
C 128 160 128 26 166 -13 
C 390 -6 614 0 870 0 
C 1126 0 1434 -6 1658 -13 
C 1696 26 1696 160 1658 198 
C 1158 224 1120 250 1120 781 
z
" transform="scale(0.015625)"/>
       <path id="LibertinusSerif-Regular-f6" d="M 262 1312 
C 262 659 698 -64 1606 -64 
C 2016 -64 2330 83 2547 294 
C 2835 576 2963 979 2963 1370 
C 2963 2035 2598 2810 1619 2810 
C 1197 2810 851 2637 614 2362 
C 384 2086 262 1715 262 1312 
z
M 1523 2586 
C 2074 2586 2413 2086 2413 1165 
C 2413 358 1997 160 1696 160 
C 1030 160 813 966 813 1459 
C 813 2016 947 2586 1523 2586 
z
M 774 3680 
C 774 3514 909 3379 1075 3379 
C 1242 3379 1376 3514 1376 3680 
C 1376 3846 1242 3987 1075 3987 
C 909 3987 774 3846 774 3680 
z
M 1856 3680 
C 1856 3514 1990 3379 2157 3379 
C 2323 3379 2458 3514 2458 3680 
C 2458 3846 2323 3987 2157 3987 
C 1990 3987 1856 3846 1856 3680 
z
" transform="scale(0.015625)"/>
      </defs>
      <use xlink:href="#LibertinusSerif-Regular-36"/>
      <use xlink:href="#LibertinusSerif-Regular-30" transform="translate(46.499985 0)"/>
      <use xlink:href="#LibertinusSerif-Regular-20" transform="translate(92.999969 0)"/>
      <use xlink:href="#LibertinusSerif-Regular-4d" transform="translate(117.999954 0)"/>
      <use xlink:href="#LibertinusSerif-Regular-69" transform="translate(201.899948 0)"/>
      <use xlink:href="#LibertinusSerif-Regular-6e" transform="translate(228.999939 0)"/>
      <use xlink:href="#LibertinusSerif-Regular-20" transform="translate(283.199936 0)"/>
      <use xlink:href="#LibertinusSerif-Regular-41" transform="translate(308.199921 0)"/>
      <use xlink:href="#LibertinusSerif-Regular-75" transform="translate(377.699905 0)"/>
      <use xlink:href="#LibertinusSerif-Regular-66" transform="translate(430.799896 0)"/>
      <use xlink:href="#LibertinusSerif-Regular-6c" transform="translate(461.799881 0)"/>
      <use xlink:href="#LibertinusSerif-Regular-f6" transform="translate(488.199875 0)"/>
      <use xlink:href="#LibertinusSerif-Regular-73" transform="translate(538.599869 0)"/>
      <use xlink:href="#LibertinusSerif-Regular-75" transform="translate(577.599854 0)"/>
      <use xlink:href="#LibertinusSerif-Regular-6e" transform="translate(630.699844 0)"/>
      <use xlink:href="#LibertinusSerif-Regular-67" transform="translate(684.899841 0)"/>
     </g>
    </g>
    <g id="line2d_27">
     <path d="M 99.07 80.9 
L 111.07 80.9 
L 111.07 80.9 
L 123.07 80.9 
L 123.07 80.9 
" style="fill: none; stroke-dasharray: 7.4,3.2; stroke-dashoffset: 0; stroke: #1f77b4; stroke-width: 2"/>
    </g>
    <g id="text_16">
     <!-- 15 Min Auflsung -->
     <g transform="translate(132.67 85.1) scale(0.12 -0.12)">
      <defs>
       <path id="LibertinusSerif-Regular-35" d="M 2042 1210 
C 2042 602 1722 154 1338 154 
C 1094 154 1011 314 915 442 
C 832 550 723 646 589 646 
C 467 646 346 538 346 410 
C 346 147 890 -70 1254 -70 
C 2048 -70 2611 518 2611 1325 
C 2611 1946 2182 2502 1466 2502 
C 1190 2502 954 2445 838 2400 
L 966 3469 
C 1203 3443 1408 3411 1715 3411 
C 1907 3411 2125 3424 2387 3450 
L 2490 3885 
L 2445 3910 
C 2080 3872 1734 3840 1395 3840 
C 1158 3840 928 3853 704 3872 
L 486 2029 
C 826 2157 1069 2182 1299 2182 
C 1715 2182 2042 1907 2042 1210 
z
" transform="scale(0.015625)"/>
      </defs>
      <use xlink:href="#LibertinusSerif-Regular-31"/>
      <use xlink:href="#LibertinusSerif-Regular-35" transform="translate(46.499985 0)"/>
      <use xlink:href="#LibertinusSerif-Regular-20" transform="translate(92.999969 0)"/>
      <use xlink:href="#LibertinusSerif-Regular-4d" transform="translate(117.999954 0)"/>
      <use xlink:href="#LibertinusSerif-Regular-69" transform="translate(201.899948 0)"/>
      <use xlink:href="#LibertinusSerif-Regular-6e" transform="translate(228.999939 0)"/>
      <use xlink:href="#LibertinusSerif-Regular-20" transform="translate(283.199936 0)"/>
      <use xlink:href="#LibertinusSerif-Regular-41" transform="translate(308.199921 0)"/>
      <use xlink:href="#LibertinusSerif-Regular-75" transform="translate(377.699905 0)"/>
      <use xlink:href="#LibertinusSerif-Regular-66" transform="translate(430.799896 0)"/>
      <use xlink:href="#LibertinusSerif-Regular-6c" transform="translate(461.799881 0)"/>
      <use xlink:href="#LibertinusSerif-Regular-f6" transform="translate(488.199875 0)"/>
      <use xlink:href="#LibertinusSerif-Regular-73" transform="translate(538.599869 0)"/>
      <use xlink:href="#LibertinusSerif-Regular-75" transform="translate(577.599854 0)"/>
      <use xlink:href="#LibertinusSerif-Regular-6e" transform="translate(630.699844 0)"/>
      <use xlink:href="#LibertinusSerif-Regular-67" transform="translate(684.899841 0)"/>
     </g>
    </g>
    <g id="line2d_28">
     <path d="M 99.07 98.155625 
L 111.07 98.155625 
L 111.07 98.155625 
L 123.07 98.155625 
L 123.07 98.155625 
" style="fill: none; stroke-dasharray: 9.6,2.4,1.5,2.4; stroke-dashoffset: 0; stroke: #2ca02c; stroke-width: 1.5"/>
    </g>
    <g id="text_17">
     <!-- 5 Min Auflsung -->
     <g transform="translate(132.67 102.355625) scale(0.12 -0.12)">
      <use xlink:href="#LibertinusSerif-Regular-35"/>
      <use xlink:href="#LibertinusSerif-Regular-20" transform="translate(46.499985 0)"/>
      <use xlink:href="#LibertinusSerif-Regular-4d" transform="translate(71.499969 0)"/>
      <use xlink:href="#LibertinusSerif-Regular-69" transform="translate(155.399963 0)"/>
      <use xlink:href="#LibertinusSerif-Regular-6e" transform="translate(182.499954 0)"/>
      <use xlink:href="#LibertinusSerif-Regular-20" transform="translate(236.699951 0)"/>
      <use xlink:href="#LibertinusSerif-Regular-41" transform="translate(261.699936 0)"/>
      <use xlink:href="#LibertinusSerif-Regular-75" transform="translate(331.199921 0)"/>
      <use xlink:href="#LibertinusSerif-Regular-66" transform="translate(384.299911 0)"/>
      <use xlink:href="#LibertinusSerif-Regular-6c" transform="translate(415.299896 0)"/>
      <use xlink:href="#LibertinusSerif-Regular-f6" transform="translate(441.69989 0)"/>
      <use xlink:href="#LibertinusSerif-Regular-73" transform="translate(492.099884 0)"/>
      <use xlink:href="#LibertinusSerif-Regular-75" transform="translate(531.099869 0)"/>
      <use xlink:href="#LibertinusSerif-Regular-6e" transform="translate(584.19986 0)"/>
      <use xlink:href="#LibertinusSerif-Regular-67" transform="translate(638.399857 0)"/>
     </g>
    </g>
   </g>
  </g>
 </g>
 <defs>
  <clipPath id="p4df5fce8d2">
   <rect x="88.27" y="12.96" width="603.97" height="121.48"/>
  </clipPath>
 </defs>
</svg>
