<?xml version="1.0" encoding="utf-8" standalone="no"?>
<!DOCTYPE svg PUBLIC "-//W3C//DTD SVG 1.1//EN"
  "http://www.w3.org/Graphics/SVG/1.1/DTD/svg11.dtd">
<svg xmlns:xlink="http://www.w3.org/1999/xlink" width="576pt" height="179.712pt" viewBox="0 0 576 179.712" xmlns="http://www.w3.org/2000/svg" version="1.1">
 <metadata>
  <rdf:RDF xmlns:dc="http://purl.org/dc/elements/1.1/" xmlns:cc="http://creativecommons.org/ns#" xmlns:rdf="http://www.w3.org/1999/02/22-rdf-syntax-ns#">
   <cc:Work>
    <dc:type rdf:resource="http://purl.org/dc/dcmitype/StillImage"/>
    <dc:date>2026-02-24T16:54:12.944757</dc:date>
    <dc:format>image/svg+xml</dc:format>
    <dc:creator>
     <cc:Agent>
      <dc:title>Matplotlib v3.10.8, https://matplotlib.org/</dc:title>
     </cc:Agent>
    </dc:creator>
   </cc:Work>
  </rdf:RDF>
 </metadata>
 <defs>
  <style type="text/css">*{stroke-linejoin: round; stroke-linecap: butt}</style>
 </defs>
 <g id="figure_1">
  <g id="patch_1">
   <path d="M 0 179.712 
L 576 179.712 
L 576 0 
L 0 0 
z
" style="fill: #ffffff"/>
  </g>
  <g id="axes_1">
   <g id="patch_2">
    <path d="M 155.27 134.224896 
L 563.04 134.224896 
L 563.04 15.994368 
L 155.27 15.994368 
z
" style="fill: #ffffff"/>
   </g>
   <g id="matplotlib.axis_1">
    <g id="xtick_1">
     <g id="line2d_1">
      <path d="M 155.27 134.224896 
L 155.27 15.994368 
" clip-path="url(#p9f57e48ae0)" style="fill: none; stroke: #b0b0b0; stroke-opacity: 0.3; stroke-width: 0.8; stroke-linecap: square"/>
     </g>
     <g id="line2d_2">
      <defs>
       <path id="m646754a0da" d="M 0 0 
L 0 3.5 
" style="stroke: #000000; stroke-width: 0.8"/>
      </defs>
      <g>
       <use xlink:href="#m646754a0da" x="155.27" y="134.224896" style="stroke: #000000; stroke-width: 0.8"/>
      </g>
     </g>
     <g id="text_1">
      <!-- 09:00 -->
      <g transform="translate(142.694375 149.600521) scale(0.12 -0.12)">
       <defs>
        <path id="LibertinusSerif-Regular-30" d="M 1459 -64 
C 1952 -64 2701 435 2701 1939 
C 2701 2573 2547 3117 2266 3488 
C 2099 3712 1830 3904 1485 3904 
C 851 3904 250 3149 250 1882 
C 250 1197 461 557 813 205 
C 992 26 1210 -64 1459 -64 
z
M 1485 3680 
C 1594 3680 1696 3642 1773 3571 
C 1971 3405 2144 2918 2144 2061 
C 2144 1472 2125 1069 2035 742 
C 1894 218 1581 160 1466 160 
C 870 160 806 1254 806 1811 
C 806 3386 1197 3680 1485 3680 
z
" transform="scale(0.015625)"/>
        <path id="LibertinusSerif-Regular-39" d="M 2093 1638 
C 1920 1056 1510 410 659 90 
C 659 13 685 -45 736 -77 
C 1382 115 1779 384 2138 800 
C 2534 1261 2733 1843 2733 2349 
C 2733 3648 1997 3904 1504 3904 
C 666 3904 320 3091 320 2541 
C 320 1990 614 1498 1485 1498 
C 1651 1498 1901 1549 2093 1638 
z
M 2150 1869 
C 1939 1728 1728 1722 1619 1722 
C 992 1722 851 2336 851 2656 
C 851 3360 1120 3680 1434 3680 
C 1837 3680 2202 3462 2202 2368 
C 2202 2227 2189 2054 2150 1869 
z
" transform="scale(0.015625)"/>
        <path id="LibertinusSerif-Regular-3a" d="M 448 384 
C 448 198 602 45 787 45 
C 973 45 1126 198 1126 384 
C 1126 570 973 723 787 723 
C 602 723 448 570 448 384 
z
M 448 2291 
C 448 2106 602 1952 787 1952 
C 973 1952 1126 2106 1126 2291 
C 1126 2477 973 2630 787 2630 
C 602 2630 448 2477 448 2291 
z
" transform="scale(0.015625)"/>
       </defs>
       <use xlink:href="#LibertinusSerif-Regular-30"/>
       <use xlink:href="#LibertinusSerif-Regular-39" transform="translate(46.499985 0)"/>
       <use xlink:href="#LibertinusSerif-Regular-3a" transform="translate(92.999969 0)"/>
       <use xlink:href="#LibertinusSerif-Regular-30" transform="translate(116.59996 0)"/>
       <use xlink:href="#LibertinusSerif-Regular-30" transform="translate(163.099945 0)"/>
      </g>
     </g>
    </g>
    <g id="xtick_2">
     <g id="line2d_3">
      <path d="M 206.454519 134.224896 
L 206.454519 15.994368 
" clip-path="url(#p9f57e48ae0)" style="fill: none; stroke: #b0b0b0; stroke-opacity: 0.3; stroke-width: 0.8; stroke-linecap: square"/>
     </g>
     <g id="line2d_4">
      <g>
       <use xlink:href="#m646754a0da" x="206.454519" y="134.224896" style="stroke: #000000; stroke-width: 0.8"/>
      </g>
     </g>
     <g id="text_2">
      <!-- 09:30 -->
      <g transform="translate(193.878894 149.600521) scale(0.12 -0.12)">
       <defs>
        <path id="LibertinusSerif-Regular-33" d="M 1376 3680 
C 1651 3680 1907 3514 1907 3104 
C 1907 2784 1536 2291 902 2202 
L 934 1997 
C 1043 2010 1158 2010 1242 2010 
C 1606 2010 2080 1907 2080 1184 
C 2080 333 1510 160 1286 160 
C 960 160 902 307 826 422 
C 762 512 678 589 550 589 
C 416 589 282 467 282 365 
C 282 109 819 -64 1203 -64 
C 1965 -64 2643 429 2643 1274 
C 2643 1971 2118 2221 1741 2285 
L 1734 2298 
C 2259 2547 2406 2810 2406 3149 
C 2406 3341 2362 3494 2208 3654 
C 2067 3795 1843 3904 1510 3904 
C 570 3904 301 3290 301 3078 
C 301 2989 365 2861 518 2861 
C 742 2861 768 3072 768 3194 
C 768 3603 1210 3680 1376 3680 
z
" transform="scale(0.015625)"/>
       </defs>
       <use xlink:href="#LibertinusSerif-Regular-30"/>
       <use xlink:href="#LibertinusSerif-Regular-39" transform="translate(46.499985 0)"/>
       <use xlink:href="#LibertinusSerif-Regular-3a" transform="translate(92.999969 0)"/>
       <use xlink:href="#LibertinusSerif-Regular-33" transform="translate(116.59996 0)"/>
       <use xlink:href="#LibertinusSerif-Regular-30" transform="translate(163.099945 0)"/>
      </g>
     </g>
    </g>
    <g id="xtick_3">
     <g id="line2d_5">
      <path d="M 257.639038 134.224896 
L 257.639038 15.994368 
" clip-path="url(#p9f57e48ae0)" style="fill: none; stroke: #b0b0b0; stroke-opacity: 0.3; stroke-width: 0.8; stroke-linecap: square"/>
     </g>
     <g id="line2d_6">
      <g>
       <use xlink:href="#m646754a0da" x="257.639038" y="134.224896" style="stroke: #000000; stroke-width: 0.8"/>
      </g>
     </g>
     <g id="text_3">
      <!-- 10:00 -->
      <g transform="translate(245.063413 149.600521) scale(0.12 -0.12)">
       <defs>
        <path id="LibertinusSerif-Regular-31" d="M 1843 781 
L 1843 3002 
C 1843 3386 1850 3776 1862 3859 
C 1862 3891 1850 3891 1824 3891 
C 1472 3674 1133 3514 570 3251 
C 582 3181 608 3117 666 3078 
C 960 3200 1101 3238 1222 3238 
C 1331 3238 1350 3085 1350 2867 
L 1350 781 
C 1350 250 1178 218 730 198 
C 691 160 691 26 730 -13 
C 1043 -6 1274 0 1619 0 
C 1926 0 2080 -6 2400 -13 
C 2438 26 2438 160 2400 198 
C 1952 218 1843 250 1843 781 
z
" transform="scale(0.015625)"/>
       </defs>
       <use xlink:href="#LibertinusSerif-Regular-31"/>
       <use xlink:href="#LibertinusSerif-Regular-30" transform="translate(46.499985 0)"/>
       <use xlink:href="#LibertinusSerif-Regular-3a" transform="translate(92.999969 0)"/>
       <use xlink:href="#LibertinusSerif-Regular-30" transform="translate(116.59996 0)"/>
       <use xlink:href="#LibertinusSerif-Regular-30" transform="translate(163.099945 0)"/>
      </g>
     </g>
    </g>
    <g id="xtick_4">
     <g id="line2d_7">
      <path d="M 308.823556 134.224896 
L 308.823556 15.994368 
" clip-path="url(#p9f57e48ae0)" style="fill: none; stroke: #b0b0b0; stroke-opacity: 0.3; stroke-width: 0.8; stroke-linecap: square"/>
     </g>
     <g id="line2d_8">
      <g>
       <use xlink:href="#m646754a0da" x="308.823556" y="134.224896" style="stroke: #000000; stroke-width: 0.8"/>
      </g>
     </g>
     <g id="text_4">
      <!-- 10:30 -->
      <g transform="translate(296.247931 149.600521) scale(0.12 -0.12)">
       <use xlink:href="#LibertinusSerif-Regular-31"/>
       <use xlink:href="#LibertinusSerif-Regular-30" transform="translate(46.499985 0)"/>
       <use xlink:href="#LibertinusSerif-Regular-3a" transform="translate(92.999969 0)"/>
       <use xlink:href="#LibertinusSerif-Regular-33" transform="translate(116.59996 0)"/>
       <use xlink:href="#LibertinusSerif-Regular-30" transform="translate(163.099945 0)"/>
      </g>
     </g>
    </g>
    <g id="xtick_5">
     <g id="line2d_9">
      <path d="M 360.008075 134.224896 
L 360.008075 15.994368 
" clip-path="url(#p9f57e48ae0)" style="fill: none; stroke: #b0b0b0; stroke-opacity: 0.3; stroke-width: 0.8; stroke-linecap: square"/>
     </g>
     <g id="line2d_10">
      <g>
       <use xlink:href="#m646754a0da" x="360.008075" y="134.224896" style="stroke: #000000; stroke-width: 0.8"/>
      </g>
     </g>
     <g id="text_5">
      <!-- 11:00 -->
      <g transform="translate(347.43245 149.600521) scale(0.12 -0.12)">
       <use xlink:href="#LibertinusSerif-Regular-31"/>
       <use xlink:href="#LibertinusSerif-Regular-31" transform="translate(46.499985 0)"/>
       <use xlink:href="#LibertinusSerif-Regular-3a" transform="translate(92.999969 0)"/>
       <use xlink:href="#LibertinusSerif-Regular-30" transform="translate(116.59996 0)"/>
       <use xlink:href="#LibertinusSerif-Regular-30" transform="translate(163.099945 0)"/>
      </g>
     </g>
    </g>
    <g id="xtick_6">
     <g id="line2d_11">
      <path d="M 411.192594 134.224896 
L 411.192594 15.994368 
" clip-path="url(#p9f57e48ae0)" style="fill: none; stroke: #b0b0b0; stroke-opacity: 0.3; stroke-width: 0.8; stroke-linecap: square"/>
     </g>
     <g id="line2d_12">
      <g>
       <use xlink:href="#m646754a0da" x="411.192594" y="134.224896" style="stroke: #000000; stroke-width: 0.8"/>
      </g>
     </g>
     <g id="text_6">
      <!-- 11:30 -->
      <g transform="translate(398.616969 149.600521) scale(0.12 -0.12)">
       <use xlink:href="#LibertinusSerif-Regular-31"/>
       <use xlink:href="#LibertinusSerif-Regular-31" transform="translate(46.499985 0)"/>
       <use xlink:href="#LibertinusSerif-Regular-3a" transform="translate(92.999969 0)"/>
       <use xlink:href="#LibertinusSerif-Regular-33" transform="translate(116.59996 0)"/>
       <use xlink:href="#LibertinusSerif-Regular-30" transform="translate(163.099945 0)"/>
      </g>
     </g>
    </g>
    <g id="xtick_7">
     <g id="line2d_13">
      <path d="M 462.377113 134.224896 
L 462.377113 15.994368 
" clip-path="url(#p9f57e48ae0)" style="fill: none; stroke: #b0b0b0; stroke-opacity: 0.3; stroke-width: 0.8; stroke-linecap: square"/>
     </g>
     <g id="line2d_14">
      <g>
       <use xlink:href="#m646754a0da" x="462.377113" y="134.224896" style="stroke: #000000; stroke-width: 0.8"/>
      </g>
     </g>
     <g id="text_7">
      <!-- 12:00 -->
      <g transform="translate(449.801488 149.600521) scale(0.12 -0.12)">
       <defs>
        <path id="LibertinusSerif-Regular-32" d="M 390 2995 
C 390 2861 512 2746 646 2746 
C 755 2746 947 2861 947 3002 
C 947 3053 934 3091 922 3136 
C 909 3181 870 3238 870 3290 
C 870 3450 1037 3680 1504 3680 
C 1734 3680 2061 3520 2061 2906 
C 2061 2496 1914 2163 1536 1779 
L 1062 1312 
C 435 672 333 365 333 -13 
C 333 -13 659 0 864 0 
L 1984 0 
C 2189 0 2483 -13 2483 -13 
C 2566 326 2630 806 2637 998 
C 2598 1030 2515 1043 2451 1030 
C 2342 576 2234 416 2003 416 
L 864 416 
C 864 723 1306 1158 1338 1190 
L 1984 1811 
C 2349 2163 2624 2445 2624 2931 
C 2624 3622 2061 3904 1542 3904 
C 832 3904 390 3379 390 2995 
z
" transform="scale(0.015625)"/>
       </defs>
       <use xlink:href="#LibertinusSerif-Regular-31"/>
       <use xlink:href="#LibertinusSerif-Regular-32" transform="translate(46.499985 0)"/>
       <use xlink:href="#LibertinusSerif-Regular-3a" transform="translate(92.999969 0)"/>
       <use xlink:href="#LibertinusSerif-Regular-30" transform="translate(116.59996 0)"/>
       <use xlink:href="#LibertinusSerif-Regular-30" transform="translate(163.099945 0)"/>
      </g>
     </g>
    </g>
    <g id="xtick_8">
     <g id="line2d_15">
      <path d="M 513.561632 134.224896 
L 513.561632 15.994368 
" clip-path="url(#p9f57e48ae0)" style="fill: none; stroke: #b0b0b0; stroke-opacity: 0.3; stroke-width: 0.8; stroke-linecap: square"/>
     </g>
     <g id="line2d_16">
      <g>
       <use xlink:href="#m646754a0da" x="513.561632" y="134.224896" style="stroke: #000000; stroke-width: 0.8"/>
      </g>
     </g>
     <g id="text_8">
      <!-- 12:30 -->
      <g transform="translate(500.986007 149.600521) scale(0.12 -0.12)">
       <use xlink:href="#LibertinusSerif-Regular-31"/>
       <use xlink:href="#LibertinusSerif-Regular-32" transform="translate(46.499985 0)"/>
       <use xlink:href="#LibertinusSerif-Regular-3a" transform="translate(92.999969 0)"/>
       <use xlink:href="#LibertinusSerif-Regular-33" transform="translate(116.59996 0)"/>
       <use xlink:href="#LibertinusSerif-Regular-30" transform="translate(163.099945 0)"/>
      </g>
     </g>
    </g>
    <g id="text_9">
     <!-- Tageszeit -->
     <g transform="translate(336.060625 164.738021) scale(0.12 -0.12)">
      <defs>
       <path id="LibertinusSerif-Regular-54" d="M 2240 781 
L 2240 3226 
C 2240 3635 2304 3878 2534 3878 
L 2675 3878 
C 3155 3878 3456 3712 3565 3219 
C 3635 3219 3725 3226 3782 3251 
C 3738 3546 3706 3872 3699 4160 
C 3699 4166 3686 4179 3680 4179 
C 3462 4160 2752 4128 2246 4128 
L 1696 4128 
C 1203 4128 448 4160 205 4179 
C 192 4179 179 4166 179 4160 
C 154 3872 90 3539 19 3232 
C 83 3206 160 3200 237 3200 
C 365 3712 659 3878 1082 3878 
L 1395 3878 
C 1632 3878 1696 3635 1696 3245 
L 1696 781 
C 1696 250 1587 218 1075 198 
C 1037 160 1037 26 1075 -13 
C 1389 -6 1715 0 1971 0 
C 2214 0 2541 -6 2861 -13 
C 2899 26 2899 160 2861 198 
C 2349 218 2240 250 2240 781 
z
" transform="scale(0.015625)"/>
       <path id="LibertinusSerif-Regular-61" d="M 1875 307 
C 1914 109 1984 -64 2304 -64 
C 2547 -64 2778 45 2912 173 
C 2899 250 2874 307 2803 346 
C 2758 307 2650 243 2566 243 
C 2381 243 2374 493 2374 787 
L 2374 1728 
C 2374 2637 1875 2810 1408 2810 
C 883 2810 352 2464 352 2099 
C 352 1946 429 1869 576 1869 
C 762 1869 877 2003 877 2086 
C 877 2131 870 2176 858 2202 
C 851 2221 845 2259 845 2330 
C 845 2528 1114 2598 1357 2598 
C 1574 2598 1875 2490 1875 1766 
C 1875 1722 1856 1696 1837 1690 
L 1286 1555 
C 672 1402 230 1062 230 627 
C 230 102 589 -64 1037 -64 
C 1261 -64 1453 -13 1734 205 
L 1862 307 
L 1875 307 
z
M 1875 1491 
L 1875 646 
C 1875 563 1837 518 1786 480 
C 1619 346 1402 198 1222 198 
C 902 198 762 454 762 653 
C 762 941 896 1235 1370 1357 
L 1875 1491 
z
" transform="scale(0.015625)"/>
       <path id="LibertinusSerif-Regular-67" d="M 2842 2477 
C 2963 2477 3078 2592 3078 2720 
C 3078 2854 2957 2957 2784 2957 
C 2618 2957 2310 2848 2144 2630 
C 2067 2682 1856 2810 1478 2810 
C 909 2810 384 2426 384 1837 
C 384 1491 538 1293 717 1120 
C 538 966 435 691 435 474 
C 435 243 563 64 730 -19 
C 384 -224 205 -518 205 -794 
C 205 -1350 730 -1523 1222 -1523 
C 2086 -1523 3021 -1107 3021 -416 
C 3021 -211 2925 -51 2739 102 
C 2490 307 2042 314 1805 314 
C 1690 314 1530 301 1376 282 
C 1280 275 1216 269 1184 269 
C 998 269 774 358 774 634 
C 774 762 813 896 890 1005 
C 1043 915 1222 870 1472 870 
C 2035 870 2554 1222 2554 1850 
C 2554 2150 2464 2323 2278 2515 
C 2323 2579 2451 2669 2534 2669 
C 2579 2669 2624 2650 2662 2592 
C 2688 2541 2771 2477 2842 2477 
z
M 845 -64 
C 915 -83 1018 -96 1101 -96 
C 1299 -96 1478 -77 1568 -77 
C 1888 -77 2157 -83 2342 -186 
C 2592 -326 2669 -416 2669 -582 
C 2669 -1043 1990 -1286 1414 -1286 
C 1184 -1286 646 -1101 646 -666 
C 646 -448 659 -288 845 -64 
z
M 2042 1786 
C 2042 1190 1741 1069 1504 1069 
C 966 1069 909 1523 909 1933 
C 909 2381 1069 2611 1421 2611 
C 1824 2611 2042 2317 2042 1786 
z
" transform="scale(0.015625)"/>
       <path id="LibertinusSerif-Regular-65" d="M 2470 595 
C 2234 352 2048 250 1677 250 
C 1446 250 1178 384 979 710 
C 851 922 774 1216 774 1587 
L 2477 1574 
C 2554 1574 2598 1613 2598 1683 
C 2598 2221 2406 2797 1517 2797 
C 960 2797 237 2266 237 1293 
C 237 934 326 589 538 346 
C 755 90 1056 -64 1517 -64 
C 2003 -64 2349 160 2605 493 
C 2586 557 2547 589 2470 595 
z
M 794 1805 
C 915 2528 1363 2586 1517 2586 
C 1760 2586 2048 2451 2048 1914 
C 2048 1856 2022 1824 1952 1824 
L 794 1805 
z
" transform="scale(0.015625)"/>
       <path id="LibertinusSerif-Regular-73" d="M 307 883 
C 333 570 352 269 352 0 
C 416 13 480 19 512 19 
C 557 19 595 19 640 6 
C 813 -38 986 -64 1222 -64 
C 1581 -64 2240 109 2240 742 
C 2240 1178 1926 1434 1491 1594 
C 1107 1741 851 1837 851 2189 
C 851 2451 1082 2598 1299 2598 
C 1440 2598 1811 2547 1894 2003 
C 1933 1965 2061 1971 2099 2010 
C 2118 2240 2131 2477 2138 2688 
C 1939 2720 1632 2810 1299 2810 
C 826 2810 397 2502 397 2093 
C 397 1626 608 1427 1101 1222 
C 1632 1005 1754 870 1754 595 
C 1754 282 1446 147 1210 147 
C 960 147 819 230 755 301 
C 614 448 544 730 506 890 
C 467 928 346 922 307 883 
z
" transform="scale(0.015625)"/>
       <path id="LibertinusSerif-Regular-7a" d="M 454 2810 
C 442 2810 416 2784 416 2771 
C 410 2483 378 2259 320 1946 
C 378 1920 454 1907 531 1926 
C 659 2394 858 2502 1050 2509 
L 1869 2528 
C 1434 1798 794 877 294 205 
C 237 128 237 109 237 77 
C 237 32 288 0 384 0 
L 2381 -19 
C 2458 198 2541 531 2586 851 
C 2547 877 2470 890 2394 890 
L 2304 704 
C 2144 365 2010 224 1677 218 
L 826 218 
C 1299 819 1965 1824 2362 2477 
C 2458 2637 2477 2688 2477 2714 
C 2477 2739 2445 2758 2400 2758 
C 2368 2758 2189 2746 2003 2746 
L 832 2746 
C 627 2746 550 2778 454 2810 
z
" transform="scale(0.015625)"/>
       <path id="LibertinusSerif-Regular-69" d="M 1158 781 
L 1158 2054 
C 1158 2374 1184 2784 1184 2784 
C 1184 2810 1152 2829 1101 2829 
C 922 2758 666 2701 224 2643 
C 211 2605 224 2502 237 2464 
C 589 2432 653 2394 653 2029 
L 653 781 
C 653 250 582 230 192 198 
C 154 160 154 26 192 -13 
C 403 -6 653 0 909 0 
C 1165 0 1408 -6 1619 -13 
C 1658 26 1658 160 1619 198 
C 1229 224 1158 250 1158 781 
z
M 576 3834 
C 576 3667 730 3501 883 3501 
C 1062 3501 1216 3674 1216 3808 
C 1216 3962 1082 4141 909 4141 
C 755 4141 576 3987 576 3834 
z
" transform="scale(0.015625)"/>
       <path id="LibertinusSerif-Regular-74" d="M 275 2746 
C 186 2746 160 2669 160 2618 
L 160 2534 
C 160 2502 166 2496 192 2496 
L 570 2496 
L 570 570 
C 570 115 768 -64 1062 -64 
C 1357 -64 1677 77 1926 358 
C 1914 422 1875 461 1811 467 
C 1645 339 1453 288 1286 288 
C 1114 288 1075 480 1075 877 
L 1075 2496 
L 1741 2496 
C 1805 2496 1894 2522 1894 2579 
L 1894 2707 
C 1894 2733 1875 2746 1843 2746 
L 1075 2746 
L 1075 2995 
C 1075 3411 1101 3667 1101 3667 
C 1101 3706 1082 3725 1050 3725 
C 1024 3725 966 3699 909 3667 
C 838 3629 774 3597 691 3578 
C 614 3552 550 3533 550 3488 
C 550 3411 570 3456 570 2746 
L 275 2746 
z
" transform="scale(0.015625)"/>
      </defs>
      <use xlink:href="#LibertinusSerif-Regular-54"/>
      <use xlink:href="#LibertinusSerif-Regular-61" transform="translate(59.699997 0)"/>
      <use xlink:href="#LibertinusSerif-Regular-67" transform="translate(105.399994 0)"/>
      <use xlink:href="#LibertinusSerif-Regular-65" transform="translate(155.399979 0)"/>
      <use xlink:href="#LibertinusSerif-Regular-73" transform="translate(200.099976 0)"/>
      <use xlink:href="#LibertinusSerif-Regular-7a" transform="translate(239.09996 0)"/>
      <use xlink:href="#LibertinusSerif-Regular-65" transform="translate(281.499954 0)"/>
      <use xlink:href="#LibertinusSerif-Regular-69" transform="translate(326.199951 0)"/>
      <use xlink:href="#LibertinusSerif-Regular-74" transform="translate(353.299942 0)"/>
     </g>
    </g>
   </g>
   <g id="matplotlib.axis_2">
    <g id="ytick_1">
     <g id="line2d_17">
      <path d="M 155.27 21.368483 
L 563.04 21.368483 
" clip-path="url(#p9f57e48ae0)" style="fill: none; stroke-dasharray: 2.96,1.28; stroke-dashoffset: 0; stroke: #b0b0b0; stroke-opacity: 0.3; stroke-width: 0.8"/>
     </g>
     <g id="line2d_18">
      <defs>
       <path id="m41e24b28df" d="M 0 0 
L -3.5 0 
" style="stroke: #000000; stroke-width: 0.8"/>
      </defs>
      <g>
       <use xlink:href="#m41e24b28df" x="155.27" y="21.368483" style="stroke: #000000; stroke-width: 0.8"/>
      </g>
     </g>
     <g id="text_10">
      <!-- 0 (0%) -->
      <g transform="translate(119.314375 19.964108) scale(0.12 -0.12)">
       <defs>
        <path id="LibertinusSerif-Regular-20" transform="scale(0.015625)"/>
        <path id="LibertinusSerif-Regular-28" d="M 282 1613 
C 282 1325 307 -154 1638 -1306 
C 1702 -1293 1754 -1248 1773 -1197 
C 1562 -954 813 -70 813 1613 
C 813 3296 1568 4179 1773 4410 
C 1754 4474 1709 4518 1638 4525 
C 877 3872 282 2803 282 1613 
z
" transform="scale(0.015625)"/>
        <path id="LibertinusSerif-Regular-25" d="M 2330 3334 
C 2214 3334 1990 3334 1645 3494 
C 1581 3571 1395 3654 1216 3654 
C 755 3654 365 3200 365 2637 
C 365 2310 557 1939 954 1939 
C 1491 1939 1773 2662 1773 3072 
C 1773 3130 1766 3187 1754 3232 
C 1875 3162 2118 3098 2266 3098 
C 2458 3098 2707 3123 2950 3219 
L 653 19 
L 870 -77 
L 3494 3578 
L 3290 3680 
C 3091 3411 2598 3334 2330 3334 
z
M 2419 627 
C 2419 288 2624 -77 3014 -77 
C 3546 -77 3827 627 3827 1056 
C 3827 1523 3533 1638 3277 1638 
C 2803 1638 2419 1152 2419 627 
z
M 710 2547 
C 710 2918 973 3456 1286 3456 
C 1402 3456 1562 3386 1562 3066 
C 1562 2694 1344 2138 992 2138 
C 877 2138 710 2214 710 2547 
z
M 2771 531 
C 2771 902 3034 1440 3347 1440 
C 3437 1440 3616 1382 3616 1050 
C 3616 691 3405 122 3053 122 
C 2931 122 2771 198 2771 531 
z
" transform="scale(0.015625)"/>
        <path id="LibertinusSerif-Regular-29" d="M 1626 1613 
C 1626 1901 1600 3379 269 4531 
C 205 4518 154 4474 134 4422 
C 346 4179 1094 3296 1094 1613 
C 1094 -70 339 -954 134 -1184 
C 154 -1248 198 -1293 269 -1299 
C 1030 -646 1626 422 1626 1613 
z
" transform="scale(0.015625)"/>
       </defs>
       <use xlink:href="#LibertinusSerif-Regular-30"/>
       <use xlink:href="#LibertinusSerif-Regular-20" transform="translate(46.499985 0)"/>
       <use xlink:href="#LibertinusSerif-Regular-28" transform="translate(71.499969 0)"/>
       <use xlink:href="#LibertinusSerif-Regular-30" transform="translate(101.299957 0)"/>
       <use xlink:href="#LibertinusSerif-Regular-25" transform="translate(147.799942 0)"/>
       <use xlink:href="#LibertinusSerif-Regular-29" transform="translate(211.499939 0)"/>
      </g>
      <!-- Behang oben / Sonne -->
      <g transform="translate(44.455 32.823608) scale(0.12 -0.12)">
       <defs>
        <path id="LibertinusSerif-Regular-42" d="M 947 4128 
C 717 4128 371 4134 122 4141 
C 83 4102 83 3968 122 3930 
C 570 3910 678 3878 678 3347 
L 678 781 
C 678 250 570 218 122 198 
C 83 160 83 26 122 -13 
C 371 -6 717 0 954 0 
C 1184 0 1350 -13 1888 -13 
C 3162 -13 3501 627 3501 1178 
C 3501 1792 3072 2144 2515 2304 
L 2515 2317 
C 2835 2477 3123 2810 3123 3155 
C 3123 3584 2938 4141 1747 4141 
C 1523 4141 1178 4128 947 4128 
z
M 1222 2125 
L 1664 2125 
C 2541 2125 2906 1632 2906 1056 
C 2906 589 2726 198 1754 198 
C 1306 198 1222 365 1222 755 
L 1222 2125 
z
M 1222 3520 
C 1222 3859 1222 3923 1779 3923 
C 2138 3923 2605 3731 2605 3078 
C 2605 2534 2227 2342 1696 2342 
L 1222 2342 
L 1222 3520 
z
" transform="scale(0.015625)"/>
        <path id="LibertinusSerif-Regular-68" d="M 1069 1830 
C 1069 1965 1126 2042 1178 2099 
C 1421 2336 1747 2477 1997 2477 
C 2125 2477 2259 2394 2336 2246 
C 2400 2118 2413 1946 2413 1754 
L 2413 781 
C 2413 256 2349 230 2016 198 
C 1984 160 1984 26 2016 -13 
C 2195 -6 2413 0 2669 0 
C 2925 0 3136 -6 3347 -13 
C 3379 26 3379 160 3347 198 
C 2989 230 2918 256 2918 781 
L 2918 1734 
C 2918 2086 2893 2400 2746 2592 
C 2637 2733 2438 2810 2214 2810 
C 1901 2810 1517 2726 1126 2291 
C 1126 2285 1120 2285 1114 2278 
C 1094 2253 1062 2214 1062 2291 
L 1069 3731 
C 1069 4147 1094 4403 1094 4403 
C 1094 4448 1069 4467 1011 4467 
C 851 4403 371 4314 115 4294 
C 102 4243 115 4141 154 4102 
C 173 4102 192 4102 211 4102 
C 493 4083 563 4083 563 3578 
L 563 781 
C 563 250 486 224 115 198 
C 77 160 77 26 115 -13 
C 326 -6 563 0 819 0 
C 1062 0 1274 -6 1453 -13 
C 1491 26 1491 160 1453 198 
C 1126 224 1069 250 1069 781 
L 1069 1830 
z
" transform="scale(0.015625)"/>
        <path id="LibertinusSerif-Regular-6e" d="M 1178 2291 
C 1139 2246 1101 2234 1101 2291 
C 1094 2464 1082 2714 1050 2778 
C 1037 2810 1024 2829 973 2829 
C 794 2758 627 2701 186 2643 
C 173 2605 186 2502 198 2464 
C 544 2432 614 2400 614 2029 
L 614 781 
C 614 256 550 230 166 198 
C 128 160 128 26 166 -13 
C 358 -6 614 0 870 0 
C 1126 0 1318 -6 1510 -13 
C 1549 26 1549 160 1510 198 
C 1184 230 1120 256 1120 781 
L 1120 1830 
C 1120 1965 1178 2042 1229 2099 
C 1472 2336 1760 2477 2010 2477 
C 2138 2477 2272 2394 2349 2246 
C 2413 2118 2426 1946 2426 1754 
L 2426 781 
C 2426 256 2362 230 2029 198 
C 1997 160 1997 26 2029 -13 
C 2221 -6 2426 0 2682 0 
C 2938 0 3168 -6 3360 -13 
C 3392 26 3392 160 3360 198 
C 3002 230 2931 256 2931 781 
L 2931 1734 
C 2931 2086 2906 2394 2758 2592 
C 2650 2733 2451 2810 2227 2810 
C 1914 2810 1555 2726 1178 2291 
z
" transform="scale(0.015625)"/>
        <path id="LibertinusSerif-Regular-6f" d="M 262 1312 
C 262 659 698 -64 1606 -64 
C 2016 -64 2330 83 2547 294 
C 2835 576 2963 979 2963 1370 
C 2963 2035 2598 2810 1619 2810 
C 1197 2810 851 2637 614 2362 
C 384 2086 262 1715 262 1312 
z
M 1523 2586 
C 2074 2586 2413 2086 2413 1165 
C 2413 358 1997 160 1696 160 
C 1030 160 813 966 813 1459 
C 813 2016 947 2586 1523 2586 
z
" transform="scale(0.015625)"/>
        <path id="LibertinusSerif-Regular-62" d="M 1069 2522 
C 1030 2483 1005 2496 1005 2554 
L 1005 3731 
C 1005 4147 1030 4403 1030 4403 
C 1030 4448 1005 4467 947 4467 
C 787 4403 307 4314 51 4294 
C 38 4243 51 4141 90 4102 
C 109 4102 128 4102 147 4102 
C 429 4083 499 4083 499 3578 
L 499 454 
C 499 205 493 90 474 0 
C 506 -51 538 -77 614 -77 
C 653 -38 717 19 768 77 
C 832 154 870 154 941 96 
C 1088 -26 1280 -64 1504 -64 
C 2157 -64 2918 531 2918 1549 
C 2918 2330 2342 2810 1786 2810 
C 1510 2810 1267 2701 1069 2522 
z
M 1114 2323 
C 1280 2470 1472 2528 1658 2528 
C 2048 2528 2368 2054 2368 1434 
C 2368 704 2074 154 1466 154 
C 1267 154 1133 294 1005 454 
L 1005 2054 
C 1005 2189 1030 2253 1114 2323 
z
" transform="scale(0.015625)"/>
        <path id="LibertinusSerif-Regular-2f" d="M 1875 4134 
L 1613 4134 
L 96 -378 
L 358 -378 
L 1875 4134 
z
" transform="scale(0.015625)"/>
        <path id="LibertinusSerif-Regular-53" d="M 2528 4038 
C 2157 4090 2170 4211 1542 4211 
C 896 4211 326 3782 326 3104 
C 326 2432 883 2125 1446 1907 
C 1830 1760 2304 1581 2304 954 
C 2304 435 2016 166 1504 166 
C 909 166 525 442 384 1075 
C 301 1101 237 1088 173 1056 
C 198 563 224 397 301 83 
C 704 83 883 -64 1453 -64 
C 1741 -64 2016 6 2240 147 
C 2611 378 2842 768 2842 1178 
C 2842 1856 2330 2157 1805 2355 
C 1421 2496 781 2739 781 3277 
C 781 3635 1107 3994 1485 3994 
C 2106 3994 2304 3597 2432 3174 
C 2502 3162 2586 3168 2643 3213 
C 2618 3520 2592 3699 2528 4038 
z
" transform="scale(0.015625)"/>
       </defs>
       <use xlink:href="#LibertinusSerif-Regular-42"/>
       <use xlink:href="#LibertinusSerif-Regular-65" transform="translate(58.799988 0)"/>
       <use xlink:href="#LibertinusSerif-Regular-68" transform="translate(103.499985 0)"/>
       <use xlink:href="#LibertinusSerif-Regular-61" transform="translate(157.299973 0)"/>
       <use xlink:href="#LibertinusSerif-Regular-6e" transform="translate(202.999969 0)"/>
       <use xlink:href="#LibertinusSerif-Regular-67" transform="translate(257.199966 0)"/>
       <use xlink:href="#LibertinusSerif-Regular-20" transform="translate(307.199951 0)"/>
       <use xlink:href="#LibertinusSerif-Regular-6f" transform="translate(332.199936 0)"/>
       <use xlink:href="#LibertinusSerif-Regular-62" transform="translate(382.59993 0)"/>
       <use xlink:href="#LibertinusSerif-Regular-65" transform="translate(431.899918 0)"/>
       <use xlink:href="#LibertinusSerif-Regular-6e" transform="translate(476.599915 0)"/>
       <use xlink:href="#LibertinusSerif-Regular-20" transform="translate(530.799911 0)"/>
       <use xlink:href="#LibertinusSerif-Regular-2f" transform="translate(555.799896 0)"/>
       <use xlink:href="#LibertinusSerif-Regular-20" transform="translate(588.099884 0)"/>
       <use xlink:href="#LibertinusSerif-Regular-53" transform="translate(613.099869 0)"/>
       <use xlink:href="#LibertinusSerif-Regular-6f" transform="translate(661.599854 0)"/>
       <use xlink:href="#LibertinusSerif-Regular-6e" transform="translate(711.999847 0)"/>
       <use xlink:href="#LibertinusSerif-Regular-6e" transform="translate(766.199844 0)"/>
       <use xlink:href="#LibertinusSerif-Regular-65" transform="translate(820.399841 0)"/>
      </g>
     </g>
    </g>
    <g id="ytick_2">
     <g id="line2d_19">
      <path d="M 155.27 128.850781 
L 563.04 128.850781 
" clip-path="url(#p9f57e48ae0)" style="fill: none; stroke-dasharray: 2.96,1.28; stroke-dashoffset: 0; stroke: #b0b0b0; stroke-opacity: 0.3; stroke-width: 0.8"/>
     </g>
     <g id="line2d_20">
      <g>
       <use xlink:href="#m41e24b28df" x="155.27" y="128.850781" style="stroke: #000000; stroke-width: 0.8"/>
      </g>
     </g>
     <g id="text_11">
      <!-- 1 (100%) -->
      <g transform="translate(108.154375 127.446406) scale(0.12 -0.12)">
       <use xlink:href="#LibertinusSerif-Regular-31"/>
       <use xlink:href="#LibertinusSerif-Regular-20" transform="translate(46.499985 0)"/>
       <use xlink:href="#LibertinusSerif-Regular-28" transform="translate(71.499969 0)"/>
       <use xlink:href="#LibertinusSerif-Regular-31" transform="translate(101.299957 0)"/>
       <use xlink:href="#LibertinusSerif-Regular-30" transform="translate(147.799942 0)"/>
       <use xlink:href="#LibertinusSerif-Regular-30" transform="translate(194.299927 0)"/>
       <use xlink:href="#LibertinusSerif-Regular-25" transform="translate(240.799911 0)"/>
       <use xlink:href="#LibertinusSerif-Regular-29" transform="translate(304.499908 0)"/>
      </g>
      <!-- Behang unten / Schatten -->
      <g transform="translate(27.6475 140.305906) scale(0.12 -0.12)">
       <defs>
        <path id="LibertinusSerif-Regular-75" d="M 1389 -64 
C 1638 -64 1939 64 2253 320 
C 2285 346 2342 358 2349 314 
C 2368 154 2419 -64 2419 -64 
C 2470 -83 2502 -77 2541 -64 
C 2682 51 2906 147 3296 192 
C 3334 230 3334 326 3296 365 
C 2886 397 2829 518 2829 832 
L 2829 2061 
C 2829 2253 2854 2720 2854 2720 
C 2854 2739 2835 2758 2803 2758 
C 2771 2752 2675 2746 2579 2746 
C 2374 2746 2144 2752 1926 2758 
C 1888 2720 1888 2586 1926 2547 
C 2240 2528 2323 2451 2323 2029 
L 2323 794 
C 2323 672 2310 621 2221 544 
C 1984 339 1741 237 1581 237 
C 1389 237 1069 326 1069 896 
L 1069 2061 
C 1069 2253 1094 2720 1094 2720 
C 1094 2739 1075 2758 1043 2758 
C 1011 2752 915 2746 819 2746 
C 614 2746 384 2752 166 2758 
C 128 2720 128 2586 166 2547 
C 474 2522 563 2451 563 2035 
L 563 806 
C 563 365 755 -64 1389 -64 
z
" transform="scale(0.015625)"/>
        <path id="LibertinusSerif-Regular-63" d="M 2547 582 
C 2522 640 2470 666 2413 672 
C 2195 390 1920 250 1645 250 
C 1178 250 787 723 787 1472 
C 787 2176 1094 2598 1517 2598 
C 1894 2598 1946 2374 1971 2150 
C 1990 1978 2080 1920 2214 1920 
C 2349 1920 2528 2003 2528 2202 
C 2528 2554 2163 2810 1549 2810 
C 915 2810 237 2240 237 1331 
C 237 506 698 -64 1504 -64 
C 1888 -64 2227 58 2547 582 
z
" transform="scale(0.015625)"/>
       </defs>
       <use xlink:href="#LibertinusSerif-Regular-42"/>
       <use xlink:href="#LibertinusSerif-Regular-65" transform="translate(58.799988 0)"/>
       <use xlink:href="#LibertinusSerif-Regular-68" transform="translate(103.499985 0)"/>
       <use xlink:href="#LibertinusSerif-Regular-61" transform="translate(157.299973 0)"/>
       <use xlink:href="#LibertinusSerif-Regular-6e" transform="translate(202.999969 0)"/>
       <use xlink:href="#LibertinusSerif-Regular-67" transform="translate(257.199966 0)"/>
       <use xlink:href="#LibertinusSerif-Regular-20" transform="translate(307.199951 0)"/>
       <use xlink:href="#LibertinusSerif-Regular-75" transform="translate(332.199936 0)"/>
       <use xlink:href="#LibertinusSerif-Regular-6e" transform="translate(385.299927 0)"/>
       <use xlink:href="#LibertinusSerif-Regular-74" transform="translate(439.499924 0)"/>
       <use xlink:href="#LibertinusSerif-Regular-65" transform="translate(471.099915 0)"/>
       <use xlink:href="#LibertinusSerif-Regular-6e" transform="translate(515.799911 0)"/>
       <use xlink:href="#LibertinusSerif-Regular-20" transform="translate(569.999908 0)"/>
       <use xlink:href="#LibertinusSerif-Regular-2f" transform="translate(594.999893 0)"/>
       <use xlink:href="#LibertinusSerif-Regular-20" transform="translate(627.299881 0)"/>
       <use xlink:href="#LibertinusSerif-Regular-53" transform="translate(652.299866 0)"/>
       <use xlink:href="#LibertinusSerif-Regular-63" transform="translate(700.79985 0)"/>
       <use xlink:href="#LibertinusSerif-Regular-68" transform="translate(743.599838 0)"/>
       <use xlink:href="#LibertinusSerif-Regular-61" transform="translate(797.399826 0)"/>
       <use xlink:href="#LibertinusSerif-Regular-74" transform="translate(843.099823 0)"/>
       <use xlink:href="#LibertinusSerif-Regular-74" transform="translate(874.699814 0)"/>
       <use xlink:href="#LibertinusSerif-Regular-65" transform="translate(906.299805 0)"/>
       <use xlink:href="#LibertinusSerif-Regular-6e" transform="translate(950.999802 0)"/>
      </g>
     </g>
    </g>
    <g id="text_12">
     <!-- Behangposition -->
     <g transform="translate(20.791875 113.444007) rotate(-90) scale(0.12 -0.12)">
      <defs>
       <path id="LibertinusSerif-Regular-70" d="M 998 2355 
C 992 2547 979 2714 947 2778 
C 934 2810 922 2829 870 2829 
C 691 2758 525 2701 83 2643 
C 70 2605 83 2502 96 2464 
C 442 2432 512 2400 512 2029 
L 512 -704 
C 512 -1235 442 -1267 51 -1286 
C 13 -1325 13 -1459 51 -1498 
C 275 -1491 512 -1485 768 -1485 
C 1024 -1485 1331 -1491 1542 -1498 
C 1581 -1459 1581 -1325 1542 -1286 
C 1088 -1261 1018 -1235 1018 -704 
L 1018 -13 
C 1018 70 1043 64 1107 38 
C 1267 -26 1459 -64 1664 -64 
C 2022 -64 2342 45 2605 294 
C 2906 589 3078 986 3078 1504 
C 3078 2182 2598 2810 1946 2810 
C 1651 2810 1325 2618 1069 2330 
C 1030 2291 1005 2291 998 2355 
z
M 1120 2118 
C 1286 2323 1581 2515 1766 2515 
C 2176 2515 2528 2054 2528 1331 
C 2528 806 2342 154 1626 154 
C 1510 154 1286 186 1171 288 
C 1043 403 1018 442 1018 672 
L 1018 1837 
C 1018 1971 1043 2029 1120 2118 
z
" transform="scale(0.015625)"/>
      </defs>
      <use xlink:href="#LibertinusSerif-Regular-42"/>
      <use xlink:href="#LibertinusSerif-Regular-65" transform="translate(58.799988 0)"/>
      <use xlink:href="#LibertinusSerif-Regular-68" transform="translate(103.499985 0)"/>
      <use xlink:href="#LibertinusSerif-Regular-61" transform="translate(157.299973 0)"/>
      <use xlink:href="#LibertinusSerif-Regular-6e" transform="translate(202.999969 0)"/>
      <use xlink:href="#LibertinusSerif-Regular-67" transform="translate(257.199966 0)"/>
      <use xlink:href="#LibertinusSerif-Regular-70" transform="translate(307.199951 0)"/>
      <use xlink:href="#LibertinusSerif-Regular-6f" transform="translate(359.099945 0)"/>
      <use xlink:href="#LibertinusSerif-Regular-73" transform="translate(409.499939 0)"/>
      <use xlink:href="#LibertinusSerif-Regular-69" transform="translate(448.499924 0)"/>
      <use xlink:href="#LibertinusSerif-Regular-74" transform="translate(475.599915 0)"/>
      <use xlink:href="#LibertinusSerif-Regular-69" transform="translate(507.199905 0)"/>
      <use xlink:href="#LibertinusSerif-Regular-6f" transform="translate(534.299896 0)"/>
      <use xlink:href="#LibertinusSerif-Regular-6e" transform="translate(584.69989 0)"/>
     </g>
    </g>
   </g>
   <g id="line2d_21">
    <path d="M 155.27 128.850781 
L 257.639038 128.850781 
L 257.639038 128.850781 
L 360.008075 128.850781 
L 360.008075 128.850781 
L 462.377113 128.850781 
L 462.377113 128.850781 
L 563.04 128.850781 
L 563.04 128.850781 
" clip-path="url(#p9f57e48ae0)" style="fill: none; stroke-dasharray: 2.5,4.125; stroke-dashoffset: 0; stroke: #d62728; stroke-width: 2.5"/>
   </g>
   <g id="line2d_22">
    <path d="M 155.27 128.850781 
L 180.862259 128.850781 
L 180.862259 128.850781 
L 206.454519 128.850781 
L 206.454519 128.850781 
L 232.046778 128.850781 
L 232.046778 128.850781 
L 257.639038 128.850781 
L 257.639038 128.850781 
L 283.231297 128.850781 
L 283.231297 128.850781 
L 308.823556 128.850781 
L 308.823556 21.368483 
L 334.415816 21.368483 
L 334.415816 21.368483 
L 360.008075 21.368483 
L 360.008075 128.850781 
L 385.600335 128.850781 
L 385.600335 21.368483 
L 411.192594 21.368483 
L 411.192594 21.368483 
L 436.784854 21.368483 
L 436.784854 128.850781 
L 462.377113 128.850781 
L 462.377113 128.850781 
L 487.969372 128.850781 
L 487.969372 128.850781 
L 513.561632 128.850781 
L 513.561632 21.368483 
L 539.153891 21.368483 
L 539.153891 21.368483 
L 563.04 21.368483 
L 563.04 21.368483 
" clip-path="url(#p9f57e48ae0)" style="fill: none; stroke-dasharray: 7.4,3.2; stroke-dashoffset: 0; stroke: #1f77b4; stroke-width: 2"/>
   </g>
   <g id="line2d_23">
    <path d="M 155.27 128.850781 
L 296.880502 128.850781 
L 296.880502 21.368483 
L 368.538828 21.368483 
L 368.538828 128.850781 
L 383.894184 128.850781 
L 383.894184 21.368483 
L 447.021757 21.368483 
L 447.021757 128.850781 
L 508.44318 128.850781 
L 508.44318 21.368483 
L 563.04 21.368483 
L 563.04 21.368483 
" clip-path="url(#p9f57e48ae0)" style="fill: none; stroke: #000000; stroke-width: 1.5; stroke-linecap: square"/>
   </g>
   <g id="patch_3">
    <path d="M 155.27 134.224896 
L 155.27 15.994368 
" style="fill: none; stroke: #000000; stroke-width: 0.8; stroke-linejoin: miter; stroke-linecap: square"/>
   </g>
   <g id="patch_4">
    <path d="M 563.04 134.224896 
L 563.04 15.994368 
" style="fill: none; stroke: #000000; stroke-width: 0.8; stroke-linejoin: miter; stroke-linecap: square"/>
   </g>
   <g id="patch_5">
    <path d="M 155.27 134.224896 
L 563.04 134.224896 
" style="fill: none; stroke: #000000; stroke-width: 0.8; stroke-linejoin: miter; stroke-linecap: square"/>
   </g>
   <g id="patch_6">
    <path d="M 155.27 15.994368 
L 563.04 15.994368 
" style="fill: none; stroke: #000000; stroke-width: 0.8; stroke-linejoin: miter; stroke-linecap: square"/>
   </g>
   <g id="legend_1">
    <g id="patch_7">
     <path d="M 163.67 77.314368 
L 290.25875 77.314368 
Q 292.65875 77.314368 292.65875 74.914368 
L 292.65875 24.394368 
Q 292.65875 21.994368 290.25875 21.994368 
L 163.67 21.994368 
Q 161.27 21.994368 161.27 24.394368 
L 161.27 74.914368 
Q 161.27 77.314368 163.67 77.314368 
z
" style="fill: #ffffff; opacity: 0.8; stroke: #cccccc; stroke-linejoin: miter"/>
    </g>
    <g id="line2d_24">
     <path d="M 166.07 30.994368 
L 178.07 30.994368 
L 178.07 30.994368 
L 190.07 30.994368 
L 190.07 30.994368 
" style="fill: none; stroke-dasharray: 2.5,4.125; stroke-dashoffset: 0; stroke: #d62728; stroke-width: 2.5"/>
    </g>
    <g id="text_13">
     <!-- 60 Min Auflösung -->
     <g transform="translate(199.67 35.194368) scale(0.12 -0.12)">
      <defs>
       <path id="LibertinusSerif-Regular-36" d="M 922 2195 
C 1094 2778 1504 3424 2355 3744 
C 2355 3821 2330 3878 2278 3910 
C 1632 3718 1235 3450 877 3034 
C 480 2573 282 1990 282 1485 
C 282 186 1018 -70 1510 -70 
C 2349 -70 2694 742 2694 1293 
C 2694 1843 2400 2336 1530 2336 
C 1363 2336 1114 2285 922 2195 
z
M 864 1965 
C 1075 2106 1286 2112 1395 2112 
C 2022 2112 2163 1498 2163 1178 
C 2163 474 1894 154 1581 154 
C 1178 154 813 371 813 1466 
C 813 1613 826 1779 864 1965 
z
" transform="scale(0.015625)"/>
       <path id="LibertinusSerif-Regular-4d" d="M 4243 742 
C 4275 224 4250 218 3834 198 
C 3795 160 3795 26 3834 -13 
C 4070 -6 4326 0 4518 0 
C 4710 0 5005 -6 5216 -13 
C 5254 26 5254 160 5216 198 
C 4781 218 4762 243 4723 774 
L 4531 3469 
C 4506 3814 4538 3904 4973 3930 
C 5011 3968 5011 4102 4973 4141 
L 4134 4128 
L 2778 883 
C 2752 819 2733 794 2720 794 
C 2707 794 2688 826 2669 877 
L 1357 4128 
L 429 4141 
C 390 4102 390 3968 429 3930 
C 870 3904 909 3891 864 3411 
L 608 774 
C 570 390 493 230 128 198 
C 90 160 90 26 128 -13 
C 320 -6 525 0 678 0 
C 832 0 1088 -6 1280 -13 
C 1318 26 1318 160 1280 198 
C 858 230 826 429 858 787 
L 1101 3354 
L 1114 3354 
L 2438 32 
C 2458 -13 2496 -64 2534 -64 
C 2573 -64 2598 -19 2624 32 
L 4064 3418 
L 4077 3418 
L 4243 742 
z
" transform="scale(0.015625)"/>
       <path id="LibertinusSerif-Regular-41" d="M 992 506 
L 1344 1434 
C 1376 1517 1414 1542 1568 1542 
L 2918 1542 
L 3290 461 
C 3366 243 3123 218 2816 198 
C 2778 160 2778 26 2816 -13 
C 3053 -6 3405 0 3654 0 
C 3917 0 4160 -6 4384 -13 
C 4422 26 4422 160 4384 198 
C 4134 224 3917 243 3808 550 
L 2490 4211 
C 2394 4154 2221 4083 2138 4083 
L 685 653 
C 518 256 326 218 45 198 
C 6 160 6 26 45 -13 
C 211 -6 422 0 614 0 
C 877 0 1197 -6 1434 -13 
C 1472 26 1472 160 1434 198 
C 1190 218 890 243 992 506 
z
M 1683 1811 
C 1542 1811 1498 1830 1523 1894 
L 2176 3552 
L 2214 3552 
L 2816 1811 
L 1683 1811 
z
" transform="scale(0.015625)"/>
       <path id="LibertinusSerif-Regular-66" d="M 1120 781 
L 1120 2496 
L 1715 2496 
C 1773 2496 1862 2522 1862 2579 
L 1862 2707 
C 1862 2733 1843 2746 1811 2746 
L 1120 2746 
L 1120 3110 
C 1120 4096 1414 4250 1626 4250 
C 1818 4250 1920 4173 2010 3949 
C 2061 3834 2131 3744 2266 3744 
C 2374 3744 2528 3878 2528 4006 
C 2528 4115 2458 4230 2323 4333 
C 2157 4448 1990 4467 1747 4467 
C 1210 4467 614 4000 614 3002 
L 614 2746 
L 288 2746 
C 173 2746 141 2669 141 2618 
L 141 2534 
C 141 2502 147 2496 173 2496 
L 614 2496 
L 614 781 
C 614 250 512 224 166 198 
C 128 160 128 26 166 -13 
C 390 -6 614 0 870 0 
C 1126 0 1434 -6 1658 -13 
C 1696 26 1696 160 1658 198 
C 1158 224 1120 250 1120 781 
z
" transform="scale(0.015625)"/>
       <path id="LibertinusSerif-Regular-6c" d="M 608 781 
C 608 250 538 218 147 198 
C 109 160 109 26 147 -13 
C 371 -6 608 0 864 0 
C 1120 0 1363 -6 1574 -13 
C 1613 26 1613 160 1574 198 
C 1184 218 1114 250 1114 781 
L 1114 3731 
C 1114 4147 1139 4403 1139 4403 
C 1139 4448 1114 4467 1056 4467 
C 896 4403 416 4314 160 4294 
C 147 4243 160 4141 198 4102 
C 570 4077 608 4058 608 3578 
L 608 781 
z
" transform="scale(0.015625)"/>
       <path id="LibertinusSerif-Regular-f6" d="M 262 1312 
C 262 659 698 -64 1606 -64 
C 2016 -64 2330 83 2547 294 
C 2835 576 2963 979 2963 1370 
C 2963 2035 2598 2810 1619 2810 
C 1197 2810 851 2637 614 2362 
C 384 2086 262 1715 262 1312 
z
M 1523 2586 
C 2074 2586 2413 2086 2413 1165 
C 2413 358 1997 160 1696 160 
C 1030 160 813 966 813 1459 
C 813 2016 947 2586 1523 2586 
z
M 774 3680 
C 774 3514 909 3379 1075 3379 
C 1242 3379 1376 3514 1376 3680 
C 1376 3846 1242 3987 1075 3987 
C 909 3987 774 3846 774 3680 
z
M 1856 3680 
C 1856 3514 1990 3379 2157 3379 
C 2323 3379 2458 3514 2458 3680 
C 2458 3846 2323 3987 2157 3987 
C 1990 3987 1856 3846 1856 3680 
z
" transform="scale(0.015625)"/>
      </defs>
      <use xlink:href="#LibertinusSerif-Regular-36"/>
      <use xlink:href="#LibertinusSerif-Regular-30" transform="translate(46.499985 0)"/>
      <use xlink:href="#LibertinusSerif-Regular-20" transform="translate(92.999969 0)"/>
      <use xlink:href="#LibertinusSerif-Regular-4d" transform="translate(117.999954 0)"/>
      <use xlink:href="#LibertinusSerif-Regular-69" transform="translate(201.899948 0)"/>
      <use xlink:href="#LibertinusSerif-Regular-6e" transform="translate(228.999939 0)"/>
      <use xlink:href="#LibertinusSerif-Regular-20" transform="translate(283.199936 0)"/>
      <use xlink:href="#LibertinusSerif-Regular-41" transform="translate(308.199921 0)"/>
      <use xlink:href="#LibertinusSerif-Regular-75" transform="translate(377.699905 0)"/>
      <use xlink:href="#LibertinusSerif-Regular-66" transform="translate(430.799896 0)"/>
      <use xlink:href="#LibertinusSerif-Regular-6c" transform="translate(461.799881 0)"/>
      <use xlink:href="#LibertinusSerif-Regular-f6" transform="translate(488.199875 0)"/>
      <use xlink:href="#LibertinusSerif-Regular-73" transform="translate(538.599869 0)"/>
      <use xlink:href="#LibertinusSerif-Regular-75" transform="translate(577.599854 0)"/>
      <use xlink:href="#LibertinusSerif-Regular-6e" transform="translate(630.699844 0)"/>
      <use xlink:href="#LibertinusSerif-Regular-67" transform="translate(684.899841 0)"/>
     </g>
    </g>
    <g id="line2d_25">
     <path d="M 166.07 48.249993 
L 178.07 48.249993 
L 178.07 48.249993 
L 190.07 48.249993 
L 190.07 48.249993 
" style="fill: none; stroke-dasharray: 7.4,3.2; stroke-dashoffset: 0; stroke: #1f77b4; stroke-width: 2"/>
    </g>
    <g id="text_14">
     <!-- 15 Min Auflösung -->
     <g transform="translate(199.67 52.449993) scale(0.12 -0.12)">
      <defs>
       <path id="LibertinusSerif-Regular-35" d="M 2042 1210 
C 2042 602 1722 154 1338 154 
C 1094 154 1011 314 915 442 
C 832 550 723 646 589 646 
C 467 646 346 538 346 410 
C 346 147 890 -70 1254 -70 
C 2048 -70 2611 518 2611 1325 
C 2611 1946 2182 2502 1466 2502 
C 1190 2502 954 2445 838 2400 
L 966 3469 
C 1203 3443 1408 3411 1715 3411 
C 1907 3411 2125 3424 2387 3450 
L 2490 3885 
L 2445 3910 
C 2080 3872 1734 3840 1395 3840 
C 1158 3840 928 3853 704 3872 
L 486 2029 
C 826 2157 1069 2182 1299 2182 
C 1715 2182 2042 1907 2042 1210 
z
" transform="scale(0.015625)"/>
      </defs>
      <use xlink:href="#LibertinusSerif-Regular-31"/>
      <use xlink:href="#LibertinusSerif-Regular-35" transform="translate(46.499985 0)"/>
      <use xlink:href="#LibertinusSerif-Regular-20" transform="translate(92.999969 0)"/>
      <use xlink:href="#LibertinusSerif-Regular-4d" transform="translate(117.999954 0)"/>
      <use xlink:href="#LibertinusSerif-Regular-69" transform="translate(201.899948 0)"/>
      <use xlink:href="#LibertinusSerif-Regular-6e" transform="translate(228.999939 0)"/>
      <use xlink:href="#LibertinusSerif-Regular-20" transform="translate(283.199936 0)"/>
      <use xlink:href="#LibertinusSerif-Regular-41" transform="translate(308.199921 0)"/>
      <use xlink:href="#LibertinusSerif-Regular-75" transform="translate(377.699905 0)"/>
      <use xlink:href="#LibertinusSerif-Regular-66" transform="translate(430.799896 0)"/>
      <use xlink:href="#LibertinusSerif-Regular-6c" transform="translate(461.799881 0)"/>
      <use xlink:href="#LibertinusSerif-Regular-f6" transform="translate(488.199875 0)"/>
      <use xlink:href="#LibertinusSerif-Regular-73" transform="translate(538.599869 0)"/>
      <use xlink:href="#LibertinusSerif-Regular-75" transform="translate(577.599854 0)"/>
      <use xlink:href="#LibertinusSerif-Regular-6e" transform="translate(630.699844 0)"/>
      <use xlink:href="#LibertinusSerif-Regular-67" transform="translate(684.899841 0)"/>
     </g>
    </g>
    <g id="line2d_26">
     <path d="M 166.07 65.505618 
L 178.07 65.505618 
L 178.07 65.505618 
L 190.07 65.505618 
L 190.07 65.505618 
" style="fill: none; stroke: #000000; stroke-width: 1.5; stroke-linecap: square"/>
    </g>
    <g id="text_15">
     <!-- Schatten -->
     <g transform="translate(199.67 69.705618) scale(0.12 -0.12)">
      <use xlink:href="#LibertinusSerif-Regular-53"/>
      <use xlink:href="#LibertinusSerif-Regular-63" transform="translate(48.499985 0)"/>
      <use xlink:href="#LibertinusSerif-Regular-68" transform="translate(91.299973 0)"/>
      <use xlink:href="#LibertinusSerif-Regular-61" transform="translate(145.09996 0)"/>
      <use xlink:href="#LibertinusSerif-Regular-74" transform="translate(190.799957 0)"/>
      <use xlink:href="#LibertinusSerif-Regular-74" transform="translate(222.399948 0)"/>
      <use xlink:href="#LibertinusSerif-Regular-65" transform="translate(253.999939 0)"/>
      <use xlink:href="#LibertinusSerif-Regular-6e" transform="translate(298.699936 0)"/>
     </g>
    </g>
   </g>
  </g>
 </g>
 <defs>
  <clipPath id="p9f57e48ae0">
   <rect x="155.27" y="15.994368" width="407.77" height="118.230528"/>
  </clipPath>
 </defs>
</svg>
