<?xml version="1.0" encoding="UTF-8" standalone="no"?>
<svg
   xmlns:dc="http://purl.org/dc/elements/1.1/"
   xmlns:cc="http://creativecommons.org/ns#"
   xmlns:rdf="http://www.w3.org/1999/02/22-rdf-syntax-ns#"
   xmlns:svg="http://www.w3.org/2000/svg"
   xmlns="http://www.w3.org/2000/svg"
   viewBox="0 0 1080 1919.9999"
   height="1919.9999"
   width="1080"
   xml:space="preserve"
   id="svg2"
   version="1.1"><metadata
     id="metadata8"><rdf:RDF><cc:Work
         rdf:about=""><dc:format>image/svg+xml</dc:format><dc:type
           rdf:resource="http://purl.org/dc/dcmitype/StillImage" /></cc:Work></rdf:RDF></metadata><defs
     id="defs6"><clipPath
       id="clipPath14"
       clipPathUnits="userSpaceOnUse"><path
         id="path12"
         d="M 0,7.919965 H 810 V 1447.9199 H 0 Z" /></clipPath><clipPath
       id="clipPath24"
       clipPathUnits="userSpaceOnUse"><path
         style="clip-rule:evenodd"
         id="path22"
         d="M 0,0 H 3375 V 6000 H 0 Z" /></clipPath><clipPath
       id="clipPath36"
       clipPathUnits="userSpaceOnUse"><path
         id="path34"
         d="M 0,0 H 3375 V 6000 H 0 Z" /></clipPath><clipPath
       id="clipPath42"
       clipPathUnits="userSpaceOnUse"><path
         id="path40"
         d="M 0,0 H 3375 V 6000 H 0 Z" /></clipPath><clipPath
       id="clipPath48"
       clipPathUnits="userSpaceOnUse"><path
         id="path46"
         d="M 543.34552,1791.1306 H 2760.9412 V 3506.25 H 543.34552 Z" /></clipPath><clipPath
       id="clipPath54"
       clipPathUnits="userSpaceOnUse"><path
         id="path52"
         d="M 702.72052,1791.1306 H 2598.3196 c 42.2688,0 82.8064,16.7913 112.695,46.6798 29.8885,29.8887 46.6797,70.4263 46.6797,112.6952 V 3346.875 c 0,42.269 -16.7912,82.8066 -46.6797,112.6953 -29.8886,29.8884 -70.4262,46.6797 -112.695,46.6797 H 702.72052 c -42.26886,0 -82.80652,-16.7913 -112.69513,-46.6797 -29.88861,-29.8887 -46.67987,-70.4263 -46.67987,-112.6953 V 1950.5056 c 0,-42.2689 16.79126,-82.8065 46.67987,-112.6952 29.88861,-29.8885 70.42627,-46.6798 112.69513,-46.6798 z" /></clipPath><clipPath
       id="clipPath62"
       clipPathUnits="userSpaceOnUse"><path
         id="path60"
         d="M 0,0 H 2215 V 1716 H 0 Z" /></clipPath><clipPath
       id="clipPath78"
       clipPathUnits="userSpaceOnUse"><path
         style="clip-rule:evenodd"
         id="path76"
         d="M 677.39795,1915.938 H 2623.6421 V 3381.4426 H 677.39795 Z" /></clipPath><clipPath
       id="clipPath86"
       clipPathUnits="userSpaceOnUse"><path
         id="path84"
         d="M 0,0 H 1947 V 1467 H 0 Z" /></clipPath><clipPath
       id="clipPath102"
       clipPathUnits="userSpaceOnUse"><path
         style="clip-rule:evenodd"
         id="path100"
         d="m 543.34552,2142.4402 h 161.96069 v 1012.5 H 543.34552 Z" /></clipPath><clipPath
       id="clipPath110"
       clipPathUnits="userSpaceOnUse"><path
         id="path108"
         d="M 0,0 H 163 V 1013 H 0 Z" /></clipPath><clipPath
       id="clipPath126"
       clipPathUnits="userSpaceOnUse"><path
         style="clip-rule:evenodd"
         id="path124"
         d="M 0,0 H 3375 V 6000 H 0 Z" /></clipPath></defs><g
     clip-path="url(#clipPath14)"
     transform="matrix(1.3333333,0,0,-1.3333333,0,1930.5599)"
     id="g10"><g
       transform="matrix(0.23999999,0,0,-0.23999999,0,1447.9199)"
       id="g16"><g
         id="g18"><g
           clip-path="url(#clipPath24)"
           id="g20"><g
             transform="scale(3.125)"
             id="g26"><path
               id="path28"
               style="fill:#ffffff;fill-opacity:1;fill-rule:nonzero;stroke:none"
               d="M 0,0 H 1080 V 1920 H 0 Z" /></g></g></g><g
         id="g30"><g
           clip-path="url(#clipPath36)"
           id="g32"><g
             clip-path="url(#clipPath42)"
             id="g38"><g
               clip-path="url(#clipPath48)"
               id="g44"><g
                 clip-path="url(#clipPath54)"
                 id="g50"><g
                   transform="translate(543,1791)"
                   id="g56"><g
                     id="g58" /><g
                     id="g70"><g
                       id="g68"
                       clip-path="url(#clipPath62)"><g
                         id="g66"
                         transform="matrix(6.6996851,0,0,6.6996851,0.34552002,0.13061523)"><path
                           id="path64"
                           style="fill:#919191;fill-opacity:1;fill-rule:nonzero;stroke:none"
                           d="M 0,0 H 331 V 256 H 0 Z" /></g></g></g></g></g></g></g></g></g><g
         id="g72"><g
           clip-path="url(#clipPath78)"
           id="g74"><g
             transform="translate(677,1915)"
             id="g80"><g
               id="g82" /><g
               id="g94"><g
                 id="g92"
                 clip-path="url(#clipPath86)"><g
                   id="g90"
                   transform="matrix(5.7246275,0,0,5.7246275,0.39794922,0.93798828)"><path
                     id="path88"
                     style="fill:#ffffff;fill-opacity:1;fill-rule:nonzero;stroke:none"
                     d="M 0,0 H 340 V 256 H 0 Z" /></g></g></g></g></g></g><g
         id="g96"><g
           clip-path="url(#clipPath102)"
           id="g98"><g
             transform="translate(543,2142)"
             id="g104"><g
               id="g106" /><g
               id="g118"><g
                 id="g116"
                 clip-path="url(#clipPath110)"><g
                   id="g114"
                   transform="matrix(0.63265902,0,0,0.63265902,0.34552002,0.44018555)"><path
                     id="path112"
                     style="fill:#ffffff;fill-opacity:1;fill-rule:nonzero;stroke:none"
                     d="M 0,0 H 256 V 1600 H 0 Z" /></g></g></g></g></g></g><g
         id="g120"><g
           clip-path="url(#clipPath126)"
           id="g122"><g
             transform="matrix(2.1189544,2.2968798,-2.2968798,2.1189544,-817.98334,1380.2949)"
             id="g128"><path
               id="path130"
               style="fill:#ffde59;fill-opacity:1;fill-rule:nonzero;stroke:none"
               d="M 0,0 H 72 V 12 H 0 M 84,0 h 72 V 12 H 84 M 168,0 h 72 V 12 H 168 M 252,0 h 72 V 12 H 252 M 336,0 h 72 V 12 H 336 M 420,0 h 72 V 12 H 420 M 504,0 h 72 V 12 H 504 M 588,0 h 72 V 12 H 588 M 672,0 h 72 V 12 H 672 M 756,0 h 11.10217 V 12 H 756" /></g></g></g></g><path
       id="path132"
       style="fill:#000000;fill-opacity:0;fill-rule:nonzero;stroke:none"
       d="m -202.93001,687.683 h 396.7241 v 428.9685 h -396.7241 z" /></g></svg>