<?xml version="1.0" encoding="UTF-8"?>
<!-- Generator: Adobe Illustrator 23.0.1, SVG Export Plug-In . SVG Version: 6.00 Build 0)  -->
<svg version="1.1" id="Ebene_1" xmlns="http://www.w3.org/2000/svg" xmlns:xlink="http://www.w3.org/1999/xlink" x="0px" y="0px" viewBox="0 0 525 520" style="enable-background:new 0 0 525 520;" xml:space="preserve">
<style type="text/css">
	.st0{fill:#29211A;}
	.st1{fill:none;stroke:#29211A;stroke-width:0.2;stroke-miterlimit:10;}
	.st2{fill:#F39200;}
	.st3{fill:#FFED00;}
	.st4{fill:#E8308A;}
	.st5{fill:#E73331;}
	.st6{fill:#FFFFFF;}
	.st7{clip-path:url(#SVGID_2_);fill:#29211A;}
	.st8{clip-path:url(#SVGID_2_);}
	.st9{fill:#F52D2D;}
	.st10{fill:#F8E71C;}
	.st11{fill:#FA379B;}
	.st12{fill:#FF961E;}
</style>
<g>
	<polygon class="st0" points="190.73,440.71 190.66,440.7 127.51,429.47 127.51,429.39 127.61,422.7 126.99,422.58 126.99,420.86    127.49,420.68 127.5,408.28 128.11,407.52 128.09,405.89 128.29,405.89 128.31,407.59 127.7,408.35 127.69,420.82 127.19,421    127.19,422.41 127.82,422.54 127.81,422.62 127.71,429.31 190.62,440.49 191.33,438.98 191.51,439.07  "/>
</g>
<g>
	
		<rect x="159.06" y="396.03" transform="matrix(0.166 -0.9861 0.9861 0.166 -289.2399 513.8273)" class="st0" width="0.2" height="63.78"/>
</g>
<g>
	<polygon class="st0" points="190.58,440.6 190.55,419.49 190.75,419.49 190.77,440.6  "/>
</g>
<g>
	<path class="st0" d="M190.63,419.59l-63.06-11.14l0.04-0.2l62.98,11.13l0.34-0.67v-2.56l-0.31,0.6l-0.11,0.05l-63.89-11.07   l-0.08-0.1l-0.01-1.5l0.12-0.1l63.78,11.22l0.08,0.1v1.16l0.42-0.82l0.19,0.05l-0.01,3.04l-0.38,0.76L190.63,419.59z    M126.74,405.53l63.57,11.02v-1.12l-63.58-11.19L126.74,405.53z"/>
</g>
<g>
	<polygon class="st0" points="190.59,431.62 127.57,420.85 127.61,420.65 190.62,431.42  "/>
</g>
<g>
	<polygon class="st0" points="126.71,404.19 126.56,404.06 129.74,400.42 129.79,397.41 138.11,374.91 138.16,374.9 171.9,364.33    171.92,364.33 188.63,368.42 188.78,370.21 205.95,374.53 205.9,374.73 188.59,370.36 188.45,368.58 171.9,364.53 138.27,375.08    129.98,397.47 129.94,400.49  "/>
</g>
<g>
	<polygon class="st0" points="126.73,404.2 126.54,404.14 134.24,377.8 134.3,377.79 137.42,376.91 137.47,377.1 134.4,377.97  "/>
</g>
<g>
	<polygon class="st0" points="185.91,414.57 185.74,414.47 192.38,402.77 192.27,398.28 180.99,397.48 181.02,397.36 188.44,368.47    188.64,368.52 181.24,397.3 192.46,398.09 192.47,398.18 192.59,402.82 192.57,402.84  "/>
</g>
<g>
	<path class="st0" d="M197.72,403.21c0-0.07-0.03-1.55-0.04-1.91c-0.45-0.09-3.31-0.26-5.21-0.36l0.01-0.2   c5.4,0.29,5.4,0.37,5.4,0.49c0,0.11,0.04,1.96,0.04,1.98L197.72,403.21z"/>
</g>
<g>
	
		<rect x="186.14" y="408.19" transform="matrix(0.4627 -0.8865 0.8865 0.4627 -257.6616 391.428)" class="st0" width="15.93" height="0.2"/>
</g>
<g>
	<polygon class="st0" points="187.16,410.89 187.04,410.87 129.83,400.55 129.86,400.36 186.95,410.65 186.85,407.52 186.86,407.5    192.28,398.13 192.45,398.23 187.05,407.57  "/>
</g>
<g>
	<polygon class="st0" points="186.93,407.65 177.54,405.97 177.88,404.21 168.44,402.82 168.07,404.28 167.97,404.26 155.46,402.15    155.49,402.05 156.54,398.31 156.54,397.35 149.23,396.63 148.39,399.53 148.39,400.83 148.28,400.81 129.86,397.55 129.9,397.35    148.2,400.59 148.2,399.49 149.09,396.42 149.17,396.43 156.73,397.17 156.73,398.35 155.71,401.99 167.92,404.05 168.29,402.59    168.38,402.61 178.11,404.04 178.09,404.14 177.78,405.81 186.97,407.45  "/>
</g>
<g>
	<polygon class="st0" points="155.63,402.13 155.43,402.13 155.43,400.88 148.28,399.61 148.31,399.42 155.63,400.71  "/>
</g>
<g>
	<rect x="167.89" y="404.17" class="st0" width="0.2" height="3.15"/>
</g>
<g>
	<rect x="177.54" y="406.01" class="st0" width="0.2" height="3.06"/>
</g>
<g>
	<polygon class="st0" points="177.63,407.29 167.98,405.84 168.01,405.64 177.66,407.09  "/>
</g>
<g>
	<polygon class="st0" points="185.46,414.56 185.28,414.48 187.03,410.8 187.21,410.88  "/>
</g>
<g>
	<polygon class="st0" points="182.57,397.41 182.37,397.36 189.37,370.43 189.56,370.48  "/>
</g>
<g>
	<polygon class="st0" points="185.49,397.72 185.29,397.67 189.56,381.53 195.5,382.21 206.8,384.3 206.76,384.49 195.47,382.4    189.7,381.75  "/>
</g>
<g>
	<path class="st0" d="M167.27,394.42l-0.08-0.01l-17.48-1.67l0.04-0.12l5.34-17.59l0.05-0.02l6.97-2.47l11.05,1.2l-0.03,0.11   L167.27,394.42z M149.96,392.57l17.16,1.64l5.77-20.29l-10.77-1.17l-6.88,2.44L149.96,392.57z"/>
</g>
<g>
	<polygon class="st0" points="151.51,392.83 151.32,392.78 155.13,380.12 155.06,375.12 155.26,375.11 155.33,380.14 155.32,380.16     "/>
</g>
<g>
	<polygon class="st0" points="152.94,392.83 152.75,392.78 155.61,382.35 161.97,380.4 161.99,380.4 170.97,380.95 170.96,381.15    162,380.6 155.77,382.51  "/>
</g>
<g>
	<polygon class="st0" points="155.26,380.23 155.2,380.03 162,377.94 162.02,377.94 171.66,378.53 171.65,378.73 162.02,378.14  "/>
</g>
<g>
	<polygon class="st0" points="162.11,378.16 161.91,378.16 162.01,372.65 162.21,372.66  "/>
</g>
<g>
	<rect x="161.88" y="380.5" class="st0" width="0.2" height="11.63"/>
</g>
<g>
	<path class="st0" d="M155.67,391.65l-0.2-0.01c0.1-3.53,0.21-8.89,0.13-9.18l0.19-0.07C155.91,382.69,155.71,390.16,155.67,391.65z   "/>
</g>
<g>
	<polygon class="st0" points="154.34,393.07 154.15,393.02 154.59,391.44 154.67,391.45 167.65,392.64 167.64,392.83 154.73,391.66     "/>
</g>
<g>
	<path class="st0" d="M177.27,388.94l-7.62-0.74l1.06-3.29l0.08,0.01l7.46,0.71L177.27,388.94z M169.92,388.02l7.21,0.7l0.86-2.91   l-7.13-0.68L169.92,388.02z"/>
</g>
<g>
	<polygon class="st0" points="177.57,390.35 177.49,390.34 169.56,389.62 169.68,388.1 169.88,388.12 169.78,389.44 177.42,390.13    178.14,387.42 178.14,385.61 178.34,385.61 178.34,387.46  "/>
</g>
<g>
	<rect x="189.53" y="381.64" class="st0" width="0.2" height="16.22"/>
</g>
<g>
	<rect x="195.66" y="382.46" class="st0" width="0.2" height="18.64"/>
</g>
<g>
	<polygon class="st0" points="188,368.46 187.96,368.26 198.38,365.66 198.38,364.99 200.39,364.57 200.39,363.82 204.96,362.4    205.02,362.59 200.59,363.97 200.59,364.73 198.58,365.16 198.58,365.81 198.5,365.83  "/>
</g>
<g>
	<path class="st0" d="M115.75,386l-0.05-0.03l-46.77-21.95l0-0.06l0.17-25.13l0.04-0.03l13.42-10.26l1.13,0.45l10.05-7.57   l-0.03-1.98l0.04-0.03l25.12-19.16l0.05-4.17l0.04-0.03l48.23-36.62l0.04,0l10.7,1.24l15.44,25.82v0.03l-0.03,9.29l9.84,16.02   l-0.17,0.1l-9.87-16.07l0-0.03l0.03-9.29l-15.37-25.68l-10.57-1.23l-48.13,36.54l-0.05,4.16L93.9,319.54l0.03,1.98l-0.04,0.03   l-10.18,7.67l-1.13-0.45l-13.29,10.17l-0.17,24.97l46.6,21.87l2.04-1.5l1.72,0.85l11.87-3.16l0.5,0.59   c0.45-0.13,1.08-0.31,1.13-0.33l0.07,0.19c-0.09,0.03-1.1,0.32-1.21,0.35l-0.06,0.02l-0.5-0.59l-11.82,3.15l-1.68-0.83L115.75,386z   "/>
</g>
<g>
	<polygon class="st0" points="122.59,351.71 122.56,351.69 110.81,346.28 106.55,349.23 106.5,349.21 100.08,346.46 100.08,344.14    100.12,344.11 102.44,342.4 95.17,338.9 98.98,335.86 83.66,329.19 83.74,329.01 99.37,335.81 95.55,338.86 102.83,342.36    100.28,344.24 100.28,346.33 106.52,349 110.79,346.05 110.84,346.08 122.61,351.49 127.46,350.12 127.39,341.06 127.59,341.06    127.66,350.27 127.59,350.29  "/>
</g>
<g>
	<polygon class="st0" points="135.8,352.6 135.76,352.54 127.39,341.05 136.89,338.61 136.94,338.8 127.73,341.17 135.88,352.37    200.62,335.77 200.61,336.91 204.64,335.9 204.69,336.1 200.41,337.16 200.42,336.03  "/>
</g>
<g>
	<rect x="200.39" y="337.03" class="st0" width="0.2" height="26.86"/>
</g>
<g>
	<polygon class="st0" points="135.77,356.02 135.73,355.96 127.48,344.75 127.64,344.63 135.85,355.79 200.32,339.54 200.37,339.73     "/>
</g>
<g>
	<polygon class="st0" points="127.59,350.29 127.53,350.1 130.77,349.17 130.83,349.36  "/>
</g>
<g>
	<rect x="135.74" y="352.48" class="st0" width="0.2" height="3.42"/>
</g>
<g>
	<path class="st0" d="M138.82,341.37l-0.04-0.05l-1.85-2.57v-2.92l0.07-0.02l7.4-1.92l2.15,2.77l0,0.04l-0.06,2.91l-0.08,0.02   L138.82,341.37z M137.14,338.68l1.77,2.47l7.41-1.69l0.05-2.72l-2.03-2.61l-7.2,1.86V338.68z"/>
</g>
<g>
	<polygon class="st0" points="138.85,338.72 136.96,335.96 137.12,335.85 138.94,338.49 146.44,336.6 146.49,336.8  "/>
</g>
<g>
	
		<rect x="137.56" y="339.83" transform="matrix(9.803451e-03 -1 1 9.803451e-03 -202.3923 475.4708)" class="st0" width="2.65" height="0.2"/>
</g>
<g>
	<path class="st0" d="M155.39,340.58l-2.43-3.25v-0.03l-0.02-2.56l-6.77,1.66l-0.05-0.19l9.66-2.37l-1.77-2.45l7.46-1.86l0.04,0.05   l4.13,5.67v2.9L155.39,340.58z M153.16,337.26l2.31,3.09l9.99-2.36v-2.68l-4.05-5.57l-7.05,1.75l1.77,2.45l-2.98,0.73   L153.16,337.26z"/>
</g>
<g>
	<polygon class="st0" points="155.39,337.8 153.11,334.58 153.27,334.46 155.48,337.57 165.54,335.18 165.58,335.38  "/>
</g>
<g>
	<rect x="155.33" y="337.69" class="st0" width="0.2" height="2.62"/>
</g>
<g>
	<rect x="154.01" y="331.37" class="st0" width="0.2" height="2.97"/>
</g>
<g>
	<polygon class="st0" points="200.43,335.95 195.4,327.02 192.03,327.66 190.9,324.91 163.2,332.1 163.15,331.9 191.02,324.67    192.15,327.43 195.5,326.8 195.54,326.86 200.6,335.85  "/>
</g>
<g>
	<polygon class="st0" points="198.38,365.08 198.26,341.38 131.81,358.37 131.81,357.71 131.32,357.28 119.59,360.27 117.74,359.57    115.77,360.8 115.72,360.78 69.15,339.13 69.23,338.95 115.76,360.57 117.71,359.35 119.6,360.06 131.38,357.06 132.01,357.62    132.01,358.11 198.46,341.13 198.46,341.25 198.58,365.07  "/>
</g>
<g>
	
		<rect x="119.69" y="370.06" transform="matrix(0.0245 -0.9997 0.9997 0.0245 -241.6591 492.6637)" class="st0" width="23.84" height="0.2"/>
</g>
<g>
	
		<rect x="107" y="372.6" transform="matrix(4.901902e-03 -1 1 4.901902e-03 -253.7424 490.4049)" class="st0" width="25.07" height="0.2"/>
</g>
<g>
	<polygon class="st0" points="117.68,384.39 117.63,359.46 117.82,359.46 117.88,384.39  "/>
</g>
<g>
	<polygon class="st0" points="115.84,385.89 115.64,385.89 115.66,360.69 115.86,360.69  "/>
</g>
<g>
	<path class="st0" d="M96.32,338.23l-0.02-0.2l9.99-1.16l-2.22-7.46l-1.8-1.87c-0.02-0.02-0.03-0.05-0.03-0.08s0.01-0.05,0.04-0.07   l1.67-1.35l-10.15-4.47l0.08-0.18l10.3,4.54c0.03,0.01,0.05,0.04,0.06,0.08c0,0.03-0.01,0.07-0.04,0.09l-1.72,1.38l1.74,1.81   c0.01,0.01,0.02,0.03,0.02,0.04l2.26,7.6c0.01,0.03,0,0.06-0.01,0.08c-0.02,0.02-0.04,0.04-0.07,0.04L96.32,338.23z"/>
</g>
<g>
	<polygon class="st0" points="113.03,347.15 112.83,347.15 112.83,340.56 108.47,331.27 104.03,329.42 104.03,326.01 104.23,326.01    104.23,329.29 108.62,331.11 108.64,331.15 113.03,340.53  "/>
</g>
<g>
	<polygon class="st0" points="110.7,346.17 110.64,343.96 104.45,341.11 102.7,342.46 102.57,342.3 104.42,340.88 104.48,340.9    110.84,343.83 110.84,343.89 110.9,346.17  "/>
</g>
<g>
	<polygon class="st0" points="105.98,341.79 105.94,341.59 112.91,340.44 112.95,340.63  "/>
</g>
<g>
	<polygon class="st0" points="106.55,346.94 100.14,344.28 100.21,344.1 106.52,346.71 110.68,343.81 110.8,343.97  "/>
</g>
<g>
	<rect x="106.44" y="346.82" class="st0" width="0.2" height="2.2"/>
</g>
<g>
	<polygon class="st0" points="99.61,341.02 99.58,340.82 106.33,340.01 106.31,336.96 106.51,336.95 106.53,340.19 106.45,340.2     "/>
</g>
<g>
	<path class="st0" d="M110.21,326.8c-0.01,0-0.03,0-0.04-0.01l-16.42-7.21l0.08-0.18l16.37,7.19l17.63-12.84l-1.41-0.81   c-0.03-0.02-0.05-0.05-0.05-0.08c0-0.03,0.01-0.07,0.04-0.09l7.27-5.74l-14.77-6.65l0.08-0.18l14.92,6.72   c0.03,0.01,0.05,0.04,0.06,0.08c0,0.03-0.01,0.07-0.04,0.09l-7.28,5.75l1.41,0.81c0.03,0.02,0.05,0.05,0.05,0.08   s-0.01,0.07-0.04,0.09l-17.8,12.96C110.26,326.8,110.24,326.8,110.21,326.8z"/>
</g>
<g>
	<rect x="110.12" y="326.7" class="st0" width="0.2" height="8.15"/>
</g>
<g>
	<polygon class="st0" points="145.4,335.2 145.21,335.2 145.21,326.61 127.92,318.86 127.92,313.72 128.11,313.72 128.11,318.73    145.4,326.48  "/>
</g>
<g>
	<polygon class="st0" points="122.82,336.96 122.79,336.95 116.07,333.76 117.76,332.45 112.48,329.99 116.39,327.42 116.44,327.44    125.47,331.44 128.89,331.29 132.55,328.22 132.13,326.4 123.19,322.19 127.96,318.72 128.07,318.88 123.58,322.15 132.3,326.27    132.31,326.31 132.78,328.3 132.73,328.34 128.96,331.49 125.43,331.64 125.41,331.63 116.41,327.64 112.89,329.96 118.14,332.41    116.45,333.72 122.85,336.75 134.91,334.54 145.24,326.47 145.37,326.62 134.97,334.74  "/>
</g>
<g>
	<polygon class="st0" points="132.26,328.57 123.29,324.49 123.29,322.17 123.49,322.17 123.49,324.36 132.34,328.39  "/>
</g>
<g>
	<rect x="116.12" y="333.74" class="st0" width="0.2" height="14.8"/>
</g>
<g>
	<polygon class="st0" points="118.42,349.77 118.38,349.57 122.74,348.71 122.74,336.86 122.94,336.86 122.94,348.88 122.86,348.89     "/>
</g>
<g>
	<rect x="134.64" y="334.68" class="st0" width="0.2" height="4.53"/>
</g>
<g>
	<polygon class="st0" points="133.97,321.29 133.78,321.29 133.97,303.11 118.96,296.23 119.04,296.04 134.18,302.99 134.17,303.05     "/>
</g>
<g>
	<polygon class="st0" points="134.14,303.13 134.01,302.97 171.68,273.83 171.74,273.93 180.7,289.05 193.24,286.43 193.28,286.62    180.6,289.27 180.56,289.21 171.63,274.13  "/>
</g>
<g>
	<rect x="180.55" y="289.16" class="st0" width="0.2" height="6.03"/>
</g>
<g>
	<polygon class="st0" points="175.18,320.5 174.98,320.5 175.17,311.67 171.55,305.53 171.55,273.98 171.75,273.98 171.75,305.47    175.37,311.61 175.37,311.64  "/>
</g>
<g>
	<polygon class="st0" points="179.46,325.27 176.57,320.4 176.58,295.82 176.66,295.8 190.3,293.19 201.87,312.24 201.7,312.35    190.2,293.41 176.78,295.98 176.77,320.34 179.63,325.17  "/>
</g>
<g>
	<polygon class="st0" points="179.64,327.75 179.45,327.75 179.57,302.76 180.56,302.57 176.59,295.95 176.76,295.85 180.88,302.72    179.77,302.92  "/>
</g>
<g>
	<polygon class="st0" points="184.63,326.37 184.43,326.37 184.66,309.06 184.73,309.04 192.08,307.35 192.08,304.84 189.18,300.98    180.74,302.74 180.7,302.55 189.27,300.76 192.28,304.77 192.28,307.51 192.2,307.53 184.86,309.22  "/>
</g>
<g>
	<path class="st0" d="M182.34,327h-0.2v-20.08l0.08-0.02c3.36-0.73,9.76-2.13,9.94-2.19l0.06,0.19c-0.22,0.07-8.89,1.96-9.88,2.17   V327z"/>
</g>
<g>
	<polygon class="st0" points="182.15,307.04 179.58,302.89 179.75,302.79 182.32,306.94  "/>
</g>
<g>
	<polygon class="st0" points="189.53,317.58 189.49,317.52 184.67,309.19 184.84,309.09 189.63,317.35 192.77,316.67 192.82,316.86     "/>
</g>
<g>
	<rect x="189.48" y="317.47" class="st0" width="0.2" height="7.69"/>
</g>
<g>
	<path class="st0" d="M192.62,327.47c-0.01-0.02-0.02-0.06-0.01-13.35v-0.08l13.69-2.86l0.04,0.2l-13.53,2.83   c0,4.54-0.01,13.04,0,13.23l-0.09,0.01L192.62,327.47z"/>
</g>
<g>
	<polygon class="st0" points="194.86,327.04 193.04,323.46 193.16,323.43 197.58,322.39 192.71,314.17 192.88,314.07 197.89,322.52    197.76,322.56 193.33,323.59 195.04,326.95  "/>
</g>
<g>
	<polygon class="st0" points="207.29,309.13 194.29,287.8 194.29,287.77 194.25,266.38 194.98,263.25 195.01,263.23 197.51,261.16    197.63,261.31 195.16,263.36 194.45,266.4 194.48,287.74 207.46,309.03  "/>
</g>
<g>
	
		<rect x="203.87" y="263.63" transform="matrix(0.8491 -0.5282 0.5282 0.8491 -118.09 150.2602)" class="st0" width="0.2" height="36.41"/>
</g>
<g>
	<polygon class="st0" points="215.05,294.74 206.78,281.23 208.33,280.92 197.94,263.66 197.38,262.34 197.38,262.32 197.51,259.75    197.65,259.82 221,271.04 220.91,275.89 219.52,278.58 219.73,279.74 220.96,279.53 220.99,279.59 223.1,283.17 225.88,282.53    225.92,282.58 229.65,287.19 229.49,287.31 225.81,282.75 223,283.4 220.86,279.75 219.57,279.97 219.31,278.55 220.72,275.82    220.8,271.17 197.7,260.06 197.58,262.31 198.12,263.57 208.65,281.06 207.1,281.37 215.22,294.63  "/>
</g>
<g>
	<polygon class="st0" points="206.79,283.25 198.13,269.31 197.37,267.27 197.38,262.33 197.58,262.33 197.57,267.25 198.3,269.22    206.96,283.15  "/>
</g>
<g>
	<rect x="206.79" y="281.24" class="st0" width="0.2" height="5.28"/>
</g>
<g>
	
		<rect x="191.92" y="295.89" transform="matrix(0.9766 -0.2149 0.2149 0.9766 -59.0986 48.291)" class="st0" width="1.32" height="0.2"/>
</g>
<g>
	<polygon class="st0" points="198.98,260.6 198.86,260.44 203.83,256.58 203.83,251.47 203.87,251.44 224.67,235.61 224.73,235.64    228.06,237.32 227.97,237.5 224.69,235.84 204.03,251.57 204.03,256.68 203.99,256.71  "/>
</g>
<g>
	
		<rect x="215.87" y="248.83" transform="matrix(0.4093 -0.9124 0.9124 0.4093 -111.5012 351.8385)" class="st0" width="0.2" height="26.4"/>
</g>
<g>
	<polygon class="st0" points="218.49,263.21 218.45,257.82 218.49,257.79 228.02,250.53 228.14,250.69 218.65,257.92 218.69,263.21     "/>
</g>
<g>
	<polygon class="st0" points="218.51,257.97 203.89,251.61 203.97,251.43 218.59,257.78  "/>
</g>
<g>
	<polygon class="st0" points="220.93,271.2 220.87,271.01 228.07,268.42 228.14,268.61  "/>
</g>
<g>
	<polygon class="st0" points="227.98,274.44 220.86,271.19 220.94,271.01 228.06,274.26  "/>
</g>
<g>
	<polygon class="st0" points="221,279.67 220.81,279.61 222.37,275.01 224.56,272.71 224.7,272.85 222.53,275.14  "/>
</g>
<g>
	<rect x="224.56" y="272.78" class="st0" width="0.2" height="10.11"/>
</g>
<g>
	<polygon class="st0" points="168.88,321.76 166.81,320.72 166.9,320.54 168.91,321.55 176.49,320.01 176.53,320.21  "/>
</g>
<g>
	<path class="st0" d="M168.78,312.92l-3.47-1.8l0.09-0.18l3.4,1.77c2.32-0.5,7.63-1.64,7.85-1.52l-0.09,0.18l0.04-0.09l-0.03,0.1   c-0.01,0-0.02,0-0.03,0c-0.47,0-4.85,0.91-7.75,1.54L168.78,312.92z"/>
</g>
<g>
	<polygon class="st0" points="165.08,317.3 164.88,317.3 164.88,313.49 166.74,302.18 169.3,301.72 171.74,305.45 171.57,305.56    169.21,301.94 166.91,302.35 165.07,313.51  "/>
</g>
<g>
	<polygon class="st0" points="166.24,305.66 166.21,305.47 171.1,304.58 171.14,304.78  "/>
</g>
<g>
	<rect x="168.87" y="312.86" class="st0" width="0.2" height="8.8"/>
</g>
<g>
	<polygon class="st0" points="168.83,330.46 168.63,330.46 168.63,324.07 162.87,313.82 164.96,313.39 165,313.59 163.18,313.96    168.83,324.02  "/>
</g>
<g>
	<polygon class="st0" points="162.55,316.86 161.63,315.01 162.85,313.82 162.99,313.96 161.88,315.05 162.66,316.65 164.47,316.39    164.5,316.58  "/>
</g>
<g>
	<polygon class="st0" points="155.66,331.17 155.53,331.01 163.2,324.98 168.71,323.95 168.74,324.14 163.27,325.17  "/>
</g>
<g>
	<polygon class="st0" points="166.6,331.14 163.12,325.1 163.88,319.77 154.93,315.77 155.01,315.58 164.1,319.65 163.33,325.06    166.78,331.04  "/>
</g>
<g>
	<polygon class="st0" points="164.01,319.81 163.97,319.61 166.03,319.18 166.07,319.37  "/>
</g>
<g>
	<polygon class="st0" points="160.54,327.38 154.79,324.73 154.79,315.49 154.83,315.46 166.01,306.93 166.13,307.09 154.99,315.59    154.99,324.6 160.62,327.2  "/>
</g>
<g>
	<polygon class="st0" points="156.23,311.49 154.9,310.68 155,310.51 156.22,311.25 160.46,308.25 156.41,306.49 161.09,303    163.94,304.27 166.77,302.18 166.88,302.34 163.96,304.5 161.12,303.23 156.8,306.44 160.86,308.21  "/>
</g>
<g>
	<polygon class="st0" points="154.99,315.54 154.79,315.54 154.87,296.98 148.76,294.12 143.08,298.51 143.07,302.73 142.87,302.73    142.88,298.42 142.92,298.39 148.73,293.89 148.79,293.91 155.07,296.85 155.07,296.91  "/>
</g>
<g>
	<polygon class="st0" points="149.07,301.24 149.02,301.22 142.94,298.56 143.02,298.37 149.05,301.01 154.73,296.82 154.85,296.98     "/>
</g>
<g>
	<rect x="148.96" y="301.12" class="st0" width="0.2" height="27.85"/>
</g>
<g>
	<path class="st1" d="M154.89,324.67"/>
</g>
<g>
	<polygon class="st0" points="149.07,329.09 145.34,327.38 145.42,327.2 149.05,328.86 154.83,324.59 154.95,324.75  "/>
</g>
<g>
	<polygon class="st0" points="146.07,327.47 145.87,327.47 145.87,304.08 139.65,301.4 134.06,305.58 133.94,305.42 139.62,301.17    139.68,301.2 146.07,303.95  "/>
</g>
<g>
	<polygon class="st0" points="139.91,308.83 139.85,308.8 134,305.9 134.09,305.72 139.89,308.59 145.91,303.93 146.04,304.09  "/>
</g>
<g>
	<polygon class="st0" points="139.89,324.05 139.69,324.04 139.8,308.71 140,308.71  "/>
</g>
<g>
	<polygon class="st0" points="79.61,413.05 79.54,413.04 75.04,412.54 75.25,411.8 74.15,411.68 72.75,410.38 72.9,409.83    71.59,409.71 72.64,406.46 73.95,406.57 74.2,405.91 76.08,405.12 76.16,405.31 74.36,406.06 74.09,406.78 72.78,406.68    71.86,409.53 73.16,409.65 72.98,410.31 74.24,411.49 75.5,411.62 75.29,412.37 79.49,412.83 79.85,412.1 81.1,412.25    82.96,411.51 83.2,410.74 84.55,410.84 85.41,408.07 84.09,407.94 84.33,407.18 83.01,406.08 81.76,406 81.96,405.13 81.3,405.07    81.32,404.87 82.2,404.95 82.01,405.81 83.09,405.89 84.56,407.11 84.36,407.76 85.67,407.9 84.69,411.05 83.34,410.96    83.12,411.66 83.07,411.68 81.13,412.45 79.97,412.32  "/>
</g>
<g>
	<polygon class="st0" points="79.72,415.13 75.04,414.6 75.04,413.81 74.07,413.7 74.05,413.67 72.77,412.49 72.77,411.84    71.59,411.73 71.59,409.73 71.78,409.73 71.78,411.55 72.96,411.65 72.96,412.4 74.16,413.5 75.24,413.63 75.24,414.42    79.6,414.91 79.97,414.15 81.05,414.28 82.97,413.51 83.27,412.81 84.61,412.98 85.44,409.97 85.44,408.09 85.64,408.09    85.63,410.01 84.75,413.2 83.39,413.03 83.13,413.67 81.08,414.48 81.05,414.48 80.09,414.37  "/>
</g>
<g>
	<rect x="72.77" y="410.34" class="st0" width="0.2" height="1.4"/>
</g>
<g>
	<rect x="74.1" y="411.59" class="st0" width="0.2" height="1.97"/>
</g>
<g>
	<rect x="75.04" y="412.54" class="st0" width="0.2" height="1.23"/>
</g>
<g>
	<rect x="79.37" y="412.94" class="st0" width="0.2" height="2"/>
</g>
<g>
	<rect x="79.96" y="412.27" class="st0" width="0.2" height="1.96"/>
</g>
<g>
	<rect x="81.02" y="412.35" class="st0" width="0.2" height="1.97"/>
</g>
<g>
	<rect x="82.94" y="411.59" class="st0" width="0.2" height="2.01"/>
</g>
<g>
	<rect x="83.31" y="410.88" class="st0" width="0.2" height="2.03"/>
</g>
<g>
	<rect x="84.52" y="410.95" class="st0" width="0.2" height="2.07"/>
</g>
<g>
	<path class="st0" d="M80.36,410.54l-0.08-0.01L75.97,410l0-0.09l0.04-5.98l0.02,0l0.92-2.88l4.33,0.4l0,6.19L80.36,410.54z    M76.18,409.82l4.02,0.49v-5.89L76.22,404L76.18,409.82z M76.29,403.81l4.1,0.43v5.54l0.7-2.19v-5.96l-3.99-0.37L76.29,403.81z"/>
</g>
<g>
	<polygon class="st0" points="80.39,404.36 80.2,404.3 81.09,401.56 81.28,401.62  "/>
</g>
<g>
	<polygon class="st0" points="152.88,333.17 145.34,329.72 145.42,329.54 152.96,332.99  "/>
</g>
<g>
	<polygon class="st0" points="150.01,335.44 149.89,335.29 154.04,332.08 154.17,332.24  "/>
</g>
<g>
	
		<rect x="145" y="331.39" transform="matrix(0.7959 -0.6055 0.6055 0.7959 -170.8222 156.2922)" class="st0" width="2.77" height="0.2"/>
</g>
<g>
	
		<rect x="174.2" y="309.53" transform="matrix(0.9845 -0.1755 0.1755 0.9845 -51.6049 35.5861)" class="st0" width="2.49" height="0.2"/>
</g>
<g>
	<rect x="227.99" y="93.56" class="st0" width="0.2" height="191.91"/>
</g>
<g>
	<path class="st0" d="M232.61,150.17l-0.01-0.2l22.91-0.82l0-49.75l0,0.1l-20.91,0.32l-2.11,0.39l-0.04-0.04   c-0.03-0.04-3.06-3.7-3.7-4.41c-0.56-0.62-1.17-2.11-0.56-3.65c0.56-1.43,2.31-3.23,7.46-3.72l8.15-0.58l0.03,0.78l11.89,10.72   v50.03L232.61,150.17z M243.6,88.03l-7.94,0.56c-5.05,0.48-6.75,2.21-7.29,3.59c-0.57,1.46,0,2.86,0.53,3.44   c0.6,0.67,3.31,3.95,3.67,4.37l2.01-0.37l20.81-0.32l-11.77-10.62L243.6,88.03z"/>
</g>
<g>
	<rect x="232.43" y="100.1" class="st0" width="0.2" height="186.01"/>
</g>
<g>
	<path class="st0" d="M255.71,172.08l-0.16-0.11c-0.14-0.1-14.36-9.96-23.03-21.84l0.16-0.12c8.16,11.18,21.24,20.57,22.82,21.69   v-22.45h0.2V172.08z"/>
</g>
<g>
	<path class="st0" d="M253.7,202.7c-11.54-7.96-20.29-19.33-21.25-20.61l0.16-0.12c0.96,1.27,9.7,12.62,21.21,20.56L253.7,202.7z"/>
</g>
<g>
	<path class="st0" d="M245.96,204.82c-4.71-4.14-7.76-8.07-8.09-8.51l-5.33,0.08l0-0.2l5.44-0.08l0.03,0.04   c0.03,0.04,3.14,4.16,8.1,8.52L245.96,204.82z"/>
</g>
<g>
	<path class="st0" d="M240.93,206.16c-0.06-0.05-5.52-5.24-8.49-9.82l0.17-0.11c2.96,4.56,8.4,9.73,8.46,9.78L240.93,206.16z"/>
</g>
<g>
	<rect x="237.81" y="188.44" class="st0" width="0.2" height="7.85"/>
</g>
<g>
	<polygon class="st0" points="235.1,231.32 232.5,228.39 232.65,228.26 235.25,231.19  "/>
</g>
<g>
	<polygon class="st0" points="255.61,110.45 255.61,110.25 277.01,109.63 277.14,84.73 277.16,84.7 287.43,73.34 287.58,73.48    277.34,84.81 277.21,109.82 277.11,109.83  "/>
</g>
<g>
	<polygon class="st0" points="254.11,98.11 254.1,97.91 277.2,97.54 277.21,97.74  "/>
</g>
<g>
	<polygon class="st0" points="292.52,68.12 288.64,68.12 288.64,67.05 288.84,67.05 288.84,67.92 292.32,67.92 292.32,42.92    292.52,42.92  "/>
</g>
<g>
	<path class="st0" d="M287.55,81.09V68.88l0.02-0.03l1.07-1.48V2l2.55,3.2l0,0.04l-0.12,30.95l0.56,2.59l3.08-3.16l0.04,0   c0.01,0,1.53-0.05,3.29,0.33c1.64,0.35,3.83,1.15,4.98,2.96c0.52,0.81,0.69,1.61,0.51,2.38c-0.27,1.18-1.27,1.9-1.5,2.06v37.46   L287.55,81.09z M287.75,68.94v11.94l14.09-0.27V43.4l-8.44,0.05l-0.02-0.01l-1.04-0.45l-0.01-0.05l-1.45-6.73l0.12-30.94l-2.15-2.7   v64.86l-0.02,0.03L287.75,68.94z M292.51,42.85l0.93,0.4l8.47-0.05c0.16-0.11,1.17-0.82,1.43-1.95c0.17-0.72,0-1.47-0.48-2.23   c-2.04-3.22-7.53-3.21-8.06-3.2l-3.12,3.2L292.51,42.85z"/>
</g>
<g>
	<polygon class="st0" points="299.79,84.9 298.47,84.61 277.24,84.87 277.24,84.67 298.49,84.41 299.69,84.68 301.85,80.67    302.03,80.77  "/>
</g>
<g>
	<polygon class="st0" points="292.15,310.16 291.99,310.04 303.42,294.91 303.42,40.66 303.62,40.66 303.62,294.98 303.6,295  "/>
</g>
<g>
	<polygon class="st0" points="291.63,313.31 291.57,313.12 306.46,308.26 306.53,308.45  "/>
</g>
<g>
	
		<rect x="304.77" y="272.54" transform="matrix(0.7016 -0.7125 0.7125 0.7016 -104.6555 299.1391)" class="st0" width="0.2" height="3.99"/>
</g>
<g>
	<polygon class="st0" points="306.42,287.2 305.07,285.71 305.07,284.43 303.46,282.91 303.59,282.76 305.27,284.34 305.27,285.63    306.57,287.06  "/>
</g>
<g>
	
		<rect x="303.47" y="284.59" transform="matrix(0.9363 -0.3511 0.3511 0.9363 -80.5843 124.9899)" class="st0" width="1.76" height="0.2"/>
</g>
<g>
	<path class="st0" d="M292.3,265.93l-0.13-0.15c0.02-0.02,2.22-2.02,4.58-5.18c1.94-2.6,2.57-3.72,2.73-4.04l-1.12-0.35l-3.94,0.11   c-0.26,0.34-2.01,2.68-2.11,2.8l-0.16-0.12c0.1-0.12,2.11-2.81,2.13-2.83l0.03-0.04l0.05,0l4.02-0.11l1.37,0.43l-0.04,0.1   c-0.02,0.04-0.43,1.01-2.8,4.18C294.53,263.89,292.32,265.91,292.3,265.93z"/>
</g>
<g>
	<rect x="294.26" y="249.03" class="st0" width="0.2" height="7.18"/>
</g>
<g>
	<rect x="297.96" y="244.43" class="st0" width="0.2" height="11.68"/>
</g>
<g>
	<rect x="299.55" y="242.4" class="st0" width="0.2" height="14.03"/>
</g>
<g>
	<polygon class="st0" points="292.31,251.78 292.15,251.65 299.57,242.41 299.73,242.54  "/>
</g>
<g>
	<path class="st0" d="M292.3,219.82l-0.13-0.15c0.02-0.02,2.22-2.02,4.58-5.18c1.92-2.57,2.55-3.7,2.73-4.03l-1.68-0.35l-3.36,0.09   c-0.26,0.34-2.01,2.68-2.11,2.8l-0.16-0.12c0.1-0.12,2.11-2.81,2.13-2.83l0.03-0.04l3.48-0.09l1.95,0.4l-0.05,0.11   c-0.02,0.04-0.43,1.01-2.8,4.18C294.53,217.79,292.32,219.8,292.3,219.82z"/>
</g>
<g>
	<rect x="294.26" y="202.93" class="st0" width="0.2" height="7.18"/>
</g>
<g>
	<rect x="297.7" y="198.67" class="st0" width="0.2" height="11.34"/>
</g>
<g>
	<rect x="299.55" y="196.29" class="st0" width="0.2" height="14.03"/>
</g>
<g>
	<polygon class="st0" points="291.3,206.92 291.14,206.8 299.57,196.31 299.73,196.43  "/>
</g>
<g>
	<rect x="294.26" y="156.97" class="st0" width="0.2" height="7.18"/>
</g>
<g>
	<rect x="297.7" y="152.6" class="st0" width="0.2" height="11.46"/>
</g>
<g>
	<rect x="299.55" y="150.33" class="st0" width="0.2" height="14.03"/>
</g>
<g>
	<path class="st0" d="M279.09,187.01l-0.01-5.59c0,0,0.01-0.01,0.01-0.01v-8.81l0.04-0.03c8.17-6.58,20.33-22.06,20.45-22.21   l0.16,0.12c-0.12,0.16-12.26,15.61-20.45,22.22v8.51c10.72-10.65,14.95-17.04,15-17.1l0.03-0.04l3.49-0.09l1.99,0.41l-0.09,0.13   c-0.04,0.06-4.28,5.71-7.83,10.05c-2.95,3.6-12.51,12.22-12.61,12.31L279.09,187.01z M279.29,181.48v5.07   c1.29-1.17,9.7-8.82,12.42-12.14c3.25-3.97,7.08-9.06,7.73-9.92l-1.66-0.34l-3.36,0.09C294.03,164.84,289.66,171.2,279.29,181.48z"/>
</g>
<g>
	<path class="st0" d="M266.8,136.24c-7.43,0-11.24-5.94-11.27-6l-0.04-0.07l0.06-0.06l11.26-11.54l0.07,0.07l12.2,11.15l-0.05,0.07   C278.97,129.93,274.22,136.24,266.8,136.24z M255.74,130.2c0.44,0.65,4.17,5.84,11.06,5.84c6.9,0,11.46-5.52,12-6.22l-12-10.96   L255.74,130.2z"/>
</g>
<g>
	<path class="st0" d="M278.88,140.74v-10.94h0.2v10.55c4.9-3.49,10.2-9.32,13.8-13.61c3.59-4.28,6.24-7.91,6.71-8.57l-1.24-0.48   l-21.19,0.63l-4.88,5.39l-0.15-0.13l4.94-5.46l0.04,0l21.27-0.63l1.51,0.58l-0.08,0.1c-0.03,0.04-2.84,3.98-6.79,8.69   c-3.65,4.35-9.03,10.27-13.99,13.76L278.88,140.74z"/>
</g>
<g>
	<rect x="298.27" y="84.51" class="st0" width="0.2" height="33.08"/>
</g>
<g>
	
		<rect x="303.5" y="247.6" transform="matrix(0.9467 -0.3221 0.3221 0.9467 -63.5279 111.4252)" class="st0" width="2.95" height="0.2"/>
</g>
<g>
	<path class="st0" d="M303.55,192.13l-0.05-0.19c0.35-0.09,2.66-1.05,2.68-1.06l0.08,0.18C306.17,191.1,303.92,192.04,303.55,192.13   z"/>
</g>
<g>
	<path class="st1" d="M303.49,168.58"/>
</g>
<g>
	<polygon class="st0" points="308.88,174.11 303.42,168.65 303.56,168.51 309.02,173.97  "/>
</g>
<g>
	<polygon class="st0" points="439.09,191.7 438.88,109.8 434.9,105.79 413.92,113.05 413.87,113.01 392.91,92.09 362.64,102.54    362.64,149.95 361.27,150.46 361.2,150.27 362.44,149.81 362.44,102.4 362.51,102.38 392.97,91.86 393.01,91.91 413.97,112.82    434.95,105.56 435,105.6 439.08,109.71 439.08,109.75 439.29,191.7  "/>
</g>
<g>
	<polygon class="st0" points="408.68,120.25 408.64,120.2 387.77,99.4 366.53,106.43 366.48,106.39 362.47,102.55 362.61,102.4    366.58,106.2 387.82,99.17 387.86,99.22 408.73,120.02 438.95,109.66 439.01,109.85  "/>
</g>
<g>
	
		<rect x="375.03" y="104.38" transform="matrix(0.9035 -0.4285 0.4285 0.9035 -17.1257 172.7539)" class="st0" width="0.2" height="40.06"/>
</g>
<g>
	<polygon class="st0" points="387.83,142.37 387.76,142.18 404.98,136.28 387.7,99.33 387.88,99.25 405.26,136.4  "/>
</g>
<g>
	<polygon class="st0" points="374.19,283.86 374.15,283.82 362.47,272.24 362.61,272.1 374.25,283.63 412.15,271.06 412.1,167.06    387,141.38 362.57,149.97 362.51,149.78 387.06,141.15 387.1,141.2 412.3,166.98 412.3,167.02 412.35,271.2 412.28,271.22  "/>
</g>
<g>
	<polygon class="st0" points="374.12,283.75 374,179.88 362.67,168.71 362.81,168.57 374.2,179.79 374.2,179.83 374.32,283.75  "/>
</g>
<g>
	<polygon class="st0" points="374.13,179.93 374.06,179.74 412.17,166.92 412.24,167.11  "/>
</g>
<g>
	<polygon class="st0" points="370.6,284.62 370.56,284.57 362.67,276.49 362.82,276.35 370.65,284.38 373.64,283.12 373.72,283.31     "/>
</g>
<g>
	<polygon class="st0" points="370.56,287.88 370.52,287.83 362.77,279.94 362.91,279.8 370.62,287.65 408.93,274.62 408.94,272.33    409.14,272.33 409.13,274.77 409.06,274.79  "/>
</g>
<g>
	<rect x="370.53" y="284.5" class="st0" width="0.2" height="3.15"/>
</g>
<g>
	<polygon class="st0" points="368.02,287.46 362.67,282.05 362.82,281.91 368.08,287.23 369.65,286.74 369.71,286.93  "/>
</g>
<g>
	<polygon class="st0" points="367.99,290.83 362.67,285.4 362.82,285.26 368.04,290.6 406.24,277.74 406.24,275.61 406.44,275.61    406.44,277.88 406.37,277.9  "/>
</g>
<g>
	<rect x="367.95" y="287.35" class="st0" width="0.2" height="3.36"/>
</g>
<g>
	<polygon class="st0" points="367.52,292.43 367.47,292.39 362.67,287.55 362.82,287.41 367.57,292.2 402.69,280.07 402.75,280.26     "/>
</g>
<g>
	<polygon class="st0" points="367.39,295.57 367.35,295.53 362.77,291.06 362.91,290.92 367.45,295.35 400.76,284.11 400.82,284.3     "/>
</g>
<g>
	<rect x="367.45" y="292.31" class="st0" width="0.2" height="3.15"/>
</g>
<g>
	<polygon class="st0" points="368.88,299.7 368.84,299.66 362.77,293.68 362.91,293.53 368.93,299.47 398.6,289.35 398.66,289.54     "/>
</g>
<g>
	<polygon class="st0" points="369.01,296.49 367.95,295.4 368.09,295.26 369.06,296.26 399.95,285.56 400.02,285.75  "/>
</g>
<g>
	<rect x="368.94" y="296.38" class="st0" width="0.2" height="3.21"/>
</g>
<g>
	<polygon class="st0" points="371.37,303.57 362.77,295.05 362.91,294.91 371.42,303.34 386.44,298.13 386.51,298.32  "/>
</g>
<g>
	<polygon class="st0" points="371.45,300.25 370.41,299.13 370.56,298.99 371.5,300.01 398.6,290.63 398.66,290.82  "/>
</g>
<g>
	<rect x="371.38" y="300.13" class="st0" width="0.2" height="3.24"/>
</g>
<g>
	<polygon class="st0" points="396.26,304.96 396.23,304.96 390.56,303.79 390.54,303.76 386.03,299.24 387.26,296.18 387.3,296.17    395.36,293.37 395.38,293.37 398.65,293.91 398.61,294.11 395.37,293.58 387.41,296.34 386.26,299.2 390.66,303.6 396.24,304.75    398.59,303.88 398.66,304.07  "/>
</g>
<g>
	<path class="st0" d="M419.85,297.18l-0.02,0l-14.97-2.28l-0.02-0.02l-6.41-6.09l4.57-9.33l0.04-0.01l10.13-3.11l0.02,0l12.09,1.94   v1.97l4.62,5.05l3.24,1.17l-0.04,0.1l-2.98,7.1l-0.04,0.01L419.85,297.18z M404.95,294.71l14.89,2.26l10.14-3.48l2.9-6.92   l-3.1-1.13l-4.69-5.13v-1.88l-11.9-1.91l-10.05,3.08l-4.47,9.12L404.95,294.71z"/>
</g>
<g>
	<polygon class="st0" points="374.08,349.11 374.08,348.97 374.04,304.02 373.08,303.07 373.22,302.93 374.24,303.94 374.24,303.98    374.28,348.84 386.17,345.13 386.23,345.32  "/>
</g>
<g>
	
		<rect x="373.79" y="301.82" transform="matrix(0.9467 -0.3221 0.3221 0.9467 -76.9851 138.5299)" class="st0" width="12.73" height="0.2"/>
</g>
<g>
	<polygon class="st0" points="391.93,388.79 390.54,388.35 386.13,383.96 386.13,383.91 386.05,299.22 386.25,299.22 386.33,383.87    390.67,388.19 391.99,388.6  "/>
</g>
<g>
	<polygon class="st0" points="374.24,357.19 374.33,353 368.93,354.81 368.93,354.68 368.94,350.66 374.05,348.93 362.64,337.49    362.78,337.35 374.42,349.02 369.14,350.8 369.13,354.54 374.53,352.72 374.45,356.91 386.17,353.07 386.23,353.26  "/>
</g>
<g>
	
		<rect x="365.82" y="343.38" transform="matrix(0.6947 -0.7193 0.7193 0.6947 -138.3999 369.3586)" class="st0" width="0.2" height="8.68"/>
</g>
<g>
	<polygon class="st0" points="368.95,354.81 362.65,348.67 362.79,348.53 369.09,354.66  "/>
</g>
<g>
	<polygon class="st0" points="374.24,357.17 371.13,354.02 371.28,353.88 374.39,357.03  "/>
</g>
<g>
	<polygon class="st0" points="373.3,358.98 369.04,354.77 369.19,354.62 373.35,358.75 386.17,354.36 386.24,354.55  "/>
</g>
<g>
	<rect x="373.23" y="358.87" class="st0" width="0.2" height="9.59"/>
</g>
<g>
	<polygon class="st0" points="373.3,368.57 373.26,368.53 362.43,358 362.57,357.85 373.35,368.34 386.15,363.86 386.22,364.05  "/>
</g>
<g>
	<rect x="405.02" y="136.34" class="st0" width="0.2" height="23.46"/>
</g>
<g>
	<rect x="408.57" y="120.13" class="st0" width="0.2" height="43.17"/>
</g>
<g>
	<polygon class="st0" points="410.81,109.87 410.74,109.68 417.49,107.31 434.92,105.58 434.94,105.77 417.53,107.5  "/>
</g>
<g>
	<polygon class="st0" points="412.24,201.05 412.17,200.86 448.7,188.34 448.74,188.39 454.72,194.65 454.57,194.78 448.64,188.57     "/>
</g>
<g>
	<polygon class="st0" points="465.28,205.7 457.09,197.32 457.23,197.18 465.43,205.56  "/>
</g>
<g>
	<polygon class="st0" points="461.73,204.9 457.15,200.28 457.29,200.14 461.87,204.76  "/>
</g>
<g>
	<polygon class="st0" points="412.32,203.36 412.26,203.17 448.19,190.86 448.23,190.9 454.72,197.56 454.57,197.7 448.13,191.09     "/>
</g>
<g>
	<polygon class="st0" points="412.29,211.26 412.22,211.07 416.08,209.62 416.15,209.81  "/>
</g>
<g>
	<polygon class="st0" points="432.03,229.12 431.99,229.08 415.89,212.93 415.89,204.35 415.95,204.33 443.87,194.84 453.36,204.31    453.21,204.45 443.82,195.07 416.09,204.5 416.09,212.84 432.09,228.89 435.76,227.76 435.82,227.95  "/>
</g>
<g>
	<polygon class="st0" points="432.11,220.72 432.07,220.68 415.92,204.5 416.06,204.36 432.17,220.5 435.92,219.21 435.99,219.39     "/>
</g>
<g>
	<rect x="432.04" y="220.61" class="st0" width="0.2" height="8.4"/>
</g>
<g>
	<polygon class="st0" points="430.46,232.9 430.42,232.86 412.22,214.87 412.36,214.72 430.52,232.67 435.93,231.02 435.99,231.21     "/>
</g>
<g>
	<polygon class="st0" points="427.63,236.38 427.59,236.33 412.22,220.93 412.36,220.78 427.69,236.15 435.93,233.59 435.98,233.78     "/>
</g>
<g>
	<polygon class="st0" points="426.73,238.4 426.68,238.35 412.16,223.89 412.3,223.74 426.78,238.17 435.92,235.3 435.99,235.49     "/>
</g>
<g>
	<polygon class="st0" points="427.74,236.33 427.58,236.2 430.41,232.72 430.57,232.85  "/>
</g>
<g>
	
		<rect x="443.87" y="194.06" transform="matrix(0.2882 -0.9576 0.9576 0.2882 132.3757 566.4182)" class="st0" width="6.66" height="0.2"/>
</g>
<g>
	<rect x="429.25" y="237.56" class="st0" width="0.2" height="18.8"/>
</g>
<g>
	<polygon class="st0" points="435.07,266.31 429.79,265.66 429.77,265.64 425.07,260.61 425.09,260.56 426.21,257.35 435.03,254.4    435.09,254.59 426.36,257.51 425.3,260.57 429.89,265.47 435.09,266.12  "/>
</g>
<g>
	<rect x="425.08" y="260.59" class="st0" width="0.2" height="17.77"/>
</g>
<g>
	<rect x="429.74" y="265.57" class="st0" width="0.2" height="19.72"/>
</g>
<g>
	<rect x="441.29" y="223.36" class="st0" width="0.2" height="27.38"/>
</g>
<g>
	<rect x="435.85" y="217.28" class="st0" width="0.2" height="35.35"/>
</g>
<g>
	<path class="st0" d="M453.38,446.45l-0.04-0.04L435,428.27v-0.04l-0.12-175.25l0.07-0.02l4.11-1.48h-0.04v-29.14l0.07-0.02l8.3-2.8   l-0.02,1.96l-0.07,0.02l-5.61,1.94l17.17,16.69v0.04l-0.04,22.34l-13.36-13.13l-10.29,3.71l18.51,18.23v0.04l0.05,154.61l0.9-0.3   v20.37L453.38,446.45z M435.19,428.19l18.24,18.03l0.98-0.33v-19.95l-0.9,0.3v-0.14l-0.05-154.71l-18.4-18.11L435.19,428.19z    M445.5,249.15l0.04,0.04l13.06,12.84l0.04-21.82l-17.34-16.86l5.86-2.02l0.02-1.54l-7.97,2.68v28.94L445.5,249.15z"/>
</g>
<g>
	<polygon class="st0" points="453.55,426.17 435.01,407.82 435.15,407.68 453.69,426.03  "/>
</g>
<g>
	<polygon class="st0" points="434.9,404.33 418.35,387.67 435.15,381.84 435.21,382.02 418.72,387.75 435.04,404.19  "/>
</g>
<g>
	<polygon class="st0" points="458.67,454.32 418.44,414.14 418.44,387.71 418.64,387.71 418.64,414.05 458.81,454.18  "/>
</g>
<g>
	<polygon class="st0" points="417.34,403.42 417.3,403.37 414.16,400.33 407.96,399.38 407.93,399.36 391.96,383.51 391.98,383.45    393.49,379.02 396.13,379.33 398.6,378.46 398.66,378.65 396.16,379.53 396.13,379.53 393.63,379.24 392.19,383.45 408.05,399.2    414.25,400.14 414.28,400.16 417.39,403.19 418.63,402.8 418.69,402.99  "/>
</g>
<g>
	<polygon class="st0" points="417.35,409.55 414.16,406.24 407.85,405.27 407.82,405.25 391.98,389.57 391.98,383.48 392.18,383.48    392.18,389.48 407.94,405.08 414.25,406.06 417.4,409.32 418.62,408.9 418.69,409.08  "/>
</g>
<g>
	<rect x="398.27" y="395.75" class="st0" width="0.2" height="2.56"/>
</g>
<g>
	<rect x="404.24" y="401.66" class="st0" width="0.2" height="2.6"/>
</g>
<g>
	<polygon class="st0" points="407.73,405.12 404.45,404.69 404.48,404.49 407.75,404.92  "/>
</g>
<g>
	<polygon class="st0" points="402.88,403.21 401.25,401.63 401.39,401.49 403.02,403.06  "/>
</g>
<g>
	<rect x="407.9" y="399.29" class="st0" width="0.2" height="5.88"/>
</g>
<g>
	<rect x="414.11" y="400.23" class="st0" width="0.2" height="5.92"/>
</g>
<g>
	<rect x="417.27" y="403.3" class="st0" width="0.2" height="5.98"/>
</g>
<g>
	<polygon class="st0" points="418.44,396.56 404.64,394.55 404.62,394.53 398.48,388.3 398.48,388.26 398.45,288.77 398.64,288.77    398.68,388.22 404.74,394.37 418.46,396.36  "/>
</g>
<g>
	<rect x="404.59" y="294.88" class="st0" width="0.2" height="99.58"/>
</g>
<g>
	<rect x="419.87" y="297.08" class="st0" width="0.2" height="90.11"/>
</g>
<g>
	<rect x="429.95" y="293.58" class="st0" width="0.2" height="90.09"/>
</g>
<g>
	<rect x="432.91" y="286.52" class="st0" width="0.2" height="95.95"/>
</g>
<g>
	<rect x="390.51" y="303.69" class="st0" width="0.2" height="84.59"/>
</g>
<g>
	<rect x="395.95" y="304.83" class="st0" width="0.2" height="74.6"/>
</g>
<g>
	
		<rect x="456.01" y="422.03" transform="matrix(0.6929 -0.721 0.721 0.6929 -166.6785 459.5141)" class="st0" width="0.2" height="6.81"/>
</g>
<g>
	<polygon class="st0" points="495.71,418.08 495.51,418.08 495.52,368.33 499.87,359.87 500.05,359.96 495.71,368.4  "/>
</g>
<g>
	<polygon class="st0" points="492.27,370.69 492.1,370.58 493.74,368.01 493.91,368.12  "/>
</g>
<g>
	<rect x="498.68" y="356.88" class="st0" width="0.2" height="2.73"/>
</g>
<g>
	<path class="st0" d="M479.29,486.76l-0.01,0l-19.14-3.67l0.04-1.08l-1.5-0.18v-0.09l-0.13-63.36l-1.05-0.34l0-0.07   c0-0.47,0.2-47.42,0.07-48.14l0,0c0.02-0.16,0.58-1.01,5.36-8.07c2.69-3.98,5.39-7.95,5.39-7.95l0.04-0.05l1.26,0.19l1.12-1.63   l0.06,0.01l28.14,4.47l-1.41,2.51l2.53,0.52v0.08l0.2,48.26l-0.01,0.02l-4.58,10l-2.01-0.36l0-0.08l0.1-49.7l1.86,0.24l-0.03,0.2   l-1.64-0.21l-0.1,49.39l1.69,0.31l4.51-9.84l-0.2-48.13l-2.64-0.54l1.41-2.5l-27.79-4.41l-1.12,1.63l-1.26-0.19   c-3.48,5.13-9.91,14.6-10.63,15.75l2.61,0.44l-0.96,1.91l17.79,3.23l0.4-0.77l0.07,0l3.55,0.25v0.09l0.05,111.62L479.29,486.76z    M460.34,482.93l18.96,3.63l1.82-0.22l-0.05-111.35l-3.3-0.23l-0.41,0.78l-0.07-0.01l-18.13-3.29l0.96-1.91l-2.37-0.4   c0.05,0.77,0.08,4.56,0.02,24c-0.03,11.48-0.08,22.96-0.08,23.98l1.05,0.34v0.07l0.13,63.34l1.51,0.18L460.34,482.93z"/>
</g>
<g>
	<rect x="479.19" y="374.81" class="st0" width="0.2" height="111.85"/>
</g>
<g>
	<polygon class="st0" points="477.38,423.73 477.32,423.72 459.17,420.46 459.17,372.11 459.37,372.11 459.37,420.29 477.29,423.52    477.71,422.92 477.71,374.66 477.91,374.66 477.91,422.98  "/>
</g>
<g>
	<rect x="460.18" y="420.63" class="st0" width="0.2" height="61.3"/>
</g>
<g>
	<polygon class="st0" points="492.64,482.59 492.64,482.38 492.62,372.49 492.82,372.49 492.84,482.17 494.43,480.9 512.2,474.67    513.17,475.49 519.4,472.03 521.62,457.31 521.62,436.7 508.26,423.61 508.26,423.57 508.3,422.13 498.87,413.05 499.01,412.91    508.51,422.04 508.51,422.09 508.46,423.53 521.82,436.61 521.82,457.32 519.58,472.16 513.15,475.73 512.16,474.9 494.51,481.09     "/>
</g>
<g>
	<polygon class="st0" points="494.44,481.17 494.24,481.17 494.25,456.11 497.54,449.24 498.95,445.26 498.95,410.88 499.15,410.88    499.14,445.31 497.73,449.32 494.44,456.17  "/>
</g>
<g>
	<polygon class="st0" points="519.46,472.27 519.26,472.27 519.26,447.63 494.37,456.24 494.3,456.05 519.46,447.35  "/>
</g>
<g>
	<path class="st0" d="M519.46,447.51l-0.2-0.04c0.12-0.68,2.21-10.56,2.23-10.66l0.2,0.04   C521.67,436.95,519.58,446.84,519.46,447.51z"/>
</g>
<g>
	<polygon class="st0" points="513.36,442.14 513.4,440.06 498.98,425.96 499.12,425.82 513.6,439.97 513.56,441.86 520.82,439.59    520.88,439.78  "/>
</g>
<g>
	
		<rect x="498.58" y="442.55" transform="matrix(0.9395 -0.3425 0.3425 0.9395 -120.9929 200.1897)" class="st0" width="15.38" height="0.2"/>
</g>
<g>
	
		<rect x="499.71" y="425.21" transform="matrix(0.9432 -0.3323 0.3323 0.9432 -112.6844 191.7007)" class="st0" width="8.87" height="0.2"/>
</g>
<g>
	<polygon class="st0" points="499.08,425.58 499.01,425.4 508.25,422.17 508.31,422.36  "/>
</g>
<g>
	<polygon class="st0" points="512.15,474.96 511.95,474.96 512.04,470.47 513.29,471.48 517.39,469.12 517.39,469.29 517.41,473.42    517.21,473.42 517.19,469.47 513.27,471.72 512.23,470.88  "/>
</g>
<g>
	<rect x="513.18" y="471.6" class="st0" width="0.2" height="4.01"/>
</g>
<g>
	<path class="st0" d="M486.21,488.65c-4.01,0-5.04-2.08-5.09-2.18l0.18-0.09c0.01,0.03,1.29,2.59,6.49,1.97   c2.11-0.25,3.62-0.89,4.37-1.85c0.58-0.75,0.5-1.45,0.5-1.46l-0.01-2.79l0.2,0l0.01,2.78c0,0.02,0.1,0.77-0.54,1.59   c-0.79,1.02-2.31,1.67-4.51,1.94C487.24,488.62,486.7,488.65,486.21,488.65z"/>
</g>
<g>
	<path class="st0" d="M486.96,375.77c-0.35,0-0.71-0.02-1.1-0.05c-2.81-0.26-4.15-1.21-4.78-1.97c-0.69-0.83-0.71-1.6-0.71-1.63   l0-0.12l6.46,1.11l2.46-4.31l0.08,0.02c0.04,0.01,3.86,1.11,3.44,3.68C492.7,373.2,491.3,375.77,486.96,375.77z M480.59,372.23   c0.03,0.24,0.16,0.81,0.66,1.4c0.61,0.73,1.9,1.64,4.64,1.89c2.68,0.24,4.31-0.46,5.21-1.09c1.11-0.78,1.48-1.68,1.52-1.96   c0.36-2.2-2.7-3.27-3.23-3.44l-2.45,4.29L480.59,372.23z"/>
</g>
<g>
	<path class="st0" d="M481.11,374.98c-0.56-0.33-0.74-1.22-0.74-1.61v-1.27h0.2v1.27c0,0.33,0.16,1.15,0.64,1.43L481.11,374.98z"/>
</g>
<g>
	<polygon class="st0" points="480.46,373.48 462.67,369.9 462.67,366.6 462.69,366.58 471.37,353.79 471.43,353.8 494.78,357.62    494.71,357.74 487.03,371.31 486.99,373.22 486.79,373.22 486.84,371.23 494.46,357.77 471.46,354.01 462.87,366.66 462.87,369.73    480.5,373.28  "/>
</g>
<g>
	<polygon class="st0" points="486.91,371.38 462.75,366.73 462.79,366.53 486.95,371.19  "/>
</g>
<g>
	<polygon class="st0" points="489.94,369.14 489.76,369.04 494.65,359.89 494.65,357.62 494.85,357.62 494.84,359.96  "/>
</g>
<g>
	<path class="st0" d="M458.78,240.26l-0.06-0.19l14.66-4.88l-12.12-11.92v-2.04l5.05,4.8l-0.08,1.84l7.53,7.4l-0.16,0.05   L458.78,240.26z M461.45,223.18l4.58,4.5l0.06-1.57l-4.64-4.42V223.18z"/>
</g>
<g>
	<polygon class="st0" points="458.78,262.48 458.71,262.29 473.55,257.14 473.55,235.27 473.75,235.27 473.75,257.28 473.69,257.3     "/>
</g>
<g>
	<polygon class="st0" points="453.61,271.45 453.54,271.26 484.36,260.42 475.01,251 473.69,251.43 473.62,251.24 475.06,250.77    475.11,250.81 484.72,260.5 484.58,260.55  "/>
</g>
<g>
	<rect x="484.44" y="260.46" class="st0" width="0.2" height="94.15"/>
</g>
<g>
	<rect x="476.03" y="216.2" class="st0" width="0.2" height="35.58"/>
</g>
<g>
	<path class="st0" d="M466.23,226.16l-0.06-0.19c6.08-2.08,9.86-5.92,9.86-10c0-6.18-8.34-11.28-18.99-11.59l0.01-0.2   c10.76,0.32,19.19,5.5,19.19,11.79C476.23,220.15,472.4,224.05,466.23,226.16z"/>
</g>
<g>
	<path class="st0" d="M439.17,222.55c-2.24-1.95-3.43-4.22-3.43-6.58c0-6.2,8.3-11.38,18.89-11.78l0.01,0.2   c-10.49,0.4-18.7,5.49-18.7,11.58c0,2.3,1.16,4.52,3.36,6.43L439.17,222.55z"/>
</g>
<g>
	<path class="st0" d="M455.97,224.11c-3.57,0-6.88-1.06-8.86-2.83l0.13-0.15c1.94,1.74,5.21,2.78,8.72,2.78   c1.89,0,3.74-0.3,5.35-0.87l0.07,0.19C459.75,223.8,457.88,224.11,455.97,224.11z"/>
</g>
<g>
	<path class="st0" d="M455.97,218.43c-3.57,0-6.88-1.06-8.86-2.83l0.13-0.15c1.94,1.74,5.21,2.78,8.72,2.78   c5.76,0,10.44-2.77,10.44-6.17c0-3.14-3.98-5.77-9.26-6.13l0.01-0.2c5.38,0.36,9.44,3.08,9.44,6.33   C466.61,215.57,461.83,218.43,455.97,218.43z"/>
</g>
<g>
	<path class="st0" d="M447.11,215.6c-1.17-1.05-1.78-2.27-1.78-3.53c0-3.24,4.06-5.96,9.44-6.33l0.01,0.2   c-5.27,0.35-9.25,2.99-9.25,6.13c0,1.21,0.59,2.38,1.72,3.38L447.11,215.6z"/>
</g>
<g>
	<path class="st0" d="M447.24,219.66c-1.67-1.23-1.91-2.86-1.92-2.93v-4.67h0.2v4.65c0,0,0.23,1.61,1.83,2.78L447.24,219.66z"/>
</g>
<g>
	<path class="st0" d="M461.32,221.36l-0.05-0.19c0.02-0.01,2.35-0.63,3.89-2.1c1.15-1.1,1.24-2.82,1.24-3.32v-3.47h0.2v3.47   c0,0.52-0.09,2.31-1.3,3.46C463.72,220.71,461.34,221.35,461.32,221.36z"/>
</g>
<g>
	<path class="st0" d="M455.97,212.75c-0.52,0-0.89-0.11-1.11-0.34c-0.2-0.2-0.19-0.42-0.19-0.43v-36.63h0.2v36.63   c0,0.01,0,0.15,0.14,0.29c0.18,0.18,0.51,0.28,0.96,0.28c0.6,0,0.87-0.14,0.99-0.26c0.11-0.11,0.11-0.21,0.11-0.22v-36.82h0.2   v36.82c0,0.02,0,0.18-0.16,0.35C456.89,212.63,456.51,212.75,455.97,212.75z"/>
</g>
<g>
	<path class="st0" d="M455.96,176.1c-0.73,0-1.3-0.38-1.3-0.86s0.57-0.86,1.3-0.86s1.3,0.38,1.3,0.86S456.69,176.1,455.96,176.1z    M455.96,174.58c-0.6,0-1.1,0.3-1.1,0.66c0,0.36,0.51,0.66,1.1,0.66s1.1-0.3,1.1-0.66C457.06,174.88,456.56,174.58,455.96,174.58z"/>
</g>
<g>
	<polygon class="st0" points="450.51,204.76 443.74,197.91 443.74,194.95 443.94,194.95 443.94,197.83 450.66,204.62  "/>
</g>
<g>
	<polygon class="st0" points="418.28,206.79 418.22,206.6 443.81,197.78 443.87,197.97  "/>
</g>
<g>
	<rect x="234.5" y="99.73" class="st0" width="0.2" height="50.34"/>
</g>
<g>
	<rect x="234.5" y="184.63" class="st0" width="0.2" height="11.66"/>
</g>
<g>
	<rect x="249.34" y="398.77" class="st2" width="0.5" height="8.38"/>
</g>
<g>
	<path class="st2" d="M256.97,408.43c-1.2,0-2.6-0.12-4.23-0.44c-5.58-1.09-12.43-2.4-12.43-2.4l0.09-0.49c0,0,6.85,1.3,12.43,2.4   c5.03,0.99,7.69,0.08,9.45-0.51c0.17-0.06,0.33-0.11,0.47-0.16c1.5-0.48,5.42-1.72,6.35-2.02l-0.2-1.33l-19.38-4.68l0.12-0.49   l19.55,4.72l0.19,0.21l0.25,1.71l-0.17,0.28c0,0-4.85,1.53-6.55,2.08c-0.15,0.05-0.3,0.1-0.47,0.16   C261.29,407.85,259.58,408.43,256.97,408.43z"/>
</g>
<g>
	<polygon class="st2" points="263.84,406.87 249.94,403.4 247.94,406.76 247.51,406.5 249.6,402.98 249.88,402.87 263.97,406.39     "/>
</g>
<g>
	
		<rect x="264.23" y="390.14" transform="matrix(0.9447 -0.3279 0.3279 0.9447 -113.2676 109.0508)" class="st3" width="5.01" height="0.5"/>
</g>
<g>
	<polygon class="st3" points="255.29,374.02 255.13,373.55 269.42,368.54 269.58,369.01  "/>
</g>
<g>
	<polygon class="st3" points="262.59,391.01 262.55,385.89 256.81,378.44 255.07,377.31 255.34,376.89 257.18,378.11 263,385.65    263.05,385.8 263.09,391.01  "/>
</g>
<g>
	<polygon class="st2" points="269.18,392.62 255.34,389.43 255.45,388.94 269.29,392.13  "/>
</g>
<g>
	<polygon class="st3" points="262.79,389.04 255.34,387.43 255.45,386.94 262.83,388.54 269.06,386.34 269.22,386.81 262.92,389.04     "/>
</g>
<g>
	<polygon class="st3" points="262.74,386.05 257.13,384.68 255.35,385.26 255.19,384.78 257.04,384.18 257.18,384.18 262.78,385.54    269.05,383.18 269.23,383.65 262.89,386.04  "/>
</g>
<g>
	<polygon class="st3" points="260.02,382.04 256.78,381.62 256.84,381.13 260.03,381.54 269.06,378.41 269.22,378.88  "/>
</g>
<g>
	
		<rect x="254.81" y="376.24" transform="matrix(0.9461 -0.3238 0.3238 0.9461 -107.7889 105.2006)" class="st3" width="14.82" height="0.5"/>
</g>
<g>
	<rect x="256.8" y="378.26" class="st3" width="0.5" height="6.16"/>
</g>
<g>
	<polygon class="st3" points="255.31,382.18 255.17,381.69 256.98,381.17 257.12,381.65  "/>
</g>
<g>
	<rect x="304.26" y="426.97" class="st4" width="0.5" height="4.85"/>
</g>
<g>
	
		<rect x="266.84" y="408.33" transform="matrix(0.1759 -0.9844 0.9844 0.1759 -193.9523 609.5767)" class="st4" width="0.5" height="24.59"/>
</g>
<g>
	
		<rect x="240.28" y="401.2" transform="matrix(0.1759 -0.9844 0.9844 0.1759 -211.1688 579.522)" class="st2" width="0.5" height="29.37"/>
</g>
<g>
	
		<rect x="224.86" y="387.07" transform="matrix(0.1767 -0.9843 0.9843 0.1767 -225.7107 565.3564)" class="st2" width="0.5" height="61.07"/>
</g>
<g>
	<path class="st4" d="M304.29,432.08l-0.06-0.01l-49.11-8.82l0.09-0.49l49.04,8.81c1.28-0.44,21.57-7.46,23.04-7.94   c1.71-0.56,1.67-1.44,1.63-2.23c0-0.11-0.01-0.21-0.01-0.31c0-0.59-0.04-2.59-0.04-2.6l0.5-0.01c0,0,0.04,2.01,0.04,2.6   c0,0.09,0,0.19,0.01,0.29c0.04,0.82,0.09,2.05-1.98,2.73c-1.5,0.49-22.88,7.88-23.09,7.96L304.29,432.08z"/>
</g>
<g>
	<path class="st2" d="M191.17,439.32l0.01-9.32l1.81-5.06v-9.57l1.81-3.23l0.07-3.8c0.09-0.17,9.15-17.14,9.85-18.47   c0.73-1.4,2.48-2.37,2.56-2.41l0.24,0.44c-0.02,0.01-1.7,0.94-2.36,2.2c-0.67,1.29-9.25,17.35-9.82,18.42l-0.08,3.8l-1.77,3.17   l-0.01,9.57l-1.81,5.06v8.6c0.89-0.15,3.6-0.59,4.59-0.77c1.26-0.23,3.29-0.61,5.5-3.47c2.25-2.92,4.59-6.8,4.61-6.84l0.43,0.26   c-0.02,0.04-2.37,3.94-4.64,6.89c-2.32,3.01-4.56,3.43-5.76,3.65c-1.22,0.23-4.89,0.82-4.93,0.83L191.17,439.32z"/>
</g>
<g>
	<rect x="213.98" y="411.81" class="st2" width="0.5" height="3.79"/>
</g>
<g>
	
		<rect x="276.79" y="408.38" transform="matrix(0.1794 -0.9838 0.9838 0.1794 -196.379 626.0049)" class="st4" width="0.5" height="44.67"/>
</g>
<g>
	
		<rect x="223.91" y="389.65" transform="matrix(0.1794 -0.9838 0.9838 0.1794 -230.2913 566.0648)" class="st2" width="0.5" height="62.84"/>
</g>
<g>
	
		<rect x="276.45" y="411.93" transform="matrix(0.1792 -0.9838 0.9838 0.1792 -199.7863 628.3881)" class="st4" width="0.5" height="43.99"/>
</g>
<g>
	
		<rect x="223.91" y="392.94" transform="matrix(0.1792 -0.9838 0.9838 0.1792 -233.4996 568.837)" class="st2" width="0.5" height="62.83"/>
</g>
<g>
	
		<rect x="276.5" y="415.19" transform="matrix(0.1787 -0.9839 0.9839 0.1787 -202.8018 631.3415)" class="st4" width="0.5" height="43.9"/>
</g>
<g>
	
		<rect x="223.95" y="396.14" transform="matrix(0.1787 -0.9839 0.9839 0.1787 -236.5751 571.8011)" class="st2" width="0.5" height="62.91"/>
</g>
<g>
	
		<rect x="276.72" y="418.04" transform="matrix(0.1766 -0.9843 0.9843 0.1766 -205.2515 635.0826)" class="st4" width="0.5" height="44.37"/>
</g>
<g>
	
		<rect x="223.91" y="399.28" transform="matrix(0.1766 -0.9843 0.9843 0.1766 -239.4036 575.3068)" class="st2" width="0.5" height="62.93"/>
</g>
<g>
	<path class="st2" d="M191.44,430.46l-0.03-0.5c0.04,0,3.69-0.18,4.85-0.47c1.57-0.38,2.98-1.34,4.45-3.01l0.38,0.33   c-1.54,1.75-3.04,2.76-4.71,3.17C195.18,430.28,191.59,430.46,191.44,430.46z"/>
</g>
<g>
	<path class="st2" d="M191.46,434.74l-0.07-0.5c0,0,2.99-0.41,4.48-0.6c2.38-0.31,3.95-1.12,5.08-2.61   c1.06-1.39,2.82-4.02,2.83-4.05l0.42,0.28c-0.02,0.03-1.79,2.67-2.85,4.07c-1.59,2.08-3.85,2.6-5.42,2.8   C194.45,434.34,191.46,434.74,191.46,434.74z"/>
</g>
<g>
	<rect x="200.9" y="426.62" class="st2" width="0.5" height="8.96"/>
</g>
<g>
	<path class="st5" d="M338.92,408.07c-2.68,0-5.52-0.27-8.19-2.22l0.29-0.4c2.55,1.87,5.3,2.12,7.9,2.12   c3.14,0,57.78-0.62,61.95-0.67v-5.31l-38.62-38.33l0.35-0.35l38.77,38.48v6.01l-0.25,0C400.53,407.4,342.17,408.07,338.92,408.07z"/>
</g>
<g>
	<path class="st5" d="M338.56,402.49c-4.11,0-5.91-0.97-7.83-2.22l0.28-0.42c1.9,1.25,3.66,2.19,7.91,2.14   c1.34-0.02,62.19-0.76,62.19-0.76l0.01,0.5c0,0-60.86,0.74-62.19,0.76C338.8,402.49,338.68,402.49,338.56,402.49z"/>
</g>
<g>
	<path class="st5" d="M338.56,413.98c-4.11,0-5.92-0.97-7.83-2.22l0.28-0.42c1.9,1.25,3.67,2.18,7.91,2.14   c0.1,0,0.53-0.01,1.26-0.02c3.8-0.08,15.37-0.31,27.1-0.46l0.01,0.5c-11.73,0.14-23.29,0.38-27.09,0.46   c-0.72,0.01-1.16,0.02-1.26,0.02C338.8,413.97,338.68,413.98,338.56,413.98z"/>
</g>
<g>
	<path class="st5" d="M338.15,419.39c-4.11,0-5.92-0.97-7.83-2.22l0.28-0.42c1.89,1.25,3.68,2.17,7.91,2.14   c0.39-0.01,14.07-0.25,14.07-0.25l0.01,0.5c0,0-13.68,0.24-14.07,0.25C338.39,419.39,338.27,419.39,338.15,419.39z"/>
</g>
<g>
	<g>
		<polygon class="st5" points="343.64,390.97 347.44,383.57 347.89,383.8 344.46,390.46 363.4,390.04 367.65,382.47 358.84,373.76     359.19,373.4 368.27,382.38 363.69,390.53 363.55,390.53   "/>
	</g>
	<g>
		
			<rect x="342.14" y="377.22" transform="matrix(0.4628 -0.8865 0.8865 0.4628 -142.8794 519.1776)" class="st5" width="29.54" height="0.5"/>
	</g>
	<g>
		<polygon class="st5" points="355.07,390.3 354.57,390.3 354.57,381.79 352.18,382.39 352.06,381.9 355.07,381.15   "/>
	</g>
	<g>
		
			<rect x="353.18" y="385.56" transform="matrix(0.4605 -0.8877 0.8877 0.4605 -149.1006 526.3109)" class="st5" width="10.45" height="0.5"/>
	</g>
	<g>
		<polygon class="st5" points="365.78,386.16 358.76,379.16 358.76,373.58 359.26,373.58 359.26,378.95 366.14,385.81   "/>
	</g>
	<g>
		
			<rect x="361.54" y="383.44" transform="matrix(0.7115 -0.7027 0.7027 0.7115 -167.4267 365.826)" class="st5" width="0.5" height="6.72"/>
	</g>
	<g>
		
			<rect x="358.31" y="387.2" transform="matrix(0.7045 -0.7097 0.7097 0.7045 -170.1028 369.4189)" class="st5" width="0.5" height="3.55"/>
	</g>
</g>
<g>
	<polygon class="st5" points="367.87,423.78 367.37,423.78 367.38,409.13 400.19,408.69 399.25,407.3 399.67,407.02 401.12,409.18    367.88,409.63  "/>
</g>
<g>
	
		<rect x="382.66" y="407.17" transform="matrix(0.8198 -0.5726 0.5726 0.8198 -164.7488 292.8175)" class="st5" width="0.5" height="2.05"/>
</g>
<g>
	<path class="st5" d="M367.46,419.2l-0.01-0.5l53.57-0.97l-16.43-12.85c-0.04-0.03-1.54-1.48-3.45-1.82l0.09-0.49   c2.07,0.36,3.63,1.87,3.69,1.93l16.96,13.26l-0.15,0.45L367.46,419.2z"/>
</g>
<g>
	<path class="st4" d="M348.6,427.23l-0.19-0.04c-0.13-0.03-13.46-2.63-15.62-3.14c-2.3-0.54-3.76-2.28-3.83-2.35l0.38-0.32   c0.01,0.02,1.43,1.68,3.56,2.18c2.01,0.47,13.78,2.78,15.41,3.1l5.21-10.56l13.98,2.59l-0.09,0.49l-13.6-2.52L348.6,427.23z"/>
</g>
<g>
	
		<rect x="338.62" y="422.05" transform="matrix(0.4535 -0.8913 0.8913 0.4535 -189.418 535.7016)" class="st5" width="6.93" height="0.5"/>
</g>
<g>
	<path class="st4" d="M356.19,436.1c-0.11-0.02-11.2-2.09-11.58-2.15c-4.24-0.67-6-2.42-6.85-3.26c-0.08-0.08-0.15-0.15-0.22-0.21   c-0.7-0.65-8.02-8.19-8.34-8.51l0.36-0.35c0.08,0.08,7.62,7.86,8.32,8.5c0.07,0.06,0.14,0.14,0.23,0.22   c0.81,0.8,2.5,2.47,6.58,3.12c0.38,0.06,11.13,2.07,11.59,2.16L356.19,436.1z"/>
</g>
<g>
	
		<rect x="355.01" y="414.81" transform="matrix(0.4813 -0.8765 0.8765 0.4813 -178.6867 528.15)" class="st5" width="3.85" height="0.5"/>
</g>
<g>
	<polygon class="st4" points="361.22,431.8 360.78,431.56 367.43,418.9 367.88,419.14  "/>
</g>
<g>
	<polygon class="st4" points="363.11,432.12 362.67,431.89 367.39,422.9 367.83,423.14  "/>
</g>
<g>
	<g>
		<path class="st3" d="M235.69,285.64l-1,0c0-0.72,0.26-72.48,0.23-73.79l0-0.13c-0.05-1.76-0.12-4.17,4.73-5.74    c5.41-1.75,26.51-6.52,26.72-6.57l0.08-0.02l14.4,1.28l5.24,3.31l-0.53,0.85l-5.04-3.18l-14-1.25c-1.4,0.32-21.35,4.84-26.55,6.52    c-4.13,1.34-4.08,3.16-4.04,4.76l0,0.13C235.95,213.15,235.7,282.68,235.69,285.64z"/>
	</g>
	<g>
		<path class="st3" d="M291.35,326.97l-1-0.05l1.19-21.91c0-0.79-0.02-72.83,0.02-90.54l-23.91,8.39l-0.12-0.01l-26.38-3.21    l-3.06-3.45v-4.98l30.65-8.01l0.08,0l17.94,0.81c0.11,0.05,2.65,1.34,3.34,1.78c0.06,0.04,0.14,0.08,0.22,0.13    c0.81,0.46,2.33,1.32,2.26,4.79c-0.06,3.5-0.04,93.43-0.04,94.34L291.35,326.97z M241.64,218.69l25.89,3.15l24.03-8.43    c0-1.48,0.01-2.43,0.01-2.73c0.05-2.88-1.04-3.49-1.75-3.9c-0.1-0.06-0.19-0.11-0.27-0.16c-0.57-0.37-2.68-1.44-3.15-1.68    l-17.56-0.74l-29.76,7.78v3.83L241.64,218.69z"/>
	</g>
	<g>
		<path class="st3" d="M267.57,218.16l-0.1-0.01l-26.36-2.76l-2.91-3.48l0.77-0.64l2.65,3.17l25.85,2.71l20.85-6.65    c2.99-0.96,3.12-1.61,3.12-1.62c0,0.01,0,0.05,0.06,0.12l0.76-0.65c0.13,0.16,0.24,0.46,0.14,0.81c-0.23,0.81-1.47,1.55-3.77,2.29    L267.57,218.16z"/>
	</g>
	<g>
		<path class="st3" d="M238.41,216.56l-2.24-2.39c-1.06-1.21-1.26-2.64-1.27-2.7l0.99-0.13c0,0.01,0.17,1.2,1.02,2.16l2.23,2.38    L238.41,216.56z"/>
	</g>
	<g>
		<polygon class="st3" points="243.77,282.46 243.27,282.44 243.56,274.89 241.14,219.17 241.64,219.15 244.06,274.89   "/>
	</g>
	<g>
		<polygon class="st3" points="260.58,368.31 260.08,368.31 260.08,277.3 267.34,222.32 267.83,222.38 260.58,277.33   "/>
	</g>
	<g>
		<polygon class="st3" points="255.35,370.52 255.18,370.05 269.05,364.93 269.23,365.4   "/>
	</g>
	<g>
		
			<rect x="251.82" y="267.76" transform="matrix(0.1435 -0.9896 0.9896 0.1435 -57.3517 485.9345)" class="st3" width="0.5" height="16.69"/>
	</g>
</g>
<g>
	<path class="st2" d="M225.02,413.95c-0.67,0-1.41-0.06-2.19-0.2c-4.53-0.82-12.64-2.07-12.72-2.08l-0.38-0.06l-0.04-0.38   c-1.61-13.69-4.72-39.87-5.01-41.03c-0.38-1.51-0.12-50.78-0.09-56.39l0-0.12l0.06-0.11l11.4-21.41l24.16-9.18l0,0   c-0.01,0,4.31-2.19,7.58,1.19c2.98,3.09,3.7,3.75,3.71,3.75l0.14,0.13l3.91,46.69l0.2,56.54l-7.77,9.96l-18.85,11.92   C229.02,413.24,227.42,413.95,225.02,413.95z M210.65,410.74c1.66,0.26,8.39,1.31,12.37,2.03c3.25,0.59,5.64-0.46,5.67-0.47   l18.71-11.84l7.38-9.51l-0.19-56.15l-3.88-46.27c-0.33-0.31-1.28-1.25-3.61-3.66c-2.74-2.84-6.31-1.05-6.46-0.97l-23.87,9.07   l-11.17,20.97c-0.08,15.2-0.23,54.54,0.06,56.03C206.02,371.41,210.14,406.44,210.65,410.74z"/>
</g>
<g>
	<polygon class="st2" points="231.38,312.45 217.76,301.91 223.61,289.45 224.51,289.88 219.01,301.61 231.57,311.33 239.62,308.61    250.74,288.06 251.62,288.54 240.32,309.44  "/>
</g>
<g>
	<path class="st2" d="M225.07,317.35c-1.3,0-2.78-0.17-4.65-0.52l-15.4-2.53l0.16-0.99l15.41,2.53c3.77,0.69,5.74,0.67,8.11-0.06   l12.2-3.99l10.19-19.59l0.89,0.46l-10.38,19.96L229,316.75C227.69,317.15,226.48,317.35,225.07,317.35z"/>
</g>
<g>
	<polygon class="st2" points="230.23,316.23 217.76,306.44 217.76,301.92 218.76,301.92 218.76,305.95 230.85,315.44  "/>
</g>
<g>
	<polygon class="st2" points="240.01,406.01 239.01,406.01 239.01,384.03 225.58,336.84 225.58,317.23 226.58,317.23 226.58,336.77    240.01,383.96  "/>
</g>
<g>
	<polygon class="st2" points="247.48,400.84 247.31,343.31 241,312.27 241.49,312.17 247.8,343.26 247.98,400.84  "/>
</g>
<g>
	
		<rect x="245.64" y="338.81" transform="matrix(0.6618 -0.7497 0.7497 0.6618 -169.1873 303.0665)" class="st2" width="11.36" height="0.5"/>
</g>
<g>
	<path class="st4" d="M301.74,428.43l-21.23-3.63l-0.11-0.11c-0.08-0.08-7.68-7.68-9.58-9.49c-1.98-1.89-2.05-2.3-2.05-4.96   c0-0.08-0.12-71.23-0.12-72.1c-0.01-1.11-0.02-3.79,3.36-4.94l21.66-7.43l29.88,5.44l2.28,2.35l2.98,0.54l1.46,1.19   c0.08,0.05,1.27,0.87,1.15,3.78c-0.1,2.42-0.05,61.41-0.04,73.21c0,0.09,0,0.21,0.01,0.35c0.05,1.49,0.21,6.02-3.92,7.27   c-5.01,1.51-25.4,8.42-25.61,8.49L301.74,428.43z M280.99,423.87l20.67,3.53c1.7-0.58,20.7-7.01,25.52-8.46   c3-0.91,3.29-3.83,3.21-6.27c0-0.15-0.01-0.28-0.01-0.38c-0.01-11.8-0.05-70.81,0.04-73.25c0.09-2.31-0.74-2.93-0.74-2.94   l-1.29-1.06l-32.46-5.88l-22.91,7.87v3.34h-1v-4.05l23.83-8.19l28.29,5.13l-1.08-1.11l-29.31-5.34l-21.42,7.34   c-2.7,0.93-2.69,2.93-2.69,3.9v0.1c0,0.87,0.12,72.01,0.12,72.01c0,2.51,0,2.66,1.74,4.32   C273.28,416.17,280.03,422.92,280.99,423.87z"/>
</g>
<g>
	<path class="st4" d="M310.41,349.83l-35.33-6.21l-6.26-5.94l0.69-0.73l6.04,5.73l34.77,6.11l17.77-6.23   c0.09-0.02,2.28-0.48,2.3-1.88l1,0.01c-0.03,2.2-2.92,2.8-3.04,2.82L310.41,349.83z"/>
</g>
<g>
	<path class="st4" d="M310.46,345.74l-0.12-0.02L275,339.49l-2.81-2.43l0.65-0.76l2.6,2.25l34.94,6.16l17.32-5.67   c0.69-0.18,2.55-0.88,2.55-1.9h1c0,1.97-2.94,2.77-3.28,2.86L310.46,345.74z"/>
</g>
<g>
	<polygon class="st4" points="275.91,419.02 274.91,419.02 275.12,375.72 271.25,339.82 272.25,339.72 276.11,375.67  "/>
</g>
<g>
	<polygon class="st4" points="310.82,424.93 309.82,424.93 309.83,380.61 316.82,346.77 317.8,346.98 310.82,380.76  "/>
</g>
<g>
	<polygon class="st4" points="281,424.34 280.5,424.34 280.8,370.64 275.07,343.21 275.56,343.1 281.3,370.59  "/>
</g>
<g>
	<polygon class="st4" points="301.95,427.65 301.45,427.65 301.46,374.33 310.13,349.23 310.6,349.39 301.95,374.45  "/>
</g>
<g>
	
		<rect x="291.12" y="362.03" transform="matrix(0.1797 -0.9837 0.9837 0.1797 -127.4365 592.2341)" class="st4" width="0.5" height="20.98"/>
</g>
<g>
	<polygon class="st5" points="306.81,328.66 306.21,308.04 305.99,180.82 308.39,176.32 309.27,176.79 306.99,181.07 307.21,308.02    307.81,328.63  "/>
</g>
<g>
	<path class="st5" d="M309.31,329.04l-1,0l0.15-155.15l13.48-20.79l0.16-0.06c0.74-0.26,18.18-6.48,20.99-7.31l0.65-0.2   c2.75-0.84,6.17-1.89,10.15,0.94l-0.58,0.82c-3.59-2.54-6.61-1.62-9.28-0.8l-0.66,0.2c-2.64,0.78-18.98,6.6-20.78,7.24   l-13.13,20.26L309.31,329.04z"/>
</g>
<g>
	<path class="st5" d="M325.06,187.09c-4.74,0-6.61-2.71-6.71-2.87l-9.75-9.84l0.71-0.7l9.81,9.91c0.18,0.25,3.04,4.29,11.11,1.53   l-10.64-9.43v-5.92l0.08-0.12l8.73-13.89l27.07-10.07l7.57,5.35l-0.04,5.71l-11.84,22.09l-0.18,0.06   c-0.12,0.04-11.72,4.16-20.34,7.14C328.45,186.81,326.6,187.09,325.06,187.09z M320.59,175.25l10.72,9.51   c7.88-2.73,17.69-6.21,19.14-6.73L362,156.49l0.04-4.94l-6.71-4.74l-26.26,9.77l-8.47,13.49V175.25z"/>
</g>
<g>
	<polygon class="st5" points="332.27,180.95 319.77,170.3 320.42,169.54 332.49,179.82 349.34,174.16 361.98,151.33 362.85,151.81    350.03,174.99  "/>
</g>
<g>
	<polygon class="st5" points="331.1,390.12 330.76,389.18 352.21,381.54 361.92,362.95 362,155.9 363,155.9 362.92,363.2    352.92,382.35  "/>
</g>
<g>
	<polygon class="st5" points="349.11,383.37 348.11,383.37 348.11,312.38 334.46,219.91 334.46,183.95 335.46,183.95 335.46,219.84    349.11,312.31  "/>
</g>
<g>
	
		<rect x="351.47" y="178.28" transform="matrix(1 -8.247399e-03 8.247399e-03 1 -2.2982 2.9103)" class="st5" width="0.5" height="203.66"/>
</g>
<g>
	
		<rect x="333.81" y="421.48" transform="matrix(0.4782 -0.8783 0.8783 0.4782 -194.6988 515.7758)" class="st5" width="5.75" height="0.5"/>
</g>
<g>
	
		<rect x="336.17" y="421.77" transform="matrix(0.4628 -0.8865 0.8865 0.4628 -191.806 527.5365)" class="st5" width="6.33" height="0.5"/>
</g>
<g>
	<polygon class="st4" points="308.31,455.05 306.34,444.31 306.37,436.83 308.72,433.62 309.12,433.92 306.87,436.99 306.84,444.27    308.81,454.96  "/>
</g>
<g>
	<polygon class="st4" points="308.97,455.04 308.47,455.04 308.67,433.98 301.01,432.64 298.82,435.5 298.77,442.83 300.82,453.49    300.33,453.58 298.28,442.88 298.32,435.33 300.79,432.1 309.17,433.56  "/>
</g>
<g>
	
		<rect x="302.31" y="432.34" transform="matrix(0.1906 -0.9817 0.9817 0.1906 -183.3092 650.0662)" class="st4" width="0.5" height="7.72"/>
</g>
<g>
	<polygon class="st4" points="306.31,444.39 298.48,443.08 298.57,442.58 306.39,443.9  "/>
</g>
<g>
	
		<rect x="306.81" y="432.17" transform="matrix(0.4628 -0.8865 0.8865 0.4628 -216.4164 507.731)" class="st4" width="7.76" height="0.5"/>
</g>
<g>
	
		<rect x="331.09" y="417.91" transform="matrix(0.1748 -0.9846 0.9846 0.1748 -160.4633 689.855)" class="st4" width="0.5" height="45.49"/>
</g>
<g>
	
		<rect x="330.87" y="421.4" transform="matrix(0.1758 -0.9844 0.9844 0.1758 -164.1293 691.8812)" class="st4" width="0.5" height="45.11"/>
</g>
<g>
	<polygon class="st4" points="353.27,452.41 308.78,444.37 308.87,443.87 353.36,451.92  "/>
</g>
<g>
	
		<rect x="330.82" y="432.65" transform="matrix(0.1805 -0.9836 0.9836 0.1805 -176.4684 698.759)" class="st4" width="0.5" height="45.24"/>
</g>
<g>
	
		<rect x="326.84" y="454.58" transform="matrix(1 -1.311130e-03 1.311130e-03 1 -0.5982 0.4293)" class="st4" width="0.5" height="3.72"/>
</g>
<g>
	
		<rect x="328.02" y="456.74" transform="matrix(1.953121e-03 -1 1 1.953121e-03 -127.802 785.9296)" class="st4" width="3.62" height="0.5"/>
</g>
<g>
	<rect x="332.23" y="455.58" class="st4" width="0.5" height="3.85"/>
</g>
<g>
	<polygon class="st2" points="255.11,440.8 231.09,436.45 231.18,435.96 255.2,440.31  "/>
</g>
<g>
	<polygon class="st4" points="299.55,448.84 255.11,440.8 255.2,440.31 299.64,448.35  "/>
</g>
<g>
	<rect x="246.24" y="434.91" class="st2" width="0.5" height="8.8"/>
</g>
<g>
	<rect x="277.11" y="444.64" class="st4" width="0.5" height="4.77"/>
</g>
<g>
	<polygon class="st4" points="354.22,463.43 255.11,445.46 255.2,444.97 354.31,462.94  "/>
</g>
<g>
	<polygon class="st2" points="255.11,445.46 230.88,441.07 230.88,432.06 231.38,432.06 231.38,440.65 255.2,444.97  "/>
</g>
<g>
	<polygon class="st2" points="230.03,443.25 217,440.95 217,431.98 218.48,429.81 218.89,430.09 217.5,432.13 217.5,440.53    229.78,442.69 230.92,440.73 231.35,440.99  "/>
</g>
<g>
	<polygon class="st2" points="230.15,442.77 229.65,442.77 229.65,434.46 217.21,432.3 217.29,431.81 230.15,434.04  "/>
</g>
<g>
	<polygon class="st2" points="230.03,438.58 217.21,436.45 217.29,435.96 229.78,438.03 230.92,436.2 231.34,436.46  "/>
</g>
<g>
	<polygon class="st2" points="230.13,434.49 229.68,434.26 231,431.77 231.44,432.01  "/>
</g>
<g>
	<polygon class="st2" points="217.21,438.46 211.88,437.53 211.88,428.59 212.38,428.59 212.38,437.11 217.29,437.96  "/>
</g>
<g>
	
		<rect x="214.44" y="430.61" transform="matrix(0.1595 -0.9872 0.9872 0.1595 -247.2247 576.0289)" class="st2" width="0.5" height="5.19"/>
</g>
<g>
	<rect x="421.4" y="417.76" class="st5" width="0.5" height="6.55"/>
</g>
<g>
	<rect x="419.34" y="421.49" class="st5" width="2.31" height="0.5"/>
</g>
<g>
	<polyline class="st6" points="409.57,426.31 407.23,423.74 406.35,423.74 406.35,418.86 408.1,418.81 408.1,419.62 409.21,419.35    419.03,421.24 439.73,443.38  "/>
	<polygon class="st0" points="439.66,443.45 418.98,421.33 409.22,419.45 408,419.75 408,418.91 406.45,418.96 406.45,423.64    407.28,423.64 407.31,423.67 409.64,426.25 409.5,426.38 407.19,423.84 406.25,423.84 406.25,418.76 408.2,418.71 408.2,419.49    409.21,419.25 409.23,419.25 419.09,421.15 419.11,421.17 439.81,443.32  "/>
</g>
<g>
	<polygon class="st0" points="435.55,454.48 435.47,454.47 354.05,440.03 354.08,439.83 435.44,454.26 439.94,445.48 440.11,445.57     "/>
</g>
<g>
	<polygon class="st0" points="435.62,458.62 435.54,458.61 354.05,444.08 354.08,443.88 435.5,458.4 439.95,449.44 440.13,449.53     "/>
</g>
<g>
	<polygon class="st0" points="438.44,460.57 438.37,460.55 353.31,445.55 353.34,445.35 438.33,460.34 443.54,450.14 443.72,450.23     "/>
</g>
<g>
	<rect x="435.39" y="454.37" class="st0" width="0.2" height="4.14"/>
</g>
<g>
	<rect x="438.28" y="460.46" class="st0" width="0.2" height="15.29"/>
</g>
<g>
	<polygon class="st0" points="435.6,475.33 354.25,461.11 354.28,460.92 435.63,475.13  "/>
</g>
<g>
	<polygon class="st0" points="435.65,478.38 435.47,478.29 436.99,475.44 437.16,475.54  "/>
</g>
<g>
	<polygon class="st0" points="443.84,463.76 443.67,463.66 445.04,461.19 445.04,443.37 429.05,443.7 429.05,443.5 445.24,443.17    445.23,461.26  "/>
</g>
<g>
	<polygon class="st0" points="441.89,449.88 441.71,449.78 445.05,443.23 445.23,443.32  "/>
</g>
<g>
	<polygon class="st0" points="365.04,432.4 365.04,429.84 365.05,429.82 367.53,425.03 367.52,423.69 367.62,423.68 399.76,423.14    399.76,423.34 367.72,423.88 367.73,425.07 367.72,425.1 365.24,429.89 365.24,432.4  "/>
</g>
<g>
	<polygon class="st0" points="389.4,436.57 389.2,436.57 389.2,430.65 388.48,423.44 388.68,423.42 389.4,430.64  "/>
</g>
<g>
	<polygon class="st0" points="365.14,429.97 365.14,429.77 389.22,429.4 389.22,429.6  "/>
</g>
<g>
	<polygon class="st0" points="389.3,430.75 389.3,430.55 405.42,430.45 405.43,430.65  "/>
</g>
<g>
	<polygon class="st0" points="367.63,425.15 367.63,424.95 388.66,424.5 388.67,424.7  "/>
</g>
<g>
	<polygon class="st0" points="399.68,423.57 399.68,420.98 406.38,420.88 406.38,421.08 399.88,421.18 399.88,423.36 406.27,423.33    406.27,423.53  "/>
</g>
<g>
	<polygon class="st0" points="407.28,423.73 407.08,423.73 407.08,420.45 408,420.22 408,419.62 408.2,419.62 408.2,420.38    407.28,420.61  "/>
</g>
<g>
	<polygon class="st0" points="405.5,439.45 405.3,439.45 405.3,428.95 405.34,428.92 411.32,424.99 407.11,420.6 407.25,420.46    411.63,425.02 411.53,425.09 405.5,429.06  "/>
</g>
<g>
	<polygon class="st0" points="415.28,441.12 415.08,441.12 415.08,439.37 405.33,429.08 405.47,428.94 415.28,439.29  "/>
</g>
<g>
	<polygon class="st0" points="425,442.95 421.94,439.74 419.39,441.18 416.82,438.51 415.23,439.42 415.13,439.24 416.85,438.26    416.91,438.31 419.43,440.93 421.98,439.49 425.15,442.81  "/>
</g>
<g>
	<rect x="416.73" y="438.38" class="st0" width="0.2" height="3.09"/>
</g>
<g>
	<rect x="419.31" y="441.06" class="st0" width="0.2" height="0.85"/>
</g>
<g>
	<rect x="421.81" y="439.72" class="st0" width="0.2" height="2.53"/>
</g>
<g>
	
		<rect x="420.65" y="414.73" transform="matrix(0.7235 -0.6903 0.6903 0.7235 -181.4975 409.7135)" class="st0" width="0.2" height="33.43"/>
</g>
<g>
	<path class="st0" d="M411.38,447.73l-0.08-0.01l-53.54-9.71l0.13-1.7l1.92-3.7l0.07,0.01l53.28,9.56l-0.01,1.85L411.38,447.73z    M357.98,437.84l53.29,9.67l1.69-3.55v-1.62l-53.04-9.51l-1.84,3.55L357.98,437.84z"/>
</g>
<g>
	<polygon class="st0" points="411.38,445.88 411.3,445.87 357.96,436.45 358,436.25 411.26,445.66 412.96,442.21 413.14,442.3  "/>
</g>
<g>
	<rect x="411.22" y="445.77" class="st0" width="0.2" height="1.85"/>
</g>
<g>
	<path class="st0" d="M370.78,437.52l-0.07-0.01l-10.74-1.9l1.02-2.05l0.07,0.01l10.74,1.89L370.78,437.52z M360.27,435.46   l10.4,1.84l0.84-1.69l-10.4-1.83L360.27,435.46z"/>
</g>
<g>
	<path class="st0" d="M388.25,440.67l-0.07-0.01l-10.74-1.9l1.02-2.05l0.07,0.01l10.74,1.89L388.25,440.67z M377.74,438.61   l10.4,1.84l0.84-1.69l-10.4-1.83L377.74,438.61z"/>
</g>
<g>
	<path class="st0" d="M435.66,478.46l-0.12-0.02l-81.38-14.94v-2.4l-0.94-0.21l0.01-15.48l0.73-1.45l0.01-4.07l4.54-8.74l0.07,0.01   l81.53,14.29v0.08l0.01,3.88l3.59,0.69v0.08l0.12,15.56l-5.27,10.11l-2.87-0.5L435.66,478.46z M354.37,463.33l81.1,14.89l0.06-3.1   l2.96,0.52l5.18-9.94l-0.12-15.43l-3.59-0.69v-0.08l-0.01-3.88l-81.29-14.25l-4.46,8.59l-0.01,4.07l-0.73,1.45v15.25l0.94,0.21   V463.33z"/>
</g>
<g>
	<defs>
		<rect id="SVGID_1_" x="-77.74" y="371.84" width="599.74" height="146.08"/>
	</defs>
	<clipPath id="SVGID_2_">
		<use xlink:href="#SVGID_1_" style="overflow:visible;"/>
	</clipPath>
	<path class="st7" d="M294.78,471.3v-1.14h-5.09v7.27h5.36v-1.14h-4.07v-2.04h3.45v-1.14h-3.45v-1.8H294.78z M287.82,471.24   c-0.43-0.47-1.31-1.21-2.82-1.21c-1.54,0-2.75,0.86-2.75,2.16c0,1.33,0.99,1.83,2.18,2.09l0.97,0.21c0.74,0.16,1.24,0.37,1.24,0.94   c0,0.58-0.5,0.98-1.48,0.98c-1.03,0-1.83-0.57-2.16-1.11l-1.07,0.77c0.5,0.71,1.58,1.48,3.16,1.48c1.82,0,2.92-0.9,2.92-2.24   c0-1.33-0.98-1.76-2.34-2.07l-0.88-0.19c-0.82-0.18-1.18-0.39-1.18-0.92c0-0.56,0.49-0.97,1.34-0.97c0.81,0,1.48,0.37,1.88,0.88   L287.82,471.24z M280.66,471.24c-0.43-0.47-1.31-1.21-2.82-1.21c-1.54,0-2.75,0.86-2.75,2.16c0,1.33,0.99,1.83,2.18,2.09l0.97,0.21   c0.74,0.16,1.24,0.37,1.24,0.94c0,0.58-0.5,0.98-1.48,0.98c-1.03,0-1.83-0.57-2.16-1.11l-1.07,0.77c0.5,0.71,1.58,1.48,3.16,1.48   c1.82,0,2.92-0.9,2.92-2.24c0-1.33-0.98-1.76-2.34-2.07l-0.88-0.19c-0.82-0.18-1.18-0.39-1.18-0.92c0-0.56,0.49-0.97,1.34-0.97   c0.81,0,1.48,0.37,1.88,0.88L280.66,471.24z M271.78,474.64h-1.9l0.68-2.24c0.12-0.34,0.2-0.64,0.27-0.91h0.01   c0.07,0.28,0.15,0.59,0.27,0.93L271.78,474.64z M269.52,475.78h2.64l0.56,1.65h1.38l-2.5-7.27h-1.45l-2.52,7.27h1.34L269.52,475.78   z M262.27,471.29h1.38c0.52,0,0.8,0.04,1.03,0.14c0.32,0.14,0.51,0.49,0.51,0.89c0,0.4-0.19,0.76-0.51,0.91   c-0.22,0.1-0.5,0.14-1.03,0.14h-1.38V471.29z M263.59,474.52l1.69,2.91h1.53l-1.82-3.04c0.17-0.06,0.4-0.15,0.57-0.26   c0.59-0.39,0.96-0.98,0.96-1.78c0-0.89-0.4-1.49-1.04-1.86c-0.56-0.32-1.21-0.33-1.83-0.33h-2.66v7.27h1.28v-2.91H263.59z    M253.93,471.3h2.13v6.13h1.28v-6.13h2.12v-1.14h-5.53V471.3z M252.67,471.24c-0.43-0.47-1.31-1.21-2.82-1.21   c-1.54,0-2.75,0.86-2.75,2.16c0,1.33,0.99,1.83,2.18,2.09l0.97,0.21c0.74,0.16,1.24,0.37,1.24,0.94c0,0.58-0.5,0.98-1.48,0.98   c-1.03,0-1.83-0.57-2.16-1.11l-1.07,0.77c0.5,0.71,1.58,1.48,3.16,1.48c1.82,0,2.92-0.9,2.92-2.24c0-1.33-0.98-1.76-2.34-2.07   l-0.88-0.19c-0.82-0.18-1.18-0.39-1.18-0.92c0-0.56,0.49-0.97,1.34-0.97c0.81,0,1.48,0.37,1.88,0.88L252.67,471.24z M245.75,471.3   v-1.14h-4.68v7.27h1.28v-3.09h3.26v-1.14h-3.26v-1.89H245.75z M233.82,473.79c0-1.58,0.77-2.62,2.04-2.62   c1.27,0,2.04,1.04,2.04,2.62c0,1.58-0.75,2.6-2.04,2.6C234.57,476.39,233.82,475.38,233.82,473.79 M232.42,473.79   c0,2.21,1.24,3.76,3.44,3.76c2.21,0,3.44-1.55,3.44-3.76c0-2.23-1.32-3.76-3.44-3.76C233.75,470.03,232.42,471.57,232.42,473.79    M229.38,474.24l-0.02,3.19h1.3v-7.27h-1.28v2.94h-3.25v-2.94h-1.28v7.27h1.28v-3.19H229.38z M216.47,473.79   c0,2.21,1.24,3.76,3.34,3.76c0.8,0,1.5-0.31,1.92-0.68v0.55h1.22v-3.98h-3.38v1.16h2.18c-0.06,1.1-0.58,1.8-1.8,1.8   c-1.29,0-2.07-1.04-2.07-2.62s0.79-2.61,2.07-2.61c0.85,0,1.42,0.45,1.78,1.21l1.12-0.7c-0.36-0.63-1.21-1.67-2.9-1.67   C217.83,470.03,216.47,471.57,216.47,473.79 M210.13,470.16h-1.2v7.27h1.27V475c0-1.22-0.01-2.35-0.02-2.69   c0.01,0,0.24,0.4,0.46,0.75l2.87,4.37h1.2v-7.27h-1.27v2.44c0,1.03,0.02,2.37,0.02,2.61c-0.1-0.16-0.4-0.64-0.56-0.89   L210.13,470.16z M204.04,476.37c-0.69,0-1.17-0.22-1.39-0.75c-0.12-0.25-0.16-0.51-0.16-1.23v-4.23h-1.27v4.25   c0,1.06,0.11,1.55,0.37,2.01c0.48,0.79,1.38,1.13,2.45,1.13c1.07,0,1.97-0.34,2.45-1.13c0.27-0.46,0.37-0.95,0.37-2.01v-4.25h-1.27   v4.23c0,0.72-0.04,0.98-0.16,1.23C205.21,476.14,204.73,476.37,204.04,476.37 M197.91,470.16v4.72c0,0.65-0.05,0.96-0.26,1.19   c-0.17,0.18-0.46,0.29-0.91,0.29c-0.25,0-0.45-0.02-0.64-0.06v1.13c0.27,0.07,0.55,0.09,0.81,0.09c0.76,0,1.58-0.22,1.97-0.77   c0.28-0.4,0.31-0.94,0.31-1.53v-5.06H197.91z"/>
	<path class="st7" d="M99.03,484.43h-3.85l3.83-5.06v-1.05h-5.27v1.15h3.66l-3.85,5.06v1.06h5.47V484.43z M86.99,479.46h2.13v6.13   h1.28v-6.13h2.12v-1.14h-5.53V479.46z M84.56,482.8h-1.9l0.68-2.23c0.12-0.34,0.2-0.64,0.27-0.91h0.01   c0.07,0.28,0.15,0.59,0.27,0.93L84.56,482.8z M82.3,483.94h2.64l0.56,1.65h1.38l-2.5-7.27h-1.45l-2.52,7.27h1.34L82.3,483.94z    M75.28,478.32v7.27h4.41v-1.17h-3.12v-6.09H75.28z M68.25,485.59h1.28v-2.83h1.14c0.9,0,1.74-0.04,2.33-0.54   c0.45-0.38,0.72-1,0.72-1.69c0-0.67-0.27-1.27-0.72-1.66c-0.59-0.5-1.43-0.55-2.33-0.55h-2.43V485.59z M69.53,479.45h1.33   c0.51,0,0.8,0.04,1.02,0.14c0.32,0.15,0.52,0.52,0.52,0.93c0,0.42-0.2,0.78-0.52,0.94c-0.21,0.1-0.5,0.14-1.02,0.14h-1.33V479.45z    M66.29,479.46v-1.14H61.2v7.27h5.35v-1.14h-4.07v-2.04h3.45v-1.14h-3.45v-1.8H66.29z M57.78,482.4l-0.02,3.19h1.3v-7.27h-1.28   v2.94h-3.25v-2.94h-1.28v7.27h1.28v-3.19H57.78z M46.2,479.46h2.13v6.13h1.28v-6.13h2.12v-1.14H46.2V479.46z M44.9,479.46v-1.14   h-5.09v7.27h5.35v-1.14h-4.07v-2.04h3.45v-1.14h-3.45v-1.8H44.9z M32.57,481.96c0-1.58,0.77-2.62,2.04-2.62   c1.27,0,2.04,1.04,2.04,2.62s-0.75,2.6-2.04,2.6C33.31,484.56,32.57,483.54,32.57,481.96 M31.17,481.96c0,2.21,1.24,3.76,3.44,3.76   c2.21,0,3.44-1.55,3.44-3.76c0-2.22-1.32-3.76-3.44-3.76C32.49,478.19,31.17,479.73,31.17,481.96 M23.17,481.96   c0,2.21,1.24,3.76,3.35,3.76c0.8,0,1.5-0.31,1.91-0.68v0.55h1.22v-3.98h-3.38v1.16h2.18c-0.06,1.1-0.58,1.8-1.8,1.8   c-1.3,0-2.08-1.04-2.08-2.62s0.79-2.61,2.08-2.61c0.84,0,1.42,0.45,1.77,1.21l1.12-0.69c-0.36-0.63-1.21-1.67-2.9-1.67   C24.53,478.19,23.17,479.73,23.17,481.96"/>
	<path class="st7" d="M63.91,386.97h2.13v6.13h1.28v-6.13h2.12v-1.14h-5.53V386.97z M60.16,388.83l2.96-3h-1.73l-3.18,3.28v-3.28   h-1.28v7.27h1.28v-2.35l0.98-0.97l2.35,3.32h1.64L60.16,388.83z M50.82,386.96h1.38c0.52,0,0.8,0.04,1.03,0.14   c0.32,0.14,0.51,0.49,0.51,0.89c0,0.4-0.19,0.76-0.51,0.91c-0.22,0.1-0.5,0.14-1.03,0.14h-1.38V386.96z M52.14,390.19l1.69,2.91   h1.53l-1.82-3.04c0.17-0.06,0.4-0.15,0.57-0.26c0.59-0.39,0.96-0.98,0.96-1.79c0-0.89-0.39-1.49-1.04-1.86   c-0.56-0.32-1.21-0.33-1.83-0.33h-2.66v7.27h1.28v-2.91H52.14z M45.85,390.31h-1.9l0.68-2.24c0.12-0.34,0.2-0.64,0.27-0.91h0.01   c0.07,0.28,0.15,0.59,0.27,0.93L45.85,390.31z M43.58,391.45h2.64l0.56,1.65h1.38l-2.5-7.27H44.2l-2.52,7.27h1.34L43.58,391.45z    M37.48,393.1l1.27-4.44c0.18-0.64,0.31-1.11,0.37-1.42h0.02c-0.04,0.61-0.09,1.76-0.09,2.78v3.08h1.25v-7.27h-1.95l-1.09,4.01   c-0.16,0.61-0.34,1.24-0.41,1.53h-0.02c-0.05-0.32-0.2-0.83-0.4-1.52l-1.15-4.02h-1.91v7.27h1.25v-3.08c0-1.36-0.04-2.27-0.06-2.61   h0.02c0,0,0.12,0.52,0.33,1.27l1.27,4.42H37.48z M31.52,386.91c-0.43-0.47-1.31-1.21-2.82-1.21c-1.54,0-2.75,0.86-2.75,2.16   c0,1.33,0.99,1.83,2.18,2.08l0.97,0.21c0.74,0.16,1.24,0.38,1.24,0.94c0,0.58-0.5,0.98-1.48,0.98c-1.03,0-1.83-0.57-2.16-1.11   l-1.07,0.77c0.5,0.71,1.58,1.48,3.16,1.48c1.82,0,2.92-0.9,2.92-2.24c0-1.33-0.98-1.77-2.34-2.08l-0.88-0.19   c-0.82-0.18-1.18-0.38-1.18-0.92c0-0.56,0.49-0.97,1.34-0.97c0.81,0,1.48,0.37,1.88,0.88L31.52,386.91z M24.35,386.91   c-0.43-0.47-1.31-1.21-2.82-1.21c-1.54,0-2.75,0.86-2.75,2.16c0,1.33,0.99,1.83,2.18,2.08l0.97,0.21c0.74,0.16,1.24,0.38,1.24,0.94   c0,0.58-0.5,0.98-1.48,0.98c-1.03,0-1.83-0.57-2.16-1.11l-1.07,0.77c0.5,0.71,1.58,1.48,3.16,1.48c1.82,0,2.92-0.9,2.92-2.24   c0-1.33-0.98-1.77-2.34-2.08l-0.88-0.19c-0.82-0.18-1.18-0.38-1.18-0.92c0-0.56,0.49-0.97,1.34-0.97c0.81,0,1.48,0.37,1.88,0.88   L24.35,386.91z M11.81,389.46c0-1.58,0.77-2.62,2.04-2.62s2.04,1.04,2.04,2.62c0,1.58-0.75,2.6-2.04,2.6S11.81,391.05,11.81,389.46    M10.41,389.46c0,2.21,1.24,3.76,3.44,3.76c2.21,0,3.44-1.55,3.44-3.76c0-2.22-1.33-3.76-3.44-3.76S10.41,387.24,10.41,389.46    M4.73,386.96H6.1c0.52,0,0.8,0.04,1.03,0.14c0.32,0.14,0.51,0.49,0.51,0.89c0,0.4-0.19,0.76-0.51,0.91   c-0.22,0.1-0.5,0.14-1.03,0.14H4.73V386.96z M6.04,390.19l1.69,2.91h1.53l-1.82-3.04c0.17-0.06,0.4-0.15,0.57-0.26   c0.59-0.39,0.96-0.98,0.96-1.79c0-0.89-0.4-1.49-1.04-1.86c-0.56-0.32-1.21-0.33-1.83-0.33H3.44v7.27h1.28v-2.91H6.04z"/>
	<path class="st7" d="M519.36,511.67v-1.14h-5.09v7.27h5.35v-1.14h-4.07v-2.04H519v-1.14h-3.45v-1.8H519.36z M512.4,511.61   c-0.43-0.47-1.31-1.21-2.82-1.21c-1.54,0-2.75,0.86-2.75,2.16c0,1.33,0.99,1.83,2.18,2.09l0.97,0.21c0.74,0.16,1.24,0.37,1.24,0.94   c0,0.58-0.5,0.98-1.48,0.98c-1.03,0-1.83-0.57-2.16-1.11l-1.07,0.77c0.5,0.71,1.58,1.48,3.16,1.48c1.82,0,2.92-0.9,2.92-2.24   c0-1.33-0.98-1.76-2.34-2.07l-0.88-0.19c-0.82-0.18-1.18-0.39-1.18-0.92c0-0.56,0.49-0.97,1.34-0.97c0.81,0,1.48,0.37,1.88,0.88   L512.4,511.61z M505.23,511.61c-0.43-0.47-1.31-1.21-2.82-1.21c-1.54,0-2.75,0.86-2.75,2.16c0,1.33,0.99,1.83,2.18,2.09l0.97,0.21   c0.74,0.16,1.24,0.37,1.24,0.94c0,0.58-0.5,0.98-1.48,0.98c-1.03,0-1.83-0.57-2.16-1.11l-1.07,0.77c0.5,0.71,1.58,1.48,3.16,1.48   c1.82,0,2.92-0.9,2.92-2.24c0-1.33-0.98-1.76-2.34-2.07l-0.88-0.19c-0.82-0.18-1.18-0.39-1.18-0.92c0-0.56,0.49-0.97,1.34-0.97   c0.81,0,1.48,0.37,1.88,0.88L505.23,511.61z M496.36,515.01h-1.9l0.68-2.24c0.12-0.34,0.2-0.64,0.27-0.91h0.01   c0.07,0.28,0.15,0.59,0.27,0.93L496.36,515.01z M494.1,516.15h2.64l0.56,1.65h1.38l-2.5-7.27h-1.45l-2.52,7.27h1.34L494.1,516.15z    M484.66,514.16c0,2.21,1.24,3.76,3.35,3.76c0.8,0,1.5-0.31,1.91-0.68v0.55h1.22v-3.98h-3.38v1.16h2.18c-0.06,1.1-0.58,1.8-1.8,1.8   c-1.3,0-2.08-1.04-2.08-2.62s0.79-2.61,2.08-2.61c0.84,0,1.42,0.45,1.77,1.21l1.12-0.7c-0.36-0.63-1.21-1.67-2.9-1.67   C486.01,510.4,484.66,511.94,484.66,514.16 M478.97,511.66h1.38c0.52,0,0.8,0.04,1.03,0.14c0.32,0.14,0.51,0.49,0.51,0.89   c0,0.4-0.19,0.76-0.51,0.91c-0.22,0.1-0.5,0.14-1.03,0.14h-1.38V511.66z M480.28,514.89l1.69,2.91h1.53l-1.82-3.04   c0.17-0.06,0.4-0.15,0.57-0.26c0.59-0.39,0.96-0.98,0.96-1.78c0-0.89-0.4-1.49-1.04-1.86c-0.56-0.32-1.21-0.33-1.83-0.33h-2.66   v7.27h1.28v-2.91H480.28z M475.72,511.67v-1.14h-5.09v7.27h5.35v-1.14h-4.07v-2.04h3.45v-1.14h-3.45v-1.8H475.72z M462.26,514.16   c0,2.21,1.24,3.76,3.35,3.76c0.8,0,1.5-0.31,1.91-0.68v0.55h1.22v-3.98h-3.38v1.16h2.18c-0.06,1.1-0.58,1.8-1.8,1.8   c-1.3,0-2.08-1.04-2.08-2.62s0.79-2.61,2.08-2.61c0.84,0,1.42,0.45,1.77,1.21l1.12-0.7c-0.36-0.63-1.21-1.67-2.9-1.67   C463.62,510.4,462.26,511.94,462.26,514.16 M455.92,510.53h-1.2v7.27h1.27v-2.42c0-1.22-0.01-2.35-0.02-2.69   c0.01,0,0.24,0.4,0.46,0.75l2.87,4.37h1.2v-7.27h-1.27v2.44c0,1.03,0.02,2.37,0.02,2.61c-0.1-0.16-0.4-0.64-0.56-0.89   L455.92,510.53z M452.58,510.53h-1.28v7.27h1.28V510.53z M449.43,511.61c-0.43-0.47-1.31-1.21-2.82-1.21   c-1.54,0-2.75,0.86-2.75,2.16c0,1.33,0.99,1.83,2.18,2.09l0.97,0.21c0.74,0.16,1.24,0.37,1.24,0.94c0,0.58-0.5,0.98-1.48,0.98   c-1.03,0-1.83-0.57-2.16-1.11l-1.07,0.77c0.5,0.71,1.58,1.48,3.16,1.48c1.82,0,2.92-0.9,2.92-2.24c0-1.33-0.98-1.76-2.34-2.07   l-0.88-0.19c-0.82-0.18-1.18-0.39-1.18-0.92c0-0.56,0.49-0.97,1.34-0.97c0.81,0,1.48,0.37,1.88,0.88L449.43,511.61z M442.29,511.67   v-1.14h-5.09v7.27h5.35v-1.14h-4.07v-2.04h3.45v-1.14h-3.45v-1.8H442.29z M431.31,510.53v7.27h4.42v-1.17h-3.12v-6.09H431.31z    M427.89,514.61l-0.02,3.19h1.3v-7.27h-1.28v2.94h-3.25v-2.94h-1.28v7.27h1.28v-3.19H427.89z M420.57,515.62   c-0.34,0.71-0.93,1.12-1.75,1.12c-1.3,0-2.05-0.99-2.05-2.58c0-1.58,0.77-2.61,2.05-2.61c0.84,0,1.42,0.45,1.77,1.21l1.12-0.69   c-0.36-0.63-1.21-1.67-2.9-1.67c-2.13,0-3.46,1.54-3.46,3.76c0,2.21,1.23,3.76,3.46,3.76c1.79,0,2.64-1.12,2.97-1.79L420.57,515.62   z M413.86,511.61c-0.43-0.47-1.31-1.21-2.82-1.21c-1.54,0-2.75,0.86-2.75,2.16c0,1.33,0.99,1.83,2.18,2.09l0.97,0.21   c0.74,0.16,1.24,0.37,1.24,0.94c0,0.58-0.5,0.98-1.48,0.98c-1.03,0-1.83-0.57-2.16-1.11l-1.07,0.77c0.5,0.71,1.58,1.48,3.16,1.48   c1.82,0,2.92-0.9,2.92-2.24c0-1.33-0.98-1.76-2.34-2.07l-0.88-0.19c-0.82-0.18-1.18-0.39-1.18-0.92c0-0.56,0.49-0.97,1.34-0.97   c0.81,0,1.48,0.37,1.88,0.88L413.86,511.61z M404.03,511.67v-1.14h-5.09v7.27h5.35v-1.14h-4.07v-2.04h3.45v-1.14h-3.45v-1.8H404.03   z M394.05,516.74c-0.68,0-1.17-0.22-1.39-0.75c-0.12-0.25-0.16-0.51-0.16-1.23v-4.23h-1.27v4.25c0,1.06,0.11,1.55,0.37,2.01   c0.48,0.79,1.38,1.13,2.45,1.13c1.07,0,1.97-0.34,2.45-1.13c0.27-0.46,0.37-0.95,0.37-2.01v-4.25h-1.27v4.23   c0,0.72-0.04,0.98-0.16,1.23C395.21,516.52,394.73,516.74,394.05,516.74 M389.39,511.67v-1.14h-5.09v7.27h5.35v-1.14h-4.07v-2.04   h3.45v-1.14h-3.45v-1.8H389.39z M377.58,510.53h-1.2v7.27h1.27v-2.42c0-1.22-0.01-2.35-0.02-2.69c0.01,0,0.24,0.4,0.46,0.75   l2.87,4.37h1.2v-7.27h-1.27v2.44c0,1.03,0.02,2.37,0.02,2.61c-0.1-0.16-0.4-0.64-0.56-0.89L377.58,510.53z"/>
	<g class="st8">
		<g>
			<rect x="446.98" y="494.42" class="st0" width="1.72" height="6.64"/>
		</g>
		<polygon class="st0" points="444.42,494.52 451.25,494.52 447.64,488.37   "/>
	</g>
</g>
<g id="Ebene_3_1_">
	<circle class="st9" cx="343.59" cy="148.41" r="12.81"/>
	<g>
		<path class="st6" d="M345.24,153.76h-1.64v-6.34h-2.67v-1.31h0.51c0.77,0,1.29-0.14,1.66-0.42c0.48-0.36,0.71-0.91,0.73-1.66h1.41    L345.24,153.76L345.24,153.76z"/>
	</g>
	<circle class="st10" cx="211.02" cy="213.04" r="12.81"/>
	<g>
		<path d="M207.69,212.49c-0.08-0.26-0.18-0.57-0.18-1.03c0-1.7,1.37-2.93,3.43-2.93c1.96,0,3.25,1.19,3.25,3.01    c0,2.2-2.02,3.76-3.72,5.03l-0.44,0.34v0.02c0,0,0.53-0.02,1.5-0.02h2.87v1.49h-7.01v-1.33c0.79-0.53,1.54-1.09,2.97-2.36    c1.21-1.09,2.04-1.8,2.04-3.09c0-0.99-0.61-1.62-1.6-1.62c-1.09,0-1.6,0.83-1.6,1.76c0,0.32,0.06,0.63,0.16,0.95L207.69,212.49z"/>
	</g>
	<circle class="st11" cx="307.69" cy="371.99" r="12.81"/>
	<g>
		<path class="st6" d="M311.33,373.81v1.41h-1.52v2.12h-1.6v-2.12h-4.46v-1.27l4.42-6.3h1.64v6.16L311.33,373.81L311.33,373.81z     M308.21,373.81v-1.47c0-0.81,0.04-2.16,0.08-2.67h-0.02c-0.22,0.44-0.69,1.25-1.31,2.12l-1.43,2.02L308.21,373.81L308.21,373.81z    "/>
	</g>
	<circle class="st12" cx="181.81" cy="335.22" r="12.81"/>
	<g>
		<path class="st6" d="M179.83,337.48c0.12,1.15,0.69,1.86,1.8,1.86c1.25,0,1.74-0.83,1.74-1.64c0-0.71-0.38-1.19-1.09-1.41    c-0.34-0.1-0.75-0.1-1.21-0.1h-0.63v-1.39h0.79c0.38,0,0.69-0.02,0.95-0.08c0.65-0.18,0.99-0.67,0.99-1.29    c0-0.69-0.48-1.35-1.54-1.35c-1.27,0-1.64,0.97-1.68,1.66l-1.54-0.26c0.02-1.5,1.17-2.77,3.33-2.77c2.04,0,3.17,1.05,3.17,2.48    c0,1.17-0.77,1.86-1.5,2.22c0.81,0.28,1.78,0.93,1.78,2.42c0,1.66-1.27,2.93-3.5,2.93c-2.32,0-3.35-1.21-3.52-3.03L179.83,337.48z    "/>
	</g>
</g>
</svg>